SplineFontDB: 3.0
FontName: Muli-Italic
FullName: Muli Italic
FamilyName: Muli
Weight: Book
Copyright: Copyright (c) 2011 by vernon adams. All rights reserved.
Version: 1.000
ItalicAngle: -12
UnderlinePosition: -119
UnderlineWidth: 119
Ascent: 1638
Descent: 410
sfntRevision: 0x00010000
LayerCount: 2
Layer: 0 1 "Back"  1
Layer: 1 1 "Fore"  0
XUID: [1021 759 1887733602 13323761]
FSType: 0
OS2Version: 2
OS2_WeightWidthSlopeOnly: 0
OS2_UseTypoMetrics: 1
CreationTime: 1305549000
ModificationTime: 1305890925
PfmFamily: 17
TTFWeight: 400
TTFWidth: 5
LineGap: 0
VLineGap: 0
Panose: 2 0 5 3 4 0 0 9 0 4
OS2TypoAscent: 322
OS2TypoAOffset: 1
OS2TypoDescent: -215
OS2TypoDOffset: 1
OS2TypoLinegap: 0
OS2WinAscent: 0
OS2WinAOffset: 1
OS2WinDescent: 0
OS2WinDOffset: 1
HheadAscent: 0
HheadAOffset: 1
HheadDescent: 0
HheadDOffset: 1
OS2SubXSize: 2937
OS2SubYSize: 2726
OS2SubXOff: 0
OS2SubYOff: 580
OS2SupXSize: 2937
OS2SupYSize: 2726
OS2SupXOff: 0
OS2SupYOff: 2001
OS2StrikeYSize: 102
OS2StrikeYPos: 512
OS2FamilyClass: 2053
OS2Vendor: 'newt'
OS2CodePages: 00000001.00000000
OS2UnicodeRanges: 800000ef.4000204b.00000000.00000000
Lookup: 258 0 0 "'kern' Horizontal Kerning lookup 0"  {"'kern' Horizontal Kerning lookup 0 subtable"  } ['kern' ('DFLT' <'dflt' > 'grek' <'dflt' > 'latn' <'dflt' > ) ]
MarkAttachClasses: 1
DEI: 91125
TtTable: prep
PUSHW_1
 0
CALL
SVTCA[y-axis]
PUSHW_3
 1
 3
 2
CALL
SVTCA[x-axis]
PUSHW_3
 4
 3
 2
CALL
SVTCA[x-axis]
PUSHW_8
 4
 69
 56
 44
 32
 19
 0
 8
CALL
PUSHW_8
 5
 62
 51
 39
 28
 17
 0
 8
CALL
PUSHW_8
 6
 52
 43
 34
 24
 15
 0
 8
CALL
SVTCA[y-axis]
PUSHW_8
 1
 77
 63
 49
 35
 21
 0
 8
CALL
PUSHW_8
 2
 85
 69
 54
 39
 23
 0
 8
CALL
PUSHW_8
 3
 54
 44
 35
 25
 15
 0
 8
CALL
SVTCA[y-axis]
PUSHW_3
 7
 7
 7
CALL
PUSHW_1
 0
DUP
RCVT
RDTG
ROUND[Black]
RTG
WCVTP
EndTTInstrs
TtTable: fpgm
PUSHW_1
 0
FDEF
MPPEM
PUSHW_1
 9
LT
IF
PUSHB_2
 1
 1
INSTCTRL
EIF
PUSHW_1
 511
SCANCTRL
PUSHW_1
 68
SCVTCI
PUSHW_2
 9
 3
SDS
SDB
ENDF
PUSHW_1
 1
FDEF
DUP
DUP
RCVT
ROUND[Black]
WCVTP

StartChar: exclam
Encoding: 33 33 2
Width: 737
Flags: W
LayerCount: 2
Fore
SplineSet
274 183 m 1,0,-1
 488 183 l 1,1,-1
 472 -23 l 1,2,-1
 258 -23 l 1,3,-1
 274 183 l 1,0,-1
455 373 m 1,4,-1
 340 373 l 1,5,-1
 385 1451 l 1,6,-1
 580 1451 l 1,7,-1
 455 373 l 1,4,-1
EndSplineSet
EndChar

StartChar: quotedbl
Encoding: 34 34 3
Width: 720
Flags: W
LayerCount: 2
Fore
SplineSet
517 989 m 1,0,-1
 517 1451 l 1,1,-1
 701 1451 l 1,2,-1
 647 989 l 1,3,-1
 517 989 l 1,0,-1
228 989 m 1,4,-1
 228 1451 l 1,5,-1
 411 1451 l 1,6,-1
 359 989 l 1,7,-1
 228 989 l 1,4,-1
EndSplineSet
EndChar

StartChar: numbersign
Encoding: 35 35 4
Width: 1242
Flags: W
LayerCount: 2
Fore
SplineSet
1263 1010 m 1,0,-1
 1240 886 l 1,1,-1
 990 886 l 1,2,-1
 917 611 l 1,3,-1
 1169 611 l 1,4,-1
 1145 485 l 1,5,-1
 885 485 l 1,6,-1
 769 60 l 1,7,-1
 624 60 l 1,8,-1
 737 485 l 1,9,-1
 476 485 l 1,10,-1
 361 60 l 1,11,-1
 215 60 l 1,12,-1
 332 485 l 1,13,-1
 80 485 l 1,14,-1
 101 611 l 1,15,-1
 366 611 l 1,16,17
 383 681 383 681 401 748.5 c 128,-1,18
 419 816 419 816 438 886 c 1,19,-1
 177 886 l 1,20,-1
 199 1010 l 1,21,-1
 469 1010 l 1,22,-1
 581 1420 l 1,23,-1
 727 1420 l 1,24,-1
 617 1010 l 1,25,-1
 878 1010 l 1,26,-1
 987 1420 l 1,27,-1
 1133 1420 l 1,28,-1
 1022 1010 l 1,29,-1
 1263 1010 l 1,0,-1
845 886 m 1,30,-1
 584 886 l 1,31,-1
 508 611 l 1,32,-1
 772 611 l 1,33,-1
 845 886 l 1,30,-1
EndSplineSet
EndChar

StartChar: dollar
Encoding: 36 36 5
Width: 1190
Flags: W
LayerCount: 2
Fore
SplineSet
636 1293 m 1,0,1
 588 1287 588 1287 548.5 1267 c 128,-1,2
 509 1247 509 1247 479 1216.5 c 128,-1,3
 449 1186 449 1186 431 1145.5 c 128,-1,4
 413 1105 413 1105 409 1059 c 0,5,6
 405 1008 405 1008 417.5 970.5 c 128,-1,7
 430 933 430 933 455.5 905 c 128,-1,8
 481 877 481 877 517 856 c 128,-1,9
 553 835 553 835 596 818 c 1,10,-1
 636 1293 l 1,0,1
269 223 m 1,11,12
 329 180 329 180 399.5 155 c 128,-1,13
 470 130 470 130 541 127 c 1,14,-1
 585 648 l 1,15,16
 507 684 507 684 437.5 719.5 c 128,-1,17
 368 755 368 755 317.5 799.5 c 128,-1,18
 267 844 267 844 240 903.5 c 128,-1,19
 213 963 213 963 219 1047 c 1,20,21
 226 1126 226 1126 264.5 1194.5 c 128,-1,22
 303 1263 303 1263 362.5 1315 c 128,-1,23
 422 1367 422 1367 496 1399 c 128,-1,24
 570 1431 570 1431 647 1437 c 1,25,-1
 654 1575 l 1,26,-1
 778 1575 l 1,27,-1
 770 1439 l 1,28,29
 870 1437 870 1437 956 1408.5 c 128,-1,30
 1042 1380 1042 1380 1101 1326 c 1,31,-1
 1042 1198 l 1,32,33
 989 1249 989 1249 917 1272.5 c 128,-1,34
 845 1296 845 1296 760 1299 c 1,35,-1
 717 770 l 1,36,37
 818 729 818 729 894 690 c 128,-1,38
 970 651 970 651 1020 604.5 c 128,-1,39
 1070 558 1070 558 1092.5 499.5 c 128,-1,40
 1115 441 1115 441 1108 361 c 1,41,42
 1102 278 1102 278 1062.5 212 c 128,-1,43
 1023 146 1023 146 961.5 99 c 128,-1,44
 900 52 900 52 821 24 c 128,-1,45
 742 -4 742 -4 655 -11 c 1,46,-1
 645 -172 l 1,47,-1
 522 -172 l 1,48,-1
 531 -16 l 1,49,50
 440 -14 440 -14 360 10.5 c 128,-1,51
 280 35 280 35 209 89 c 1,52,-1
 269 223 l 1,11,12
664 131 m 1,53,54
 715 138 715 138 761.5 156 c 128,-1,55
 808 174 808 174 843.5 202.5 c 128,-1,56
 879 231 879 231 902 270 c 128,-1,57
 925 309 925 309 929 358 c 0,58,59
 933 405 933 405 918 441 c 128,-1,60
 903 477 903 477 872.5 506 c 128,-1,61
 842 535 842 535 799.5 559 c 128,-1,62
 757 583 757 583 706 605 c 1,63,-1
 664 131 l 1,53,54
EndSplineSet
EndChar

StartChar: percent
Encoding: 37 37 6
Width: 1985
Flags: W
LayerCount: 2
Fore
SplineSet
1503 622 m 0,0,1
 1447 622 1447 622 1405 599 c 128,-1,2
 1363 576 1363 576 1334 538 c 128,-1,3
 1305 500 1305 500 1288.5 451 c 128,-1,4
 1272 402 1272 402 1268 350 c 0,5,6
 1264 296 1264 296 1272.5 248 c 128,-1,7
 1281 200 1281 200 1305 164 c 128,-1,8
 1329 128 1329 128 1366.5 107 c 128,-1,9
 1404 86 1404 86 1458 86 c 256,10,11
 1512 86 1512 86 1554 108.5 c 128,-1,12
 1596 131 1596 131 1624.5 169 c 128,-1,13
 1653 207 1653 207 1669 255.5 c 128,-1,14
 1685 304 1685 304 1690 357 c 1,15,16
 1694 412 1694 412 1685.5 460 c 128,-1,17
 1677 508 1677 508 1654 544 c 128,-1,18
 1631 580 1631 580 1594 601 c 128,-1,19
 1557 622 1557 622 1503 622 c 0,0,1
1512 735 m 0,20,21
 1596 735 1596 735 1659.5 706.5 c 128,-1,22
 1723 678 1723 678 1764 627.5 c 128,-1,23
 1805 577 1805 577 1822.5 507.5 c 128,-1,24
 1840 438 1840 438 1834 356 c 1,25,26
 1827 276 1827 276 1796.5 206.5 c 128,-1,27
 1766 137 1766 137 1715.5 85 c 128,-1,28
 1665 33 1665 33 1596.5 3 c 128,-1,29
 1528 -27 1528 -27 1446 -27 c 0,30,31
 1363 -27 1363 -27 1300 2 c 128,-1,32
 1237 31 1237 31 1196 82 c 128,-1,33
 1155 133 1155 133 1136.5 202 c 128,-1,34
 1118 271 1118 271 1124 351 c 0,35,36
 1131 432 1131 432 1161.5 502 c 128,-1,37
 1192 572 1192 572 1242.5 623.5 c 128,-1,38
 1293 675 1293 675 1361 705 c 128,-1,39
 1429 735 1429 735 1512 735 c 0,20,21
639 1447 m 0,40,41
 723 1447 723 1447 786.5 1418.5 c 128,-1,42
 850 1390 850 1390 891 1339.5 c 128,-1,43
 932 1289 932 1289 949.5 1219.5 c 128,-1,44
 967 1150 967 1150 961 1068 c 1,45,46
 954 988 954 988 923.5 918.5 c 128,-1,47
 893 849 893 849 842.5 797.5 c 128,-1,48
 792 746 792 746 724 716 c 128,-1,49
 656 686 656 686 574 686 c 0,50,51
 490 686 490 686 426.5 715 c 128,-1,52
 363 744 363 744 322 795 c 128,-1,53
 281 846 281 846 263 915 c 128,-1,54
 245 984 245 984 251 1064 c 0,55,56
 258 1145 258 1145 288.5 1214.5 c 128,-1,57
 319 1284 319 1284 369.5 1336 c 128,-1,58
 420 1388 420 1388 488 1417.5 c 128,-1,59
 556 1447 556 1447 639 1447 c 0,40,41
1457 1436 m 1,60,-1
 1612 1436 l 1,61,-1
 593 -5 l 1,62,-1
 439 -5 l 1,63,-1
 1457 1436 l 1,60,-1
630 1335 m 0,64,65
 575 1335 575 1335 533 1312.5 c 128,-1,66
 491 1290 491 1290 461.5 1252.5 c 128,-1,67
 432 1215 432 1215 415.5 1166 c 128,-1,68
 399 1117 399 1117 395 1065 c 0,69,70
 391 1010 391 1010 400 961.5 c 128,-1,71
 409 913 409 913 432.5 877 c 128,-1,72
 456 841 456 841 494 820 c 128,-1,73
 532 799 532 799 586 799 c 256,74,75
 640 799 640 799 681.5 821.5 c 128,-1,76
 723 844 723 844 752 881.5 c 128,-1,77
 781 919 781 919 797.5 967.5 c 128,-1,78
 814 1016 814 1016 818 1069 c 0,79,80
 822 1124 822 1124 813.5 1172.5 c 128,-1,81
 805 1221 805 1221 781.5 1257 c 128,-1,82
 758 1293 758 1293 720.5 1314 c 128,-1,83
 683 1335 683 1335 630 1335 c 0,64,65
EndSplineSet
EndChar

StartChar: ampersand
Encoding: 38 38 7
Width: 1647
Flags: W
LayerCount: 2
Fore
SplineSet
147 402 m 0,0,1
 154 486 154 486 191.5 552 c 128,-1,2
 229 618 229 618 286.5 672 c 128,-1,3
 344 726 344 726 415 770 c 128,-1,4
 486 814 486 814 561 852 c 1,5,-1
 548 867 l 1,6,7
 517 900 517 900 487.5 934 c 128,-1,8
 458 968 458 968 435 1005.5 c 128,-1,9
 412 1043 412 1043 400 1086.5 c 128,-1,10
 388 1130 388 1130 392 1182 c 0,11,12
 398 1254 398 1254 431 1308.5 c 128,-1,13
 464 1363 464 1363 516 1399.5 c 128,-1,14
 568 1436 568 1436 635 1454.5 c 128,-1,15
 702 1473 702 1473 777 1473 c 0,16,17
 847 1473 847 1473 913.5 1456 c 128,-1,18
 980 1439 980 1439 1029.5 1403.5 c 128,-1,19
 1079 1368 1079 1368 1107.5 1314.5 c 128,-1,20
 1136 1261 1136 1261 1130 1188 c 0,21,22
 1125 1128 1125 1128 1095.5 1075.5 c 128,-1,23
 1066 1023 1066 1023 1020 977.5 c 128,-1,24
 974 932 974 932 915.5 893 c 128,-1,25
 857 854 857 854 794 822 c 1,26,-1
 1172 409 l 1,27,28
 1210 461 1210 461 1243 525 c 128,-1,29
 1276 589 1276 589 1301.5 657.5 c 128,-1,30
 1327 726 1327 726 1343.5 797 c 128,-1,31
 1360 868 1360 868 1365 935 c 0,32,33
 1368 973 1368 973 1366.5 995 c 128,-1,34
 1365 1017 1365 1017 1365 1032 c 1,35,-1
 1538 1032 l 1,36,37
 1537 938 1537 938 1519 839 c 128,-1,38
 1501 740 1501 740 1467.5 644 c 128,-1,39
 1434 548 1434 548 1386.5 459 c 128,-1,40
 1339 370 1339 370 1279 295 c 1,41,42
 1320 249 1320 249 1356 215.5 c 128,-1,43
 1392 182 1392 182 1431 157.5 c 128,-1,44
 1470 133 1470 133 1516.5 116 c 128,-1,45
 1563 99 1563 99 1625 86 c 1,46,-1
 1485 -12 l 1,47,48
 1439 -5 1439 -5 1401.5 10.5 c 128,-1,49
 1364 26 1364 26 1329 50.5 c 128,-1,50
 1294 75 1294 75 1259 108.5 c 128,-1,51
 1224 142 1224 142 1181 186 c 1,52,53
 1133 142 1133 142 1076.5 103 c 128,-1,54
 1020 64 1020 64 955.5 35 c 128,-1,55
 891 6 891 6 817 -10.5 c 128,-1,56
 743 -27 743 -27 659 -27 c 0,57,58
 542 -27 542 -27 445 2 c 128,-1,59
 348 31 348 31 278.5 86 c 128,-1,60
 209 141 209 141 174 220.5 c 128,-1,61
 139 300 139 300 147 402 c 0,0,1
1081 291 m 1,62,63
 1079 292 1079 292 1060.5 312 c 128,-1,64
 1042 332 1042 332 1011.5 365 c 128,-1,65
 981 398 981 398 942.5 439 c 128,-1,66
 904 480 904 480 865 523 c 2,67,-1
 653 750 l 1,68,69
 594 721 594 721 537.5 688 c 128,-1,70
 481 655 481 655 435.5 614 c 128,-1,71
 390 573 390 573 361 521.5 c 128,-1,72
 332 470 332 470 327 406 c 0,73,74
 322 343 322 343 345 290 c 128,-1,75
 368 237 368 237 413 198.5 c 128,-1,76
 458 160 458 160 523 138 c 128,-1,77
 588 116 588 116 668 116 c 0,78,79
 736 116 736 116 794 129.5 c 128,-1,80
 852 143 852 143 902 166.5 c 128,-1,81
 952 190 952 190 996 222 c 128,-1,82
 1040 254 1040 254 1081 291 c 1,62,63
698 918 m 1,83,84
 745 942 745 942 790.5 970 c 128,-1,85
 836 998 836 998 872 1030 c 128,-1,86
 908 1062 908 1062 931.5 1098.5 c 128,-1,87
 955 1135 955 1135 958 1178 c 256,88,89
 961 1221 961 1221 946 1252 c 128,-1,90
 931 1283 931 1283 904.5 1302.5 c 128,-1,91
 878 1322 878 1322 844 1331 c 128,-1,92
 810 1340 810 1340 775 1340 c 0,93,94
 734 1340 734 1340 697.5 1330 c 128,-1,95
 661 1320 661 1320 632.5 1299.5 c 128,-1,96
 604 1279 604 1279 586 1248.5 c 128,-1,97
 568 1218 568 1218 565 1178 c 0,98,99
 562 1140 562 1140 570.5 1106 c 128,-1,100
 579 1072 579 1072 597 1040.5 c 128,-1,101
 615 1009 615 1009 640.5 979 c 128,-1,102
 666 949 666 949 698 918 c 1,83,84
EndSplineSet
EndChar

StartChar: quotesingle
Encoding: 39 39 8
Width: 554
Flags: W
LayerCount: 2
Fore
SplineSet
290 989 m 1,0,-1
 290 1451 l 1,1,-1
 474 1451 l 1,2,-1
 420 989 l 1,3,-1
 290 989 l 1,0,-1
EndSplineSet
EndChar

StartChar: parenleft
Encoding: 40 40 9
Width: 628
Flags: W
LayerCount: 2
Fore
SplineSet
412 -259 m 1,0,1
 361 -170 361 -170 318 -70 c 128,-1,2
 275 30 275 30 245.5 138 c 128,-1,3
 216 246 216 246 203 359 c 128,-1,4
 190 472 190 472 199 587 c 0,5,6
 208 707 208 707 237 819.5 c 128,-1,7
 266 932 266 932 310.5 1039.5 c 128,-1,8
 355 1147 355 1147 414 1249.5 c 128,-1,9
 473 1352 473 1352 544 1451 c 1,10,-1
 692 1451 l 1,11,12
 550 1250 550 1250 465 1034 c 128,-1,13
 380 818 380 818 362 590 c 0,14,15
 354 485 354 485 364 374.5 c 128,-1,16
 374 264 374 264 399.5 154.5 c 128,-1,17
 425 45 425 45 465.5 -60 c 128,-1,18
 506 -165 506 -165 558 -259 c 1,19,-1
 412 -259 l 1,0,1
EndSplineSet
EndChar

StartChar: parenright
Encoding: 41 41 10
Width: 628
Flags: W
LayerCount: 2
Fore
SplineSet
36 -259 m 1,0,1
 100 -168 100 -168 155.5 -66.5 c 128,-1,2
 211 35 211 35 254 143.5 c 128,-1,3
 297 252 297 252 325 368 c 128,-1,4
 353 484 353 484 363 604 c 0,5,6
 371 704 371 704 362 812 c 128,-1,7
 353 920 353 920 328 1029 c 128,-1,8
 303 1138 303 1138 262.5 1245 c 128,-1,9
 222 1352 222 1352 167 1451 c 1,10,-1
 314 1451 l 1,11,12
 365 1359 365 1359 408.5 1257.5 c 128,-1,13
 452 1156 452 1156 481 1047.5 c 128,-1,14
 510 939 510 939 522.5 826 c 128,-1,15
 535 713 535 713 526 598 c 0,16,17
 517 477 517 477 488 364.5 c 128,-1,18
 459 252 459 252 414.5 145.5 c 128,-1,19
 370 39 370 39 312 -62 c 128,-1,20
 254 -163 254 -163 185 -259 c 1,21,-1
 36 -259 l 1,0,1
EndSplineSet
EndChar

StartChar: asterisk
Encoding: 42 42 11
Width: 1065
Flags: W
LayerCount: 2
Fore
SplineSet
671 1153 m 1,0,-1
 916 1274 l 1,1,-1
 970 1149 l 1,2,-1
 700 1061 l 1,3,-1
 881 810 l 1,4,-1
 750 737 l 1,5,-1
 613 1003 l 1,6,-1
 439 745 l 1,7,-1
 321 820 l 1,8,-1
 531 1058 l 1,9,-1
 264 1136 l 1,10,-1
 296 1271 l 1,11,-1
 570 1148 l 1,12,13
 566 1223 566 1223 561.5 1299.5 c 128,-1,14
 557 1376 557 1376 553 1451 c 1,15,-1
 702 1451 l 1,16,-1
 671 1153 l 1,0,-1
EndSplineSet
EndChar

StartChar: plus
Encoding: 43 43 12
Width: 1458
Flags: W
LayerCount: 2
Fore
SplineSet
695 624 m 1,0,-1
 731 1047 l 1,1,-1
 881 1047 l 1,2,-1
 846 624 l 1,3,-1
 1294 624 l 1,4,-1
 1284 485 l 1,5,-1
 836 485 l 1,6,-1
 800 62 l 1,7,-1
 649 62 l 1,8,-1
 684 485 l 1,9,-1
 238 485 l 1,10,-1
 247 624 l 1,11,-1
 695 624 l 1,0,-1
EndSplineSet
EndChar

StartChar: comma
Encoding: 44 44 13
Width: 540
Flags: W
LayerCount: 2
Fore
SplineSet
201 207 m 1,0,-1
 388 207 l 1,1,-1
 189 -256 l 1,2,-1
 58 -256 l 1,3,-1
 201 207 l 1,0,-1
EndSplineSet
EndChar

StartChar: hyphen
Encoding: 45 45 14
Width: 728
Flags: W
LayerCount: 2
Fore
SplineSet
118 489 m 1,0,-1
 128 626 l 1,1,-1
 699 626 l 1,2,-1
 689 489 l 1,3,-1
 118 489 l 1,0,-1
EndSplineSet
EndChar

StartChar: period
Encoding: 46 46 15
Width: 540
Flags: W
LayerCount: 2
Fore
SplineSet
375 -11 m 1,0,-1
 158 -11 l 1,1,-1
 175 199 l 1,2,-1
 392 199 l 1,3,-1
 375 -11 l 1,0,-1
EndSplineSet
EndChar

StartChar: slash
Encoding: 47 47 16
Width: 717
Flags: W
LayerCount: 2
Fore
SplineSet
-64 -215 m 1,0,-1
 704 1451 l 1,1,-1
 871 1451 l 1,2,-1
 99 -215 l 1,3,-1
 -64 -215 l 1,0,-1
EndSplineSet
EndChar

StartChar: zero
Encoding: 48 48 17
Width: 1190
Flags: W
LayerCount: 2
Fore
SplineSet
711 1453 m 0,0,1
 853 1453 853 1453 945 1396.5 c 128,-1,2
 1037 1340 1037 1340 1088 1239 c 128,-1,3
 1139 1138 1139 1138 1153 998.5 c 128,-1,4
 1167 859 1167 859 1154 694 c 0,5,6
 1141 532 1141 532 1097.5 399.5 c 128,-1,7
 1054 267 1054 267 982 173.5 c 128,-1,8
 910 80 910 80 810.5 28.5 c 128,-1,9
 711 -23 711 -23 585 -23 c 0,10,11
 452 -23 452 -23 361.5 31.5 c 128,-1,12
 271 86 271 86 219 184 c 128,-1,13
 167 282 167 282 149.5 417.5 c 128,-1,14
 132 553 132 553 145 715 c 0,15,16
 158 886 158 886 201.5 1023 c 128,-1,17
 245 1160 245 1160 317 1255.5 c 128,-1,18
 389 1351 389 1351 487.5 1402 c 128,-1,19
 586 1453 586 1453 711 1453 c 0,0,1
696 1312 m 0,20,21
 613 1312 613 1312 548.5 1269 c 128,-1,22
 484 1226 484 1226 437.5 1148.5 c 128,-1,23
 391 1071 391 1071 362.5 963.5 c 128,-1,24
 334 856 334 856 324 727 c 0,25,26
 318 657 318 657 317.5 585 c 128,-1,27
 317 513 317 513 325 445.5 c 128,-1,28
 333 378 333 378 352 318.5 c 128,-1,29
 371 259 371 259 404 214.5 c 128,-1,30
 437 170 437 170 486 144.5 c 128,-1,31
 535 119 535 119 604 119 c 0,32,33
 686 119 686 119 750 161.5 c 128,-1,34
 814 204 814 204 859 280 c 128,-1,35
 904 356 904 356 932 461.5 c 128,-1,36
 960 567 960 567 970 693 c 0,37,38
 975 761 975 761 976.5 833 c 128,-1,39
 978 905 978 905 970.5 974 c 128,-1,40
 963 1043 963 1043 945 1104.5 c 128,-1,41
 927 1166 927 1166 894.5 1212 c 128,-1,42
 862 1258 862 1258 813.5 1285 c 128,-1,43
 765 1312 765 1312 696 1312 c 0,20,21
EndSplineSet
EndChar

StartChar: one
Encoding: 49 49 18
Width: 1190
Flags: W
LayerCount: 2
Fore
SplineSet
373 1269 m 1,0,1
 452 1296 452 1296 526 1332.5 c 128,-1,2
 600 1369 600 1369 670 1411 c 1,3,-1
 837 1438 l 1,4,-1
 735 143 l 1,5,-1
 952 143 l 1,6,-1
 941 0 l 1,7,-1
 333 0 l 1,8,-1
 344 143 l 1,9,-1
 563 143 l 1,10,-1
 650 1245 l 1,11,12
 580 1207 580 1207 510 1175 c 128,-1,13
 440 1143 440 1143 361 1113 c 1,14,-1
 373 1269 l 1,0,1
EndSplineSet
EndChar

StartChar: two
Encoding: 50 50 19
Width: 1190
Flags: W
LayerCount: 2
Fore
SplineSet
1035 0 m 1,0,-1
 99 0 l 1,1,-1
 110 147 l 1,2,3
 185 214 185 214 275 291 c 128,-1,4
 365 368 365 368 455.5 449.5 c 128,-1,5
 546 531 546 531 631.5 615 c 128,-1,6
 717 699 717 699 784.5 779.5 c 128,-1,7
 852 860 852 860 894 934 c 128,-1,8
 936 1008 936 1008 941 1071 c 0,9,10
 945 1123 945 1123 928.5 1166.5 c 128,-1,11
 912 1210 912 1210 877 1241 c 128,-1,12
 842 1272 842 1272 791 1289.5 c 128,-1,13
 740 1307 740 1307 676 1307 c 0,14,15
 618 1307 618 1307 564 1291 c 128,-1,16
 510 1275 510 1275 464 1245.5 c 128,-1,17
 418 1216 418 1216 380 1173.5 c 128,-1,18
 342 1131 342 1131 315 1078 c 1,19,-1
 225 1175 l 1,20,21
 255 1239 255 1239 302 1289.5 c 128,-1,22
 349 1340 349 1340 411 1375.5 c 128,-1,23
 473 1411 473 1411 545.5 1429.5 c 128,-1,24
 618 1448 618 1448 698 1448 c 0,25,26
 795 1448 795 1448 875 1422 c 128,-1,27
 955 1396 955 1396 1011 1348 c 128,-1,28
 1067 1300 1067 1300 1095.5 1231.5 c 128,-1,29
 1124 1163 1124 1163 1117 1078 c 0,30,31
 1110 988 1110 988 1058 895 c 128,-1,32
 1006 802 1006 802 924 707 c 128,-1,33
 842 612 842 612 736 515 c 128,-1,34
 630 418 630 418 514 319 c 0,35,36
 464 276 464 276 416 234.5 c 128,-1,37
 368 193 368 193 316 145 c 1,38,-1
 1046 145 l 1,39,-1
 1035 0 l 1,0,-1
EndSplineSet
EndChar

StartChar: three
Encoding: 51 51 20
Width: 1190
Flags: W
LayerCount: 2
Fore
SplineSet
448 814 m 1,0,1
 462 813 462 813 479 813 c 128,-1,2
 496 813 496 813 510 813 c 0,3,4
 598 813 598 813 670 826.5 c 128,-1,5
 742 840 742 840 793.5 872 c 128,-1,6
 845 904 845 904 875.5 956 c 128,-1,7
 906 1008 906 1008 912 1085 c 0,8,9
 916 1142 916 1142 898.5 1183.5 c 128,-1,10
 881 1225 881 1225 845.5 1252 c 128,-1,11
 810 1279 810 1279 759 1292.5 c 128,-1,12
 708 1306 708 1306 647 1306 c 0,13,14
 541 1306 541 1306 454.5 1262 c 128,-1,15
 368 1218 368 1218 308 1128 c 1,16,-1
 217 1217 l 1,17,18
 243 1271 243 1271 288.5 1314 c 128,-1,19
 334 1357 334 1357 393 1387 c 128,-1,20
 452 1417 452 1417 521 1433 c 128,-1,21
 590 1449 590 1449 664 1449 c 0,22,23
 752 1449 752 1449 833.5 1425.5 c 128,-1,24
 915 1402 915 1402 975.5 1356 c 128,-1,25
 1036 1310 1036 1310 1069.5 1242 c 128,-1,26
 1103 1174 1103 1174 1096 1086 c 0,27,28
 1091 1020 1091 1020 1065.5 965.5 c 128,-1,29
 1040 911 1040 911 998.5 868 c 128,-1,30
 957 825 957 825 902 794.5 c 128,-1,31
 847 764 847 764 780 746 c 1,32,-1
 790 744 l 2,33,34
 859 730 859 730 915 700 c 128,-1,35
 971 670 971 670 1009.5 625 c 128,-1,36
 1048 580 1048 580 1067 521.5 c 128,-1,37
 1086 463 1086 463 1080 391 c 0,38,39
 1073 295 1073 295 1024.5 218 c 128,-1,40
 976 141 976 141 898.5 87.5 c 128,-1,41
 821 34 821 34 723 5.5 c 128,-1,42
 625 -23 625 -23 518 -23 c 0,43,44
 440 -23 440 -23 372.5 -7.5 c 128,-1,45
 305 8 305 8 253.5 39 c 128,-1,46
 202 70 202 70 168.5 116 c 128,-1,47
 135 162 135 162 126 223 c 1,48,-1
 217 324 l 1,49,50
 232 274 232 274 262 236 c 128,-1,51
 292 198 292 198 334 172 c 128,-1,52
 376 146 376 146 428 132.5 c 128,-1,53
 480 119 480 119 538 119 c 0,54,55
 610 119 610 119 674 138 c 128,-1,56
 738 157 738 157 787 192 c 128,-1,57
 836 227 836 227 866.5 278 c 128,-1,58
 897 329 897 329 902 394 c 0,59,60
 908 469 908 469 884 522 c 128,-1,61
 860 575 860 575 809.5 608.5 c 128,-1,62
 759 642 759 642 684 657 c 128,-1,63
 609 672 609 672 515 672 c 0,64,65
 498 672 498 672 476.5 671.5 c 128,-1,66
 455 671 455 671 438 670 c 1,67,-1
 448 814 l 1,0,1
EndSplineSet
EndChar

StartChar: four
Encoding: 52 52 21
Width: 1189
Flags: W
LayerCount: 2
Fore
SplineSet
726 0 m 1,0,-1
 754 351 l 1,1,-1
 53 351 l 1,2,-1
 63 475 l 1,3,-1
 802 1420 l 1,4,-1
 1010 1420 l 1,5,-1
 936 483 l 1,6,-1
 1150 483 l 1,7,-1
 1140 351 l 1,8,-1
 926 351 l 1,9,-1
 898 0 l 1,10,-1
 726 0 l 1,0,-1
764 483 m 1,11,-1
 828 1292 l 1,12,-1
 729 1146 l 1,13,-1
 234 483 l 1,14,-1
 764 483 l 1,11,-1
EndSplineSet
EndChar

StartChar: five
Encoding: 53 53 22
Width: 1190
Flags: W
LayerCount: 2
Fore
SplineSet
251 289 m 1,0,1
 304 202 304 202 383 160.5 c 128,-1,2
 462 119 462 119 556 119 c 0,3,4
 639 119 639 119 705.5 145.5 c 128,-1,5
 772 172 772 172 819.5 217.5 c 128,-1,6
 867 263 867 263 894.5 323.5 c 128,-1,7
 922 384 922 384 927 452 c 0,8,9
 932 516 932 516 917 571.5 c 128,-1,10
 902 627 902 627 867.5 668.5 c 128,-1,11
 833 710 833 710 779 734 c 128,-1,12
 725 758 725 758 653 758 c 0,13,14
 583 758 583 758 525 732 c 128,-1,15
 467 706 467 706 431 658 c 1,16,-1
 255 652 l 1,17,-1
 316 1425 l 1,18,-1
 1107 1425 l 1,19,-1
 1095 1280 l 1,20,-1
 467 1280 l 1,21,-1
 418 839 l 1,22,23
 478 872 478 872 540 888.5 c 128,-1,24
 602 905 602 905 671 905 c 0,25,26
 780 905 780 905 864 870.5 c 128,-1,27
 948 836 948 836 1004 775 c 128,-1,28
 1060 714 1060 714 1085.5 630.5 c 128,-1,29
 1111 547 1111 547 1104 449 c 0,30,31
 1096 349 1096 349 1053 263 c 128,-1,32
 1010 177 1010 177 938 113.5 c 128,-1,33
 866 50 866 50 767 13.5 c 128,-1,34
 668 -23 668 -23 547 -23 c 0,35,36
 487 -23 487 -23 429.5 -11.5 c 128,-1,37
 372 0 372 0 322 24 c 128,-1,38
 272 48 272 48 231 85 c 128,-1,39
 190 122 190 122 161 173 c 1,40,-1
 251 289 l 1,0,1
EndSplineSet
EndChar

StartChar: six
Encoding: 54 54 23
Width: 1190
Flags: W
LayerCount: 2
Fore
SplineSet
1038 1201 m 1,0,1
 993 1255 993 1255 927.5 1283.5 c 128,-1,2
 862 1312 862 1312 778 1312 c 0,3,4
 709 1312 709 1312 650.5 1289 c 128,-1,5
 592 1266 592 1266 543.5 1225.5 c 128,-1,6
 495 1185 495 1185 457.5 1129 c 128,-1,7
 420 1073 420 1073 393.5 1008 c 128,-1,8
 367 943 367 943 351 870.5 c 128,-1,9
 335 798 335 798 329 724 c 1,10,11
 360 773 360 773 401 809 c 128,-1,12
 442 845 442 845 492 868.5 c 128,-1,13
 542 892 542 892 599 903 c 128,-1,14
 656 914 656 914 717 914 c 0,15,16
 820 914 820 914 901.5 882 c 128,-1,17
 983 850 983 850 1037 790 c 128,-1,18
 1091 730 1091 730 1116.5 645 c 128,-1,19
 1142 560 1142 560 1134 454 c 0,20,21
 1126 352 1126 352 1084.5 265 c 128,-1,22
 1043 178 1043 178 975 114 c 128,-1,23
 907 50 907 50 814 13.5 c 128,-1,24
 721 -23 721 -23 610 -23 c 0,25,26
 479 -23 479 -23 385.5 28 c 128,-1,27
 292 79 292 79 234.5 171.5 c 128,-1,28
 177 264 177 264 155 393 c 128,-1,29
 133 522 133 522 145 678 c 0,30,31
 158 837 158 837 206.5 978 c 128,-1,32
 255 1119 255 1119 337 1224.5 c 128,-1,33
 419 1330 419 1330 532 1391.5 c 128,-1,34
 645 1453 645 1453 788 1453 c 0,35,36
 897 1453 897 1453 978.5 1417.5 c 128,-1,37
 1060 1382 1060 1382 1102 1313 c 1,38,-1
 1038 1201 l 1,0,1
681 778 m 0,39,40
 621 778 621 778 568 762.5 c 128,-1,41
 515 747 515 747 470.5 719 c 128,-1,42
 426 691 426 691 392 652 c 128,-1,43
 358 613 358 613 336 566 c 1,44,45
 334 548 334 548 332.5 537 c 128,-1,46
 331 526 331 526 330.5 519 c 128,-1,47
 330 512 330 512 330 508 c 128,-1,48
 330 504 330 504 329 501 c 0,49,50
 323 426 323 426 338 357 c 128,-1,51
 353 288 353 288 389 235 c 128,-1,52
 425 182 425 182 483.5 150.5 c 128,-1,53
 542 119 542 119 623 119 c 0,54,55
 693 119 693 119 751.5 144 c 128,-1,56
 810 169 810 169 853.5 213.5 c 128,-1,57
 897 258 897 258 923.5 318 c 128,-1,58
 950 378 950 378 955 448 c 0,59,60
 961 518 961 518 947.5 578 c 128,-1,61
 934 638 934 638 900 682.5 c 128,-1,62
 866 727 866 727 811.5 752.5 c 128,-1,63
 757 778 757 778 681 778 c 0,39,40
EndSplineSet
EndChar

StartChar: seven
Encoding: 55 55 24
Width: 1189
Flags: W
LayerCount: 2
Fore
SplineSet
1176 1420 m 1,0,-1
 1169 1329 l 1,1,-1
 479 0 l 1,2,-1
 293 0 l 1,3,-1
 973 1275 l 1,4,-1
 195 1275 l 1,5,-1
 206 1420 l 1,6,-1
 1176 1420 l 1,0,-1
EndSplineSet
EndChar

StartChar: eight
Encoding: 56 56 25
Width: 1190
Flags: W
LayerCount: 2
Fore
SplineSet
701 1453 m 256,0,1
 797 1453 797 1453 878.5 1428.5 c 128,-1,2
 960 1404 960 1404 1018.5 1357.5 c 128,-1,3
 1077 1311 1077 1311 1107.5 1243.5 c 128,-1,4
 1138 1176 1138 1176 1131 1091 c 0,5,6
 1121 964 1121 964 1040.5 876.5 c 128,-1,7
 960 789 960 789 823 747 c 1,8,9
 974 701 974 701 1047 602.5 c 128,-1,10
 1120 504 1120 504 1109 367 c 0,11,12
 1102 273 1102 273 1056 200 c 128,-1,13
 1010 127 1010 127 937.5 77.5 c 128,-1,14
 865 28 865 28 773.5 2.5 c 128,-1,15
 682 -23 682 -23 585 -23 c 0,16,17
 487 -23 487 -23 400 2.5 c 128,-1,18
 313 28 313 28 248.5 77.5 c 128,-1,19
 184 127 184 127 149 200 c 128,-1,20
 114 273 114 273 121 367 c 0,21,22
 132 504 132 504 221 602.5 c 128,-1,23
 310 701 310 701 467 747 c 1,24,25
 338 789 338 789 270.5 876.5 c 128,-1,26
 203 964 203 964 213 1091 c 0,27,28
 220 1176 220 1176 261.5 1243.5 c 128,-1,29
 303 1311 303 1311 368.5 1357.5 c 128,-1,30
 434 1404 434 1404 519.5 1428.5 c 128,-1,31
 605 1453 605 1453 701 1453 c 256,0,1
596 119 m 256,32,33
 665 119 665 119 725 136 c 128,-1,34
 785 153 785 153 829.5 186 c 128,-1,35
 874 219 874 219 901 267.5 c 128,-1,36
 928 316 928 316 933 380 c 0,37,38
 938 440 938 440 918.5 488.5 c 128,-1,39
 899 537 899 537 860 573.5 c 128,-1,40
 821 610 821 610 764 634.5 c 128,-1,41
 707 659 707 659 639 673 c 1,42,43
 569 659 569 659 509 634.5 c 128,-1,44
 449 610 449 610 404 573.5 c 128,-1,45
 359 537 359 537 331.5 488.5 c 128,-1,46
 304 440 304 440 299 380 c 0,47,48
 294 316 294 316 314 267.5 c 128,-1,49
 334 219 334 219 373.5 186 c 128,-1,50
 413 153 413 153 470 136 c 128,-1,51
 527 119 527 119 596 119 c 256,32,33
690 1317 m 256,52,53
 632 1317 632 1317 579 1302 c 128,-1,54
 526 1287 526 1287 484 1257.5 c 128,-1,55
 442 1228 442 1228 415.5 1185 c 128,-1,56
 389 1142 389 1142 385 1086 c 0,57,58
 376 977 376 977 445.5 911.5 c 128,-1,59
 515 846 515 846 651 820 c 1,60,61
 791 846 791 846 870.5 911.5 c 128,-1,62
 950 977 950 977 959 1086 c 0,63,64
 963 1142 963 1142 943.5 1185 c 128,-1,65
 924 1228 924 1228 887 1257.5 c 128,-1,66
 850 1287 850 1287 799 1302 c 128,-1,67
 748 1317 748 1317 690 1317 c 256,52,53
EndSplineSet
EndChar

StartChar: nine
Encoding: 57 57 26
Width: 1190
Flags: W
LayerCount: 2
Fore
SplineSet
256 234 m 1,0,1
 304 177 304 177 372 148 c 128,-1,2
 440 119 440 119 527 119 c 0,3,4
 627 119 627 119 705.5 167 c 128,-1,5
 784 215 784 215 841 295.5 c 128,-1,6
 898 376 898 376 931.5 482 c 128,-1,7
 965 588 965 588 974 705 c 1,8,-1
 974 707 l 1,9,10
 910 617 910 617 811 575 c 128,-1,11
 712 533 712 533 587 533 c 0,12,13
 482 533 482 533 400.5 566.5 c 128,-1,14
 319 600 319 600 264 659.5 c 128,-1,15
 209 719 209 719 183.5 802 c 128,-1,16
 158 885 158 885 166 984 c 256,17,18
 174 1083 174 1083 215 1169 c 128,-1,19
 256 1255 256 1255 325 1318 c 128,-1,20
 394 1381 394 1381 488.5 1417 c 128,-1,21
 583 1453 583 1453 696 1453 c 0,22,23
 818 1453 818 1453 910 1407.5 c 128,-1,24
 1002 1362 1002 1362 1060.5 1273.5 c 128,-1,25
 1119 1185 1119 1185 1142.5 1055.5 c 128,-1,26
 1166 926 1166 926 1153 758 c 0,27,28
 1139 585 1139 585 1090 441.5 c 128,-1,29
 1041 298 1041 298 959 194.5 c 128,-1,30
 877 91 877 91 764.5 34 c 128,-1,31
 652 -23 652 -23 513 -23 c 0,32,33
 404 -23 404 -23 322 14.5 c 128,-1,34
 240 52 240 52 193 121 c 1,35,-1
 256 234 l 1,0,1
625 673 m 0,36,37
 685 673 685 673 739 689 c 128,-1,38
 793 705 793 705 838 734.5 c 128,-1,39
 883 764 883 764 918 804.5 c 128,-1,40
 953 845 953 845 974 894 c 1,41,42
 973 901 973 901 974 911 c 128,-1,43
 975 921 975 921 975 929 c 0,44,45
 981 999 981 999 968 1067.5 c 128,-1,46
 955 1136 955 1136 919 1190.5 c 128,-1,47
 883 1245 883 1245 823.5 1278.5 c 128,-1,48
 764 1312 764 1312 677 1312 c 0,49,50
 607 1312 607 1312 548 1287.5 c 128,-1,51
 489 1263 489 1263 445 1219.5 c 128,-1,52
 401 1176 401 1176 374.5 1117 c 128,-1,53
 348 1058 348 1058 342 989 c 0,54,55
 337 922 337 922 351 864 c 128,-1,56
 365 806 365 806 399.5 763.5 c 128,-1,57
 434 721 434 721 490 697 c 128,-1,58
 546 673 546 673 625 673 c 0,36,37
EndSplineSet
EndChar

StartChar: colon
Encoding: 58 58 27
Width: 540
Flags: W
LayerCount: 2
Fore
SplineSet
442 841 m 1,0,-1
 225 841 l 1,1,-1
 242 1051 l 1,2,-1
 459 1051 l 1,3,-1
 442 841 l 1,0,-1
375 -11 m 1,4,-1
 158 -11 l 1,5,-1
 175 199 l 1,6,-1
 392 199 l 1,7,-1
 375 -11 l 1,4,-1
EndSplineSet
EndChar

StartChar: semicolon
Encoding: 59 59 28
Width: 540
Flags: W
LayerCount: 2
Fore
SplineSet
222 207 m 1,0,-1
 410 207 l 1,1,-1
 211 -256 l 1,2,-1
 80 -256 l 1,3,-1
 222 207 l 1,0,-1
442 841 m 1,4,-1
 225 841 l 1,5,-1
 242 1051 l 1,6,-1
 459 1051 l 1,7,-1
 442 841 l 1,4,-1
EndSplineSet
EndChar

StartChar: less
Encoding: 60 60 29
Width: 1458
Flags: W
LayerCount: 2
Fore
SplineSet
481 552 m 1,0,-1
 1238 200 l 1,1,-1
 1227 48 l 1,2,-1
 258 508 l 1,3,-1
 266 595 l 1,4,-1
 1310 1067 l 1,5,-1
 1299 914 l 1,6,-1
 481 552 l 1,0,-1
EndSplineSet
EndChar

StartChar: equal
Encoding: 61 61 30
Width: 1458
Flags: W
LayerCount: 2
Fore
SplineSet
1280 420 m 1,0,-1
 1269 283 l 1,1,-1
 220 283 l 1,2,-1
 231 420 l 1,3,-1
 1280 420 l 1,0,-1
1311 827 m 1,4,-1
 1300 689 l 1,5,-1
 251 689 l 1,6,-1
 262 827 l 1,7,-1
 1311 827 l 1,4,-1
EndSplineSet
EndChar

StartChar: greater
Encoding: 62 62 31
Width: 1458
Flags: W
LayerCount: 2
Fore
SplineSet
1048 555 m 1,0,-1
 293 926 l 1,1,-1
 305 1078 l 1,2,-1
 1272 594 l 1,3,-1
 1265 505 l 1,4,-1
 220 58 l 1,5,-1
 232 212 l 1,6,-1
 1048 555 l 1,0,-1
EndSplineSet
EndChar

StartChar: question
Encoding: 63 63 32
Width: 1032
Flags: W
LayerCount: 2
Fore
SplineSet
385 368 m 1,0,1
 385 398 385 398 385 428 c 0,2,3
 385 454 385 454 385.5 481.5 c 128,-1,4
 386 509 386 509 388 530 c 0,5,6
 393 591 393 591 425.5 642 c 128,-1,7
 458 693 458 693 504 739 c 128,-1,8
 550 785 550 785 603.5 828.5 c 128,-1,9
 657 872 657 872 703 918 c 128,-1,10
 749 964 749 964 781.5 1014.5 c 128,-1,11
 814 1065 814 1065 819 1125 c 0,12,13
 823 1182 823 1182 802.5 1222 c 128,-1,14
 782 1262 782 1262 744 1287.5 c 128,-1,15
 706 1313 706 1313 655 1324.5 c 128,-1,16
 604 1336 604 1336 549 1336 c 0,17,18
 480 1336 480 1336 413 1318.5 c 128,-1,19
 346 1301 346 1301 283 1267 c 1,20,-1
 294 1413 l 1,21,22
 369 1448 369 1448 443.5 1463 c 128,-1,23
 518 1478 518 1478 581 1478 c 0,24,25
 673 1478 673 1478 750.5 1456.5 c 128,-1,26
 828 1435 828 1435 883 1392 c 128,-1,27
 938 1349 938 1349 966.5 1284.5 c 128,-1,28
 995 1220 995 1220 988 1133 c 0,29,30
 983 1069 983 1069 949 1012 c 128,-1,31
 915 955 915 955 867 901.5 c 128,-1,32
 819 848 819 848 764 798.5 c 128,-1,33
 709 749 709 749 661.5 701.5 c 128,-1,34
 614 654 614 654 580.5 607 c 128,-1,35
 547 560 547 560 544 513 c 0,36,37
 542 490 542 490 542.5 465 c 128,-1,38
 543 440 543 440 544 418 c 0,39,40
 546 392 546 392 549 368 c 1,41,-1
 385 368 l 1,0,1
545 -11 m 1,42,-1
 328 -11 l 1,43,-1
 345 199 l 1,44,-1
 562 199 l 1,45,-1
 545 -11 l 1,42,-1
EndSplineSet
EndChar

StartChar: at
Encoding: 64 64 33
Width: 1895
Flags: W
LayerCount: 2
Fore
SplineSet
1312 1107 m 1,0,-1
 1458 1107 l 1,1,-1
 1381 857 l 2,2,3
 1328 684 1328 684 1295 581 c 128,-1,4
 1262 478 1262 478 1260 434 c 1,5,6
 1257 397 1257 397 1273.5 373.5 c 128,-1,7
 1290 350 1290 350 1336 350 c 0,8,9
 1395 350 1395 350 1452 387 c 128,-1,10
 1509 424 1509 424 1555 485.5 c 128,-1,11
 1601 547 1601 547 1632 628 c 128,-1,12
 1663 709 1663 709 1670 796 c 0,13,14
 1679 919 1679 919 1639.5 1022 c 128,-1,15
 1600 1125 1600 1125 1521.5 1199.5 c 128,-1,16
 1443 1274 1443 1274 1328.5 1315.5 c 128,-1,17
 1214 1357 1214 1357 1073 1357 c 0,18,19
 925 1357 925 1357 795 1303.5 c 128,-1,20
 665 1250 665 1250 566.5 1157.5 c 128,-1,21
 468 1065 468 1065 406.5 941 c 128,-1,22
 345 817 345 817 334 677 c 0,23,24
 323 535 323 535 363 413.5 c 128,-1,25
 403 292 403 292 487 202.5 c 128,-1,26
 571 113 571 113 694 62.5 c 128,-1,27
 817 12 817 12 973 12 c 0,28,29
 1120 12 1120 12 1256 58 c 128,-1,30
 1392 104 1392 104 1501 192 c 1,31,-1
 1575 122 l 1,32,33
 1521 68 1521 68 1451.5 25.5 c 128,-1,34
 1382 -17 1382 -17 1302.5 -47 c 128,-1,35
 1223 -77 1223 -77 1135.5 -93 c 128,-1,36
 1048 -109 1048 -109 958 -109 c 0,37,38
 776 -109 776 -109 627.5 -49 c 128,-1,39
 479 11 479 11 375.5 116.5 c 128,-1,40
 272 222 272 222 221 366 c 128,-1,41
 170 510 170 510 183 679 c 0,42,43
 192 791 192 791 229.5 894 c 128,-1,44
 267 997 267 997 328.5 1085.5 c 128,-1,45
 390 1174 390 1174 472.5 1246 c 128,-1,46
 555 1318 555 1318 652.5 1369 c 128,-1,47
 750 1420 750 1420 859.5 1448 c 128,-1,48
 969 1476 969 1476 1087 1476 c 0,49,50
 1197 1476 1197 1476 1296.5 1453 c 128,-1,51
 1396 1430 1396 1430 1480.5 1387 c 128,-1,52
 1565 1344 1565 1344 1632 1283 c 128,-1,53
 1699 1222 1699 1222 1743.5 1146 c 128,-1,54
 1788 1070 1788 1070 1809 980.5 c 128,-1,55
 1830 891 1830 891 1822 791 c 0,56,57
 1813 672 1813 672 1764 569 c 128,-1,58
 1715 466 1715 466 1642 389.5 c 128,-1,59
 1569 313 1569 313 1481 269 c 128,-1,60
 1393 225 1393 225 1306 225 c 0,61,62
 1218 225 1218 225 1163.5 262 c 128,-1,63
 1109 299 1109 299 1101 384 c 1,64,65
 1044 320 1044 320 975 288.5 c 128,-1,66
 906 257 906 257 834 257 c 0,67,68
 774 257 774 257 719 279.5 c 128,-1,69
 664 302 664 302 623.5 346.5 c 128,-1,70
 583 391 583 391 561 457 c 128,-1,71
 539 523 539 523 546 610 c 0,72,73
 551 678 551 678 575 744 c 128,-1,74
 599 810 599 810 636.5 868.5 c 128,-1,75
 674 927 674 927 723 976.5 c 128,-1,76
 772 1026 772 1026 828 1062 c 128,-1,77
 884 1098 884 1098 944.5 1118 c 128,-1,78
 1005 1138 1005 1138 1067 1138 c 0,79,80
 1145 1138 1145 1138 1203.5 1107 c 128,-1,81
 1262 1076 1262 1076 1287 1022 c 1,82,-1
 1312 1107 l 1,0,-1
701 582 m 0,83,84
 697 538 697 538 706 502 c 128,-1,85
 715 466 715 466 735 440 c 128,-1,86
 755 414 755 414 787 399.5 c 128,-1,87
 819 385 819 385 861 385 c 0,88,89
 927 385 927 385 987 422.5 c 128,-1,90
 1047 460 1047 460 1093.5 521.5 c 128,-1,91
 1140 583 1140 583 1169.5 661 c 128,-1,92
 1199 739 1199 739 1205 821 c 0,93,94
 1209 863 1209 863 1203 897.5 c 128,-1,95
 1197 932 1197 932 1179.5 956.5 c 128,-1,96
 1162 981 1162 981 1132.5 994 c 128,-1,97
 1103 1007 1103 1007 1059 1007 c 0,98,99
 988 1007 988 1007 925 967.5 c 128,-1,100
 862 928 862 928 814 866 c 128,-1,101
 766 804 766 804 736 729 c 128,-1,102
 706 654 706 654 701 582 c 0,83,84
EndSplineSet
EndChar

StartChar: A
Encoding: 65 65 34
Width: 1425
Flags: W
LayerCount: 2
Fore
SplineSet
199 0 m 1,0,-1
 13 0 l 1,1,-1
 732 1456 l 1,2,-1
 917 1456 l 1,3,-1
 1407 0 l 1,4,-1
 1216 0 l 1,5,-1
 1084 397 l 1,6,-1
 386 397 l 1,7,-1
 199 0 l 1,0,-1
453 545 m 1,8,-1
 1037 545 l 1,9,-1
 851 1150 l 1,10,11
 844 1169 844 1169 837 1194.5 c 128,-1,12
 830 1220 830 1220 824 1243 c 0,13,14
 816 1270 816 1270 809 1298 c 1,15,16
 797 1266 797 1266 784 1237 c 1,17,18
 774 1212 774 1212 763 1187.5 c 128,-1,19
 752 1163 752 1163 745 1149 c 2,20,-1
 453 545 l 1,8,-1
EndSplineSet
EndChar

StartChar: B
Encoding: 66 66 35
Width: 1352
Flags: W
LayerCount: 2
Fore
SplineSet
202 0 m 1,0,-1
 317 1456 l 1,1,-1
 607 1456 l 2,2,3
 688 1456 688 1456 762.5 1454 c 128,-1,4
 837 1452 837 1452 906 1444 c 0,5,6
 981 1435 981 1435 1043.5 1407 c 128,-1,7
 1106 1379 1106 1379 1149.5 1335.5 c 128,-1,8
 1193 1292 1193 1292 1214.5 1233.5 c 128,-1,9
 1236 1175 1236 1175 1231 1105 c 0,10,11
 1226 1045 1226 1045 1202.5 991 c 128,-1,12
 1179 937 1179 937 1140.5 893.5 c 128,-1,13
 1102 850 1102 850 1050.5 818 c 128,-1,14
 999 786 999 786 940 769 c 1,15,16
 942 769 942 769 944 768.5 c 128,-1,17
 946 768 946 768 948 768 c 0,18,19
 1019 753 1019 753 1076.5 722.5 c 128,-1,20
 1134 692 1134 692 1173.5 645.5 c 128,-1,21
 1213 599 1213 599 1232 538.5 c 128,-1,22
 1251 478 1251 478 1245 403 c 0,23,24
 1238 323 1238 323 1202 250 c 128,-1,25
 1166 177 1166 177 1100.5 121.5 c 128,-1,26
 1035 66 1035 66 942 33 c 128,-1,27
 849 0 849 0 729 0 c 2,28,-1
 202 0 l 1,0,-1
439 828 m 1,29,-1
 635 828 l 2,30,31
 708 828 708 828 779.5 839.5 c 128,-1,32
 851 851 851 851 908.5 879 c 128,-1,33
 966 907 966 907 1004 955 c 128,-1,34
 1042 1003 1042 1003 1048 1077 c 0,35,36
 1054 1150 1054 1150 1028 1195.5 c 128,-1,37
 1002 1241 1002 1241 953 1266 c 128,-1,38
 904 1291 904 1291 835 1299.5 c 128,-1,39
 766 1308 766 1308 685 1308 c 2,40,-1
 477 1308 l 1,41,-1
 439 828 l 1,29,-1
428 680 m 1,42,-1
 386 148 l 1,43,-1
 669 148 l 2,44,45
 848 148 848 148 950.5 211 c 128,-1,46
 1053 274 1053 274 1063 406 c 0,47,48
 1069 485 1069 485 1045.5 538 c 128,-1,49
 1022 591 1022 591 969 622.5 c 128,-1,50
 916 654 916 654 837.5 667 c 128,-1,51
 759 680 759 680 654 680 c 2,52,-1
 428 680 l 1,42,-1
EndSplineSet
EndChar

StartChar: C
Encoding: 67 67 36
Width: 1399
Flags: W
LayerCount: 2
Fore
SplineSet
1286 1219 m 1,0,1
 1142 1334 1142 1334 938 1334 c 0,2,3
 846 1334 846 1334 768 1309.5 c 128,-1,4
 690 1285 690 1285 626 1241.5 c 128,-1,5
 562 1198 562 1198 513 1139 c 128,-1,6
 464 1080 464 1080 429 1011 c 128,-1,7
 394 942 394 942 373.5 865.5 c 128,-1,8
 353 789 353 789 347 712 c 0,9,10
 338 594 338 594 360.5 487.5 c 128,-1,11
 383 381 383 381 440.5 300.5 c 128,-1,12
 498 220 498 220 592.5 172.5 c 128,-1,13
 687 125 687 125 821 125 c 0,14,15
 944 125 944 125 1055 160.5 c 128,-1,16
 1166 196 1166 196 1254 268 c 1,17,-1
 1301 127 l 1,18,19
 1202 52 1202 52 1072 14.5 c 128,-1,20
 942 -23 942 -23 783 -23 c 0,21,22
 618 -23 618 -23 496.5 35 c 128,-1,23
 375 93 375 93 297 193.5 c 128,-1,24
 219 294 219 294 185.5 427.5 c 128,-1,25
 152 561 152 561 164 713 c 0,26,27
 172 816 172 816 201 913 c 128,-1,28
 230 1010 230 1010 278.5 1095.5 c 128,-1,29
 327 1181 327 1181 393.5 1252.5 c 128,-1,30
 460 1324 460 1324 542.5 1375 c 128,-1,31
 625 1426 625 1426 722.5 1454.5 c 128,-1,32
 820 1483 820 1483 931 1483 c 0,33,34
 1067 1483 1067 1483 1171 1446.5 c 128,-1,35
 1275 1410 1275 1410 1359 1329 c 1,36,-1
 1286 1219 l 1,0,1
EndSplineSet
EndChar

StartChar: D
Encoding: 68 68 37
Width: 1546
Flags: W
LayerCount: 2
Fore
SplineSet
308 1456 m 1,0,-1
 623 1456 l 2,1,2
 753 1456 753 1456 870.5 1441 c 128,-1,3
 988 1426 988 1426 1088 1392 c 128,-1,4
 1188 1358 1188 1358 1267 1302.5 c 128,-1,5
 1346 1247 1346 1247 1398.5 1165.5 c 128,-1,6
 1451 1084 1451 1084 1474.5 974.5 c 128,-1,7
 1498 865 1498 865 1487 724 c 0,8,9
 1474 558 1474 558 1408 424.5 c 128,-1,10
 1342 291 1342 291 1229 196.5 c 128,-1,11
 1116 102 1116 102 959.5 51 c 128,-1,12
 803 0 803 0 610 0 c 2,13,-1
 193 0 l 1,14,-1
 308 1456 l 1,0,-1
377 148 m 1,15,-1
 638 148 l 2,16,17
 797 148 797 148 917 190.5 c 128,-1,18
 1037 233 1037 233 1120 309 c 128,-1,19
 1203 385 1203 385 1249 490.5 c 128,-1,20
 1295 596 1295 596 1305 721 c 0,21,22
 1318 885 1318 885 1280.5 997.5 c 128,-1,23
 1243 1110 1243 1110 1158 1179 c 128,-1,24
 1073 1248 1073 1248 941 1278 c 128,-1,25
 809 1308 809 1308 632 1308 c 2,26,-1
 468 1308 l 1,27,-1
 377 148 l 1,15,-1
EndSplineSet
EndChar

StartChar: E
Encoding: 69 69 38
Width: 1218
Flags: W
LayerCount: 2
Fore
SplineSet
1102 0 m 1,0,-1
 205 0 l 1,1,-1
 320 1456 l 1,2,-1
 1187 1456 l 1,3,-1
 1175 1308 l 1,4,-1
 480 1308 l 1,5,-1
 442 820 l 1,6,-1
 1099 820 l 1,7,-1
 1087 672 l 1,8,-1
 430 672 l 1,9,-1
 389 148 l 1,10,-1
 1114 148 l 1,11,-1
 1102 0 l 1,0,-1
EndSplineSet
EndChar

StartChar: F
Encoding: 70 70 39
Width: 1137
Flags: W
LayerCount: 2
Fore
SplineSet
369 0 m 1,0,-1
 197 0 l 1,1,-1
 312 1456 l 1,2,-1
 1155 1456 l 1,3,-1
 1143 1308 l 1,4,-1
 472 1308 l 1,5,-1
 433 815 l 1,6,-1
 1070 815 l 1,7,-1
 1058 667 l 1,8,-1
 421 667 l 1,9,-1
 369 0 l 1,0,-1
EndSplineSet
EndChar

StartChar: G
Encoding: 71 71 40
Width: 1530
Flags: W
LayerCount: 2
Fore
SplineSet
1352 1196 m 1,0,1
 1318 1232 1318 1232 1274.5 1258 c 128,-1,2
 1231 1284 1231 1284 1180.5 1301 c 128,-1,3
 1130 1318 1130 1318 1074.5 1326 c 128,-1,4
 1019 1334 1019 1334 961 1334 c 0,5,6
 822 1334 822 1334 712 1282 c 128,-1,7
 602 1230 602 1230 525 1143.5 c 128,-1,8
 448 1057 448 1057 403.5 945.5 c 128,-1,9
 359 834 359 834 350 714 c 0,10,11
 340 583 340 583 366 474.5 c 128,-1,12
 392 366 392 366 457 288.5 c 128,-1,13
 522 211 522 211 625 168 c 128,-1,14
 728 125 728 125 872 125 c 0,15,16
 957 125 957 125 1038.5 139 c 128,-1,17
 1120 153 1120 153 1194 182 c 1,18,-1
 1228 608 l 1,19,-1
 867 608 l 1,20,-1
 878 757 l 1,21,-1
 1411 757 l 1,22,-1
 1358 81 l 1,23,24
 1233 24 1233 24 1104.5 0.5 c 128,-1,25
 976 -23 976 -23 847 -23 c 0,26,27
 667 -23 667 -23 534 29 c 128,-1,28
 401 81 401 81 316 176 c 128,-1,29
 231 271 231 271 194.5 404.5 c 128,-1,30
 158 538 158 538 171 701 c 0,31,32
 179 808 179 808 209.5 907.5 c 128,-1,33
 240 1007 240 1007 290.5 1094 c 128,-1,34
 341 1181 341 1181 410.5 1252.5 c 128,-1,35
 480 1324 480 1324 566.5 1375.5 c 128,-1,36
 653 1427 653 1427 755.5 1455 c 128,-1,37
 858 1483 858 1483 976 1483 c 0,38,39
 1048 1483 1048 1483 1115.5 1472 c 128,-1,40
 1183 1461 1183 1461 1241 1438.5 c 128,-1,41
 1299 1416 1299 1416 1347 1381.5 c 128,-1,42
 1395 1347 1395 1347 1429 1301 c 1,43,-1
 1352 1196 l 1,0,1
EndSplineSet
EndChar

StartChar: H
Encoding: 72 72 41
Width: 1555
Flags: W
LayerCount: 2
Fore
SplineSet
374 0 m 1,0,-1
 202 0 l 1,1,-1
 317 1456 l 1,2,-1
 489 1456 l 1,3,-1
 439 822 l 1,4,-1
 1241 822 l 1,5,-1
 1291 1456 l 1,6,-1
 1462 1456 l 1,7,-1
 1347 0 l 1,8,-1
 1176 0 l 1,9,-1
 1229 674 l 1,10,-1
 427 674 l 1,11,-1
 374 0 l 1,0,-1
EndSplineSet
EndChar

StartChar: I
Encoding: 73 73 42
Width: 591
Flags: W
LayerCount: 2
Fore
SplineSet
382 0 m 1,0,-1
 210 0 l 1,1,-1
 325 1456 l 1,2,-1
 497 1456 l 1,3,-1
 382 0 l 1,0,-1
EndSplineSet
EndChar

StartChar: J
Encoding: 74 74 43
Width: 939
Flags: W
LayerCount: 2
Fore
SplineSet
137 197 m 1,0,1
 178 163 178 163 226.5 144 c 128,-1,2
 275 125 275 125 335 125 c 0,3,4
 401 125 401 125 452 152.5 c 128,-1,5
 503 180 503 180 538.5 229 c 128,-1,6
 574 278 574 278 594.5 344 c 128,-1,7
 615 410 615 410 621 488 c 2,8,-1
 697 1456 l 1,9,-1
 869 1456 l 1,10,-1
 794 499 l 2,11,12
 784 372 784 372 746.5 274.5 c 128,-1,13
 709 177 709 177 647.5 111 c 128,-1,14
 586 45 586 45 503.5 11 c 128,-1,15
 421 -23 421 -23 319 -23 c 0,16,17
 241 -23 241 -23 181.5 4.5 c 128,-1,18
 122 32 122 32 77 81 c 1,19,-1
 137 197 l 1,0,1
EndSplineSet
EndChar

StartChar: K
Encoding: 75 75 44
Width: 1294
Flags: W
LayerCount: 2
Fore
SplineSet
382 0 m 1,0,-1
 210 0 l 1,1,-1
 325 1456 l 1,2,-1
 497 1456 l 1,3,-1
 445 796 l 1,4,-1
 540 887 l 1,5,-1
 1141 1456 l 1,6,-1
 1357 1456 l 1,7,-1
 614 778 l 1,8,-1
 1296 0 l 1,9,-1
 1060 0 l 1,10,-1
 516 634 l 1,11,-1
 439 725 l 1,12,-1
 382 0 l 1,0,-1
EndSplineSet
EndChar

StartChar: L
Encoding: 76 76 45
Width: 1120
Flags: W
LayerCount: 2
Fore
SplineSet
1073 0 m 1,0,-1
 202 0 l 1,1,-1
 317 1456 l 1,2,-1
 489 1456 l 1,3,-1
 386 148 l 1,4,-1
 1083 148 l 1,5,-1
 1073 0 l 1,0,-1
EndSplineSet
EndChar

StartChar: M
Encoding: 77 77 46
Width: 2002
Flags: W
LayerCount: 2
Fore
SplineSet
370 0 m 1,0,-1
 200 0 l 1,1,-1
 315 1456 l 1,2,-1
 553 1456 l 1,3,-1
 946 416 l 1,4,-1
 1014 212 l 1,5,-1
 1016 212 l 1,6,-1
 1117 419 l 1,7,-1
 1677 1456 l 1,8,-1
 1911 1456 l 1,9,-1
 1796 0 l 1,10,-1
 1628 0 l 1,11,-1
 1702 934 l 1,12,-1
 1726 1251 l 1,13,-1
 1666 1130 l 1,14,-1
 1060 0 l 1,15,-1
 934 0 l 1,16,-1
 517 1108 l 1,17,-1
 470 1268 l 1,18,-1
 443 931 l 1,19,-1
 370 0 l 1,0,-1
EndSplineSet
EndChar

StartChar: N
Encoding: 78 78 47
Width: 1594
Flags: W
LayerCount: 2
Fore
SplineSet
193 0 m 1,0,-1
 308 1456 l 1,1,-1
 514 1456 l 1,2,-1
 1173 342 l 1,3,-1
 1241 215 l 1,4,-1
 1259 448 l 1,5,-1
 1339 1456 l 1,6,-1
 1510 1456 l 1,7,-1
 1395 0 l 1,8,-1
 1187 0 l 1,9,-1
 525 1113 l 1,10,-1
 462 1237 l 1,11,-1
 447 1047 l 1,12,-1
 365 0 l 1,13,-1
 193 0 l 1,0,-1
EndSplineSet
EndChar

StartChar: O
Encoding: 79 79 48
Width: 1663
Flags: W
LayerCount: 2
Fore
SplineSet
1601 726 m 0,0,1
 1588 561 1588 561 1529 423.5 c 128,-1,2
 1470 286 1470 286 1370 186.5 c 128,-1,3
 1270 87 1270 87 1132.5 32 c 128,-1,4
 995 -23 995 -23 827 -23 c 0,5,6
 660 -23 660 -23 532 30 c 128,-1,7
 404 83 404 83 319 181 c 128,-1,8
 234 279 234 279 196 418 c 128,-1,9
 158 557 158 557 172 729 c 1,10,11
 184 893 184 893 244 1031 c 128,-1,12
 304 1169 304 1169 405 1269.5 c 128,-1,13
 506 1370 506 1370 644.5 1426.5 c 128,-1,14
 783 1483 783 1483 954 1483 c 0,15,16
 1117 1483 1117 1483 1243.5 1429 c 128,-1,17
 1370 1375 1370 1375 1454.5 1276 c 128,-1,18
 1539 1177 1539 1177 1577 1037.5 c 128,-1,19
 1615 898 1615 898 1601 726 c 0,0,1
355 725 m 0,20,21
 345 599 345 599 370 489.5 c 128,-1,22
 395 380 395 380 455 299 c 128,-1,23
 515 218 515 218 610.5 171.5 c 128,-1,24
 706 125 706 125 837 125 c 0,25,26
 969 125 969 125 1072 171.5 c 128,-1,27
 1175 218 1175 218 1247.5 299.5 c 128,-1,28
 1320 381 1320 381 1362 492.5 c 128,-1,29
 1404 604 1404 604 1414 734 c 0,30,31
 1424 861 1424 861 1400 971 c 128,-1,32
 1376 1081 1376 1081 1316.5 1162 c 128,-1,33
 1257 1243 1257 1243 1162 1289 c 128,-1,34
 1067 1335 1067 1335 935 1335 c 0,35,36
 804 1335 804 1335 701 1285 c 128,-1,37
 598 1235 598 1235 524 1151 c 128,-1,38
 450 1067 450 1067 407.5 956.5 c 128,-1,39
 365 846 365 846 355 725 c 0,20,21
EndSplineSet
EndChar

StartChar: P
Encoding: 80 80 49
Width: 1274
Flags: W
LayerCount: 2
Fore
SplineSet
375 0 m 1,0,-1
 203 0 l 1,1,-1
 318 1456 l 1,2,-1
 659 1456 l 2,3,4
 744 1456 744 1456 824.5 1448.5 c 128,-1,5
 905 1441 905 1441 976.5 1422.5 c 128,-1,6
 1048 1404 1048 1404 1107.5 1372.5 c 128,-1,7
 1167 1341 1167 1341 1207.5 1292.5 c 128,-1,8
 1248 1244 1248 1244 1267.5 1177 c 128,-1,9
 1287 1110 1287 1110 1280 1020 c 0,10,11
 1271 906 1271 906 1215 824 c 128,-1,12
 1159 742 1159 742 1071.5 689.5 c 128,-1,13
 984 637 984 637 873 612 c 128,-1,14
 762 587 762 587 643 587 c 2,15,-1
 421 587 l 1,16,-1
 375 0 l 1,0,-1
478 1308 m 1,17,-1
 433 736 l 1,18,-1
 694 736 l 2,19,20
 776 736 776 736 847.5 752.5 c 128,-1,21
 919 769 919 769 972 803.5 c 128,-1,22
 1025 838 1025 838 1057.5 891 c 128,-1,23
 1090 944 1090 944 1096 1018 c 0,24,25
 1103 1105 1103 1105 1076 1161.5 c 128,-1,26
 1049 1218 1049 1218 995 1250.5 c 128,-1,27
 941 1283 941 1283 863.5 1295.5 c 128,-1,28
 786 1308 786 1308 691 1308 c 2,29,-1
 478 1308 l 1,17,-1
EndSplineSet
EndChar

StartChar: Q
Encoding: 81 81 50
Width: 1664
Flags: W
LayerCount: 2
Fore
SplineSet
355 724 m 0,0,1
 345 599 345 599 370 490 c 128,-1,2
 395 381 395 381 455 300 c 128,-1,3
 515 219 515 219 610.5 172 c 128,-1,4
 706 125 706 125 837 125 c 0,5,6
 969 125 969 125 1071.5 171.5 c 128,-1,7
 1174 218 1174 218 1246.5 299.5 c 128,-1,8
 1319 381 1319 381 1360.5 492.5 c 128,-1,9
 1402 604 1402 604 1413 734 c 0,10,11
 1423 861 1423 861 1399 970.5 c 128,-1,12
 1375 1080 1375 1080 1316 1161 c 128,-1,13
 1257 1242 1257 1242 1162 1288 c 128,-1,14
 1067 1334 1067 1334 935 1334 c 0,15,16
 804 1334 804 1334 700.5 1284 c 128,-1,17
 597 1234 597 1234 523.5 1150 c 128,-1,18
 450 1066 450 1066 407 955.5 c 128,-1,19
 364 845 364 845 355 724 c 0,0,1
1587 -182 m 1,20,21
 1544 -187 1544 -187 1500 -189.5 c 128,-1,22
 1456 -192 1456 -192 1418 -192 c 0,23,24
 1278 -192 1278 -192 1184 -178 c 128,-1,25
 1090 -164 1090 -164 1025 -140 c 128,-1,26
 960 -116 960 -116 915 -84.5 c 128,-1,27
 870 -53 870 -53 827 -18 c 1,28,29
 666 -18 666 -18 539.5 36 c 128,-1,30
 413 90 413 90 328 190 c 128,-1,31
 243 290 243 290 203.5 431.5 c 128,-1,32
 164 573 164 573 178 747 c 1,33,34
 190 909 190 909 251 1044.5 c 128,-1,35
 312 1180 312 1180 413 1277.5 c 128,-1,36
 514 1375 514 1375 651.5 1429 c 128,-1,37
 789 1483 789 1483 954 1483 c 0,38,39
 1117 1483 1117 1483 1243.5 1429 c 128,-1,40
 1370 1375 1370 1375 1454 1276.5 c 128,-1,41
 1538 1178 1538 1178 1576 1041 c 128,-1,42
 1614 904 1614 904 1601 738 c 0,43,44
 1591 606 1591 606 1548.5 484 c 128,-1,45
 1506 362 1506 362 1433 263.5 c 128,-1,46
 1360 165 1360 165 1257.5 96.5 c 128,-1,47
 1155 28 1155 28 1024 2 c 1,48,49
 1063 -14 1063 -14 1116 -23.5 c 128,-1,50
 1169 -33 1169 -33 1225 -37.5 c 128,-1,51
 1281 -42 1281 -42 1334 -43 c 128,-1,52
 1387 -44 1387 -44 1425 -44 c 0,53,54
 1462 -44 1462 -44 1507.5 -39.5 c 128,-1,55
 1553 -35 1553 -35 1596 -28 c 1,56,-1
 1587 -182 l 1,20,21
EndSplineSet
EndChar

StartChar: R
Encoding: 82 82 51
Width: 1377
Flags: W
LayerCount: 2
Fore
SplineSet
428 652 m 1,0,-1
 377 0 l 1,1,-1
 205 0 l 1,2,-1
 320 1456 l 1,3,-1
 676 1456 l 2,4,5
 735 1456 735 1456 805 1454 c 128,-1,6
 875 1452 875 1452 945.5 1441 c 128,-1,7
 1016 1430 1016 1430 1080 1406.5 c 128,-1,8
 1144 1383 1144 1383 1192 1341 c 128,-1,9
 1240 1299 1240 1299 1265.5 1233.5 c 128,-1,10
 1291 1168 1291 1168 1284 1074 c 0,11,12
 1278 1005 1278 1005 1251.5 947 c 128,-1,13
 1225 889 1225 889 1180.5 843 c 128,-1,14
 1136 797 1136 797 1076 765 c 128,-1,15
 1016 733 1016 733 944 715 c 1,16,-1
 945 715 l 1,17,18
 1005 695 1005 695 1041.5 656 c 128,-1,19
 1078 617 1078 617 1105 555.5 c 128,-1,20
 1132 494 1132 494 1156.5 409.5 c 128,-1,21
 1181 325 1181 325 1217 214 c 2,22,-1
 1287 0 l 1,23,-1
 1099 0 l 1,24,-1
 979 419 l 2,25,26
 959 487 959 487 938 532 c 128,-1,27
 917 577 917 577 886 603.5 c 128,-1,28
 855 630 855 630 810 641 c 128,-1,29
 765 652 765 652 698 652 c 2,30,-1
 428 652 l 1,0,-1
440 799 m 1,31,-1
 706 799 l 2,32,33
 773 799 773 799 841 811 c 128,-1,34
 909 823 909 823 964.5 852 c 128,-1,35
 1020 881 1020 881 1057 931 c 128,-1,36
 1094 981 1094 981 1100 1058 c 0,37,38
 1106 1133 1106 1133 1082.5 1181.5 c 128,-1,39
 1059 1230 1059 1230 1012 1258 c 128,-1,40
 965 1286 965 1286 900 1297 c 128,-1,41
 835 1308 835 1308 757 1308 c 2,42,-1
 480 1308 l 1,43,-1
 440 799 l 1,31,-1
EndSplineSet
EndChar

StartChar: S
Encoding: 83 83 52
Width: 1244
Flags: W
LayerCount: 2
Fore
SplineSet
237 271 m 1,0,1
 267 231 267 231 309 203.5 c 128,-1,2
 351 176 351 176 399 158.5 c 128,-1,3
 447 141 447 141 499 133 c 128,-1,4
 551 125 551 125 601 125 c 0,5,6
 680 125 680 125 747.5 140.5 c 128,-1,7
 815 156 815 156 864.5 186.5 c 128,-1,8
 914 217 914 217 944 261.5 c 128,-1,9
 974 306 974 306 979 365 c 0,10,11
 984 431 984 431 953 477.5 c 128,-1,12
 922 524 922 524 868 560 c 128,-1,13
 814 596 814 596 743.5 624.5 c 128,-1,14
 673 653 673 653 599.5 683 c 128,-1,15
 526 713 526 713 456 747.5 c 128,-1,16
 386 782 386 782 333 829.5 c 128,-1,17
 280 877 280 877 250.5 941.5 c 128,-1,18
 221 1006 221 1006 228 1095 c 0,19,20
 235 1191 235 1191 285.5 1263.5 c 128,-1,21
 336 1336 336 1336 414 1384.5 c 128,-1,22
 492 1433 492 1433 588 1458 c 128,-1,23
 684 1483 684 1483 783 1483 c 0,24,25
 840 1483 840 1483 899.5 1476 c 128,-1,26
 959 1469 959 1469 1013 1451 c 128,-1,27
 1067 1433 1067 1433 1112 1403.5 c 128,-1,28
 1157 1374 1157 1374 1186 1329 c 1,29,-1
 1094 1217 l 1,30,31
 1067 1250 1067 1250 1030 1272.5 c 128,-1,32
 993 1295 993 1295 950.5 1308.5 c 128,-1,33
 908 1322 908 1322 862.5 1328 c 128,-1,34
 817 1334 817 1334 772 1334 c 0,35,36
 711 1334 711 1334 649 1321.5 c 128,-1,37
 587 1309 587 1309 536 1281.5 c 128,-1,38
 485 1254 485 1254 450.5 1210.5 c 128,-1,39
 416 1167 416 1167 411 1105 c 0,40,41
 406 1041 406 1041 437.5 994.5 c 128,-1,42
 469 948 469 948 523 912 c 128,-1,43
 577 876 577 876 647.5 846 c 128,-1,44
 718 816 718 816 791.5 785 c 128,-1,45
 865 754 865 754 934.5 718 c 128,-1,46
 1004 682 1004 682 1057 633 c 128,-1,47
 1110 584 1110 584 1140 518.5 c 128,-1,48
 1170 453 1170 453 1163 364 c 0,49,50
 1157 293 1157 293 1129.5 236.5 c 128,-1,51
 1102 180 1102 180 1059 137 c 128,-1,52
 1016 94 1016 94 959.5 63.5 c 128,-1,53
 903 33 903 33 839 14 c 128,-1,54
 775 -5 775 -5 706.5 -14 c 128,-1,55
 638 -23 638 -23 571 -23 c 0,56,57
 498 -23 498 -23 433 -10 c 128,-1,58
 368 3 368 3 313.5 27 c 128,-1,59
 259 51 259 51 217.5 85 c 128,-1,60
 176 119 176 119 150 161 c 1,61,-1
 237 271 l 1,0,1
EndSplineSet
EndChar

StartChar: T
Encoding: 84 84 53
Width: 1174
Flags: W
LayerCount: 2
Fore
SplineSet
501 0 m 1,0,-1
 604 1308 l 1,1,-1
 135 1308 l 1,2,-1
 147 1456 l 1,3,-1
 1260 1456 l 1,4,-1
 1248 1308 l 1,5,-1
 776 1308 l 1,6,-1
 673 0 l 1,7,-1
 501 0 l 1,0,-1
EndSplineSet
EndChar

StartChar: U
Encoding: 85 85 54
Width: 1532
Flags: W
LayerCount: 2
Fore
SplineSet
306 1456 m 1,0,-1
 478 1456 l 1,1,-1
 406 546 l 2,2,3
 390 342 390 342 482.5 233.5 c 128,-1,4
 575 125 575 125 773 125 c 0,5,6
 864 125 864 125 941 153.5 c 128,-1,7
 1018 182 1018 182 1074.5 235.5 c 128,-1,8
 1131 289 1131 289 1165.5 366 c 128,-1,9
 1200 443 1200 443 1208 539 c 2,10,-1
 1280 1456 l 1,11,-1
 1452 1456 l 1,12,-1
 1380 551 l 1,13,14
 1368 416 1368 416 1323 309 c 128,-1,15
 1278 202 1278 202 1200 128.5 c 128,-1,16
 1122 55 1122 55 1010 16 c 128,-1,17
 898 -23 898 -23 754 -23 c 0,18,19
 598 -23 598 -23 493.5 18 c 128,-1,20
 389 59 389 59 328 133.5 c 128,-1,21
 267 208 267 208 245.5 312 c 128,-1,22
 224 416 224 416 234 541 c 2,23,-1
 306 1456 l 1,0,-1
EndSplineSet
EndChar

StartChar: V
Encoding: 86 86 55
Width: 1336
Flags: W
LayerCount: 2
Fore
SplineSet
316 1456 m 1,0,-1
 649 307 l 1,1,-1
 683 166 l 1,2,-1
 743 308 l 1,3,-1
 1260 1456 l 1,4,-1
 1439 1456 l 1,5,-1
 759 0 l 1,6,-1
 570 0 l 1,7,-1
 124 1456 l 1,8,-1
 316 1456 l 1,0,-1
EndSplineSet
EndChar

StartChar: W
Encoding: 87 87 56
Width: 2103
Flags: W
LayerCount: 2
Fore
SplineSet
1196 1026 m 1,0,-1
 1151 1247 l 1,1,-1
 1064 1026 l 1,2,-1
 657 0 l 1,3,-1
 444 0 l 1,4,-1
 136 1456 l 1,5,-1
 322 1456 l 1,6,-1
 545 349 l 1,7,-1
 570 189 l 1,8,-1
 626 334 l 1,9,-1
 1082 1456 l 1,10,-1
 1263 1456 l 1,11,-1
 1535 345 l 1,12,-1
 1568 190 l 1,13,-1
 1616 332 l 1,14,-1
 2015 1456 l 1,15,-1
 2195 1456 l 1,16,-1
 1657 0 l 1,17,-1
 1445 0 l 1,18,-1
 1196 1026 l 1,0,-1
EndSplineSet
EndChar

StartChar: X
Encoding: 88 88 57
Width: 1304
Flags: W
LayerCount: 2
Fore
SplineSet
626 537 m 1,0,-1
 215 0 l 1,1,-1
 11 0 l 1,2,-1
 606 741 l 1,3,-1
 162 1456 l 1,4,-1
 378 1456 l 1,5,-1
 667 959 l 1,6,-1
 729 854 l 1,7,-1
 809 959 l 1,8,-1
 1194 1456 l 1,9,-1
 1390 1456 l 1,10,-1
 822 742 l 1,11,-1
 1285 0 l 1,12,-1
 1072 0 l 1,13,-1
 752 538 l 1,14,-1
 696 630 l 1,15,-1
 626 537 l 1,0,-1
EndSplineSet
EndChar

StartChar: Y
Encoding: 89 89 58
Width: 1266
Flags: W
LayerCount: 2
Fore
SplineSet
543 0 m 1,0,-1
 589 582 l 1,1,-1
 125 1456 l 1,2,-1
 316 1456 l 1,3,-1
 690 727 l 1,4,-1
 1182 1456 l 1,5,-1
 1373 1456 l 1,6,-1
 761 585 l 1,7,-1
 715 0 l 1,8,-1
 543 0 l 1,0,-1
EndSplineSet
EndChar

StartChar: Z
Encoding: 90 90 59
Width: 1222
Flags: W
LayerCount: 2
Fore
SplineSet
1146 0 m 1,0,-1
 58 0 l 1,1,-1
 65 92 l 1,2,-1
 1025 1308 l 1,3,-1
 193 1308 l 1,4,-1
 205 1456 l 1,5,-1
 1269 1456 l 1,6,-1
 1262 1368 l 1,7,-1
 298 148 l 1,8,-1
 1158 148 l 1,9,-1
 1146 0 l 1,0,-1
EndSplineSet
EndChar

StartChar: bracketleft
Encoding: 91 91 60
Width: 628
Flags: W
LayerCount: 2
Fore
SplineSet
528 -259 m 1,0,-1
 171 -259 l 1,1,-1
 306 1451 l 1,2,-1
 662 1451 l 1,3,-1
 652 1329 l 1,4,-1
 459 1329 l 1,5,-1
 344 -137 l 1,6,-1
 538 -137 l 1,7,-1
 528 -259 l 1,0,-1
EndSplineSet
EndChar

StartChar: backslash
Encoding: 92 92 61
Width: 706
Flags: W
LayerCount: 2
Fore
SplineSet
607 -119 m 1,0,-1
 44 1451 l 1,1,-1
 212 1451 l 1,2,-1
 773 -119 l 1,3,-1
 607 -119 l 1,0,-1
EndSplineSet
EndChar

StartChar: bracketright
Encoding: 93 93 62
Width: 628
Flags: W
LayerCount: 2
Fore
SplineSet
193 1451 m 1,0,-1
 557 1451 l 1,1,-1
 422 -259 l 1,2,-1
 67 -259 l 1,3,-1
 77 -137 l 1,4,-1
 268 -137 l 1,5,-1
 383 1329 l 1,6,-1
 193 1329 l 1,7,-1
 193 1451 l 1,0,-1
EndSplineSet
EndChar

StartChar: asciicircum
Encoding: 94 94 63
Width: 1457
Flags: W
LayerCount: 2
Fore
SplineSet
227 550 m 1,0,-1
 777 1432 l 1,1,-1
 878 1432 l 1,2,-1
 1298 550 l 1,3,-1
 1143 550 l 1,4,-1
 849 1175 l 1,5,-1
 813 1260 l 1,6,-1
 767 1176 l 1,7,-1
 383 550 l 1,8,-1
 227 550 l 1,0,-1
EndSplineSet
EndChar

StartChar: underscore
Encoding: 95 95 64
Width: 998
Flags: W
LayerCount: 2
Fore
SplineSet
977 -273 m 1,0,-1
 -25 -273 l 1,1,-1
 -16 -145 l 1,2,-1
 986 -145 l 1,3,-1
 977 -273 l 1,0,-1
EndSplineSet
EndChar

StartChar: grave
Encoding: 96 96 65
Width: 593
Flags: W
LayerCount: 2
Fore
SplineSet
118 1492 m 1,0,-1
 332 1492 l 1,1,-1
 554 1172 l 1,2,-1
 425 1172 l 1,3,-1
 118 1492 l 1,0,-1
EndSplineSet
EndChar

StartChar: a
Encoding: 97 97 66
Width: 1244
Flags: W
LayerCount: 2
Fore
SplineSet
665 1051 m 0,0,1
 728 1051 728 1051 779 1039.5 c 128,-1,2
 830 1028 830 1028 872 1007 c 128,-1,3
 914 986 914 986 949 955 c 128,-1,4
 984 924 984 924 1012 885 c 1,5,-1
 1030 1026 l 1,6,-1
 1193 1026 l 1,7,-1
 1169 773 l 1,8,-1
 1108 0 l 1,9,-1
 943 0 l 1,10,-1
 956 144 l 1,11,12
 930 112 930 112 891 81.5 c 128,-1,13
 852 51 852 51 804 28 c 128,-1,14
 756 5 756 5 699.5 -9 c 128,-1,15
 643 -23 643 -23 582 -23 c 0,16,17
 496 -23 496 -23 428 -0.5 c 128,-1,18
 360 22 360 22 308 61.5 c 128,-1,19
 256 101 256 101 219.5 154 c 128,-1,20
 183 207 183 207 162 268 c 128,-1,21
 141 329 141 329 133 394.5 c 128,-1,22
 125 460 125 460 130 524 c 0,23,24
 138 623 138 623 176 718 c 128,-1,25
 214 813 214 813 281 887 c 128,-1,26
 348 961 348 961 444.5 1006 c 128,-1,27
 541 1051 541 1051 665 1051 c 0,0,1
609 109 m 0,28,29
 679 109 679 109 743 137.5 c 128,-1,30
 807 166 807 166 858 221.5 c 128,-1,31
 909 277 909 277 943 359.5 c 128,-1,32
 977 442 977 442 986 550 c 0,33,34
 992 631 992 631 973 698 c 128,-1,35
 954 765 954 765 913 814 c 128,-1,36
 872 863 872 863 809.5 890 c 128,-1,37
 747 917 747 917 667 917 c 0,38,39
 606 917 606 917 555.5 900.5 c 128,-1,40
 505 884 505 884 465 855 c 128,-1,41
 425 826 425 826 394 787 c 128,-1,42
 363 748 363 748 341.5 703.5 c 128,-1,43
 320 659 320 659 307.5 611 c 128,-1,44
 295 563 295 563 291 516 c 0,45,46
 288 470 288 470 290.5 421.5 c 128,-1,47
 293 373 293 373 304.5 328 c 128,-1,48
 316 283 316 283 339 243 c 128,-1,49
 362 203 362 203 398 173.5 c 128,-1,50
 434 144 434 144 486 126.5 c 128,-1,51
 538 109 538 109 609 109 c 0,28,29
EndSplineSet
EndChar

StartChar: b
Encoding: 98 98 67
Width: 1239
Flags: W
LayerCount: 2
Fore
SplineSet
318 0 m 1,0,-1
 150 0 l 1,1,2
 156 68 156 68 163 123 c 0,3,4
 166 147 166 147 168 170.5 c 128,-1,5
 170 194 170 194 172 214 c 128,-1,6
 174 234 174 234 176 249 c 128,-1,7
 178 264 178 264 178 270 c 2,8,-1
 274 1492 l 1,9,-1
 439 1492 l 1,10,-1
 391 881 l 1,11,12
 461 968 461 968 560 1009.5 c 128,-1,13
 659 1051 659 1051 771 1051 c 0,14,15
 890 1051 890 1051 971.5 1008 c 128,-1,16
 1053 965 1053 965 1101.5 893 c 128,-1,17
 1150 821 1150 821 1168 725.5 c 128,-1,18
 1186 630 1186 630 1177 525 c 1,19,20
 1169 413 1169 413 1131.5 313.5 c 128,-1,21
 1094 214 1094 214 1029.5 139 c 128,-1,22
 965 64 965 64 873.5 20.5 c 128,-1,23
 782 -23 782 -23 666 -23 c 0,24,25
 557 -23 557 -23 473.5 17.5 c 128,-1,26
 390 58 390 58 333 137 c 1,27,-1
 318 0 l 1,0,-1
1012 550 m 0,28,29
 1018 626 1018 626 1001.5 693 c 128,-1,30
 985 760 985 760 947.5 809.5 c 128,-1,31
 910 859 910 859 853 888 c 128,-1,32
 796 917 796 917 722 917 c 0,33,34
 641 917 641 917 577 884.5 c 128,-1,35
 513 852 513 852 467 796.5 c 128,-1,36
 421 741 421 741 395 668 c 128,-1,37
 369 595 369 595 363 515 c 0,38,39
 356 428 356 428 367 358 c 128,-1,40
 378 288 378 288 412.5 238.5 c 128,-1,41
 447 189 447 189 507 162 c 128,-1,42
 567 135 567 135 658 135 c 0,43,44
 748 135 748 135 812.5 170.5 c 128,-1,45
 877 206 877 206 919 264 c 128,-1,46
 961 322 961 322 983.5 396.5 c 128,-1,47
 1006 471 1006 471 1012 550 c 0,28,29
EndSplineSet
EndChar

StartChar: c
Encoding: 99 99 68
Width: 1046
Flags: W
LayerCount: 2
Fore
SplineSet
944 801 m 1,0,1
 901 861 901 861 834 889 c 128,-1,2
 767 917 767 917 689 917 c 0,3,4
 606 917 606 917 538.5 885 c 128,-1,5
 471 853 471 853 421 797.5 c 128,-1,6
 371 742 371 742 341.5 667.5 c 128,-1,7
 312 593 312 593 305 508 c 0,8,9
 298 424 298 424 313.5 351 c 128,-1,10
 329 278 329 278 367.5 224 c 128,-1,11
 406 170 406 170 469.5 139.5 c 128,-1,12
 533 109 533 109 623 109 c 0,13,14
 792 109 792 109 936 225 c 1,15,-1
 971 87 l 1,16,17
 893 29 893 29 801 3 c 128,-1,18
 709 -23 709 -23 600 -23 c 0,19,20
 473 -23 473 -23 381 18.5 c 128,-1,21
 289 60 289 60 230.5 131.5 c 128,-1,22
 172 203 172 203 147.5 299 c 128,-1,23
 123 395 123 395 131 503 c 0,24,25
 140 615 140 615 182 715 c 128,-1,26
 224 815 224 815 295 889.5 c 128,-1,27
 366 964 366 964 464.5 1007.5 c 128,-1,28
 563 1051 563 1051 685 1051 c 0,29,30
 806 1051 806 1051 894 1013 c 128,-1,31
 982 975 982 975 1027 908 c 1,32,-1
 944 801 l 1,0,1
EndSplineSet
EndChar

StartChar: d
Encoding: 100 100 69
Width: 1240
Flags: W
LayerCount: 2
Fore
SplineSet
915 0 m 1,0,-1
 922 147 l 1,1,2
 850 55 850 55 761.5 16 c 128,-1,3
 673 -23 673 -23 555 -23 c 0,4,5
 436 -23 436 -23 351.5 18.5 c 128,-1,6
 267 60 267 60 216 132 c 128,-1,7
 165 204 165 204 144.5 300.5 c 128,-1,8
 124 397 124 397 133 506 c 0,9,10
 141 614 141 614 178.5 712.5 c 128,-1,11
 216 811 216 811 281 886.5 c 128,-1,12
 346 962 346 962 438 1006.5 c 128,-1,13
 530 1051 530 1051 647 1051 c 0,14,15
 758 1051 758 1051 843.5 1009 c 128,-1,16
 929 967 929 967 981 888 c 1,17,-1
 1028 1492 l 1,18,-1
 1193 1492 l 1,19,-1
 1096 256 l 2,20,21
 1092 196 1092 196 1088 127 c 128,-1,22
 1084 58 1084 58 1082 0 c 1,23,-1
 915 0 l 1,0,-1
591 109 m 0,24,25
 672 109 672 109 736 140.5 c 128,-1,26
 800 172 800 172 846 229.5 c 128,-1,27
 892 287 892 287 919.5 368 c 128,-1,28
 947 449 947 449 955 548 c 0,29,30
 961 631 961 631 944 699 c 128,-1,31
 927 767 927 767 889 815.5 c 128,-1,32
 851 864 851 864 794 890.5 c 128,-1,33
 737 917 737 917 664 917 c 0,34,35
 579 917 579 917 515 884 c 128,-1,36
 451 851 451 851 406.5 795 c 128,-1,37
 362 739 362 739 337 664.5 c 128,-1,38
 312 590 312 590 306 507 c 0,39,40
 300 429 300 429 310.5 357 c 128,-1,41
 321 285 321 285 354.5 230 c 128,-1,42
 388 175 388 175 445.5 142 c 128,-1,43
 503 109 503 109 591 109 c 0,24,25
EndSplineSet
EndChar

StartChar: e
Encoding: 101 101 70
Width: 1173
Flags: W
LayerCount: 2
Fore
SplineSet
954 609 m 1,0,-1
 954 623 l 2,1,2
 954 688 954 688 938 742 c 128,-1,3
 922 796 922 796 889 835 c 128,-1,4
 856 874 856 874 806 895.5 c 128,-1,5
 756 917 756 917 691 917 c 0,6,7
 621 917 621 917 563 892.5 c 128,-1,8
 505 868 505 868 461.5 826 c 128,-1,9
 418 784 418 784 388.5 728 c 128,-1,10
 359 672 359 672 345 609 c 1,11,-1
 954 609 l 1,0,-1
1048 115 m 1,12,13
 959 43 959 43 855.5 10 c 128,-1,14
 752 -23 752 -23 624 -23 c 0,15,16
 503 -23 503 -23 411 16.5 c 128,-1,17
 319 56 319 56 259.5 126.5 c 128,-1,18
 200 197 200 197 173 295 c 128,-1,19
 146 393 146 393 155 510 c 0,20,21
 164 621 164 621 205.5 719 c 128,-1,22
 247 817 247 817 318 891 c 128,-1,23
 389 965 389 965 486 1008 c 128,-1,24
 583 1051 583 1051 703 1051 c 0,25,26
 821 1051 821 1051 905 1012.5 c 128,-1,27
 989 974 989 974 1039.5 906.5 c 128,-1,28
 1090 839 1090 839 1110 746 c 128,-1,29
 1130 653 1130 653 1122 544 c 0,30,31
 1121 533 1121 533 1119.5 518.5 c 128,-1,32
 1118 504 1118 504 1116 492 c 1,33,-1
 329 492 l 1,34,-1
 328 447 l 1,35,36
 328 372 328 372 348 310 c 128,-1,37
 368 248 368 248 407.5 203 c 128,-1,38
 447 158 447 158 506.5 133.5 c 128,-1,39
 566 109 566 109 645 109 c 0,40,41
 751 109 751 109 841.5 146 c 128,-1,42
 932 183 932 183 1008 252 c 1,43,-1
 1048 115 l 1,12,13
EndSplineSet
EndChar

StartChar: f
Encoding: 102 102 71
Width: 702
Flags: W
LayerCount: 2
Fore
SplineSet
411 0 m 1,0,-1
 246 0 l 1,1,-1
 318 919 l 1,2,-1
 118 919 l 1,3,-1
 125 1026 l 1,4,-1
 326 1026 l 1,5,-1
 337 1138 l 2,6,7
 345 1219 345 1219 365 1288 c 128,-1,8
 385 1357 385 1357 423 1407 c 128,-1,9
 461 1457 461 1457 520 1485.5 c 128,-1,10
 579 1514 579 1514 664 1514 c 0,11,12
 685 1514 685 1514 702 1512.5 c 128,-1,13
 719 1511 719 1511 734 1508 c 128,-1,14
 749 1505 749 1505 764.5 1501 c 128,-1,15
 780 1497 780 1497 798 1493 c 1,16,-1
 790 1364 l 1,17,18
 771 1372 771 1372 740.5 1375.5 c 128,-1,19
 710 1379 710 1379 681 1379 c 0,20,21
 630 1379 630 1379 597.5 1365 c 128,-1,22
 565 1351 565 1351 546 1323.5 c 128,-1,23
 527 1296 527 1296 517 1255.5 c 128,-1,24
 507 1215 507 1215 503 1162 c 2,25,-1
 491 1026 l 1,26,-1
 738 1026 l 1,27,-1
 731 919 l 1,28,-1
 483 919 l 1,29,-1
 411 0 l 1,0,-1
EndSplineSet
EndChar

StartChar: g
Encoding: 103 103 72
Width: 1241
Flags: W
LayerCount: 2
Fore
SplineSet
186 -187 m 1,0,1
 261 -236 261 -236 346.5 -259 c 128,-1,2
 432 -282 432 -282 516 -282 c 0,3,4
 604 -282 604 -282 675 -262.5 c 128,-1,5
 746 -243 746 -243 797 -202.5 c 128,-1,6
 848 -162 848 -162 878.5 -99.5 c 128,-1,7
 909 -37 909 -37 916 49 c 2,8,-1
 926 176 l 1,9,10
 859 88 859 88 764 44 c 128,-1,11
 669 0 669 0 560 0 c 0,12,13
 449 0 449 0 365 37 c 128,-1,14
 281 74 281 74 226 141 c 128,-1,15
 171 208 171 208 146.5 302 c 128,-1,16
 122 396 122 396 131 511 c 0,17,18
 140 620 140 620 177.5 718.5 c 128,-1,19
 215 817 215 817 281 890.5 c 128,-1,20
 347 964 347 964 441 1007.5 c 128,-1,21
 535 1051 535 1051 655 1051 c 0,22,23
 772 1051 772 1051 850 1008.5 c 128,-1,24
 928 966 928 966 981 885 c 1,25,26
 983 902 983 902 986 926.5 c 128,-1,27
 989 951 989 951 991 973 c 0,28,29
 994 999 994 999 999 1026 c 1,30,-1
 1164 1026 l 1,31,32
 1158 978 1158 978 1153 931 c 0,33,34
 1148 891 1148 891 1144 848 c 128,-1,35
 1140 805 1140 805 1138 773 c 2,36,-1
 1088 147 l 2,37,38
 1083 79 1083 79 1069.5 10.5 c 128,-1,39
 1056 -58 1056 -58 1030 -121 c 128,-1,40
 1004 -184 1004 -184 963 -239 c 128,-1,41
 922 -294 922 -294 860 -334.5 c 128,-1,42
 798 -375 798 -375 713.5 -398.5 c 128,-1,43
 629 -422 629 -422 517 -422 c 0,44,45
 417 -422 417 -422 326 -402 c 128,-1,46
 235 -382 235 -382 155 -340 c 1,47,-1
 186 -187 l 1,0,1
955 550 m 0,48,49
 961 626 961 626 944.5 693 c 128,-1,50
 928 760 928 760 890 809.5 c 128,-1,51
 852 859 852 859 795.5 888 c 128,-1,52
 739 917 739 917 665 917 c 0,53,54
 584 917 584 917 520 884.5 c 128,-1,55
 456 852 456 852 410 796.5 c 128,-1,56
 364 741 364 741 338 668 c 128,-1,57
 312 595 312 595 305 515 c 1,58,59
 299 428 299 428 310 358 c 128,-1,60
 321 288 321 288 355.5 238.5 c 128,-1,61
 390 189 390 189 449.5 162 c 128,-1,62
 509 135 509 135 600 135 c 0,63,64
 690 135 690 135 755 170.5 c 128,-1,65
 820 206 820 206 862 264 c 128,-1,66
 904 322 904 322 926.5 396.5 c 128,-1,67
 949 471 949 471 955 550 c 0,48,49
EndSplineSet
EndChar

StartChar: h
Encoding: 104 104 73
Width: 1217
Flags: W
LayerCount: 2
Fore
SplineSet
451 1492 m 1,0,-1
 404 890 l 1,1,2
 474 975 474 975 561 1013 c 128,-1,3
 648 1051 648 1051 762 1051 c 0,4,5
 874 1051 874 1051 943.5 1014.5 c 128,-1,6
 1013 978 1013 978 1051 919 c 128,-1,7
 1089 860 1089 860 1099.5 786 c 128,-1,8
 1110 712 1110 712 1104 636 c 2,9,-1
 1054 0 l 1,10,-1
 889 0 l 1,11,-1
 938 626 l 2,12,13
 943 690 943 690 935 743.5 c 128,-1,14
 927 797 927 797 900.5 835.5 c 128,-1,15
 874 874 874 874 826 895.5 c 128,-1,16
 778 917 778 917 705 917 c 0,17,18
 634 917 634 917 576.5 890.5 c 128,-1,19
 519 864 519 864 477.5 818.5 c 128,-1,20
 436 773 436 773 410.5 712.5 c 128,-1,21
 385 652 385 652 380 585 c 2,22,-1
 334 0 l 1,23,-1
 169 0 l 1,24,-1
 286 1492 l 1,25,-1
 451 1492 l 1,0,-1
EndSplineSet
EndChar

StartChar: i
Encoding: 105 105 74
Width: 503
Flags: W
LayerCount: 2
Fore
SplineSet
443 1462 m 1,0,-1
 431 1307 l 1,1,-1
 278 1307 l 1,2,-1
 290 1462 l 1,3,-1
 443 1462 l 1,0,-1
248 1026 m 1,4,-1
 413 1026 l 1,5,-1
 332 0 l 1,6,-1
 167 0 l 1,7,-1
 248 1026 l 1,4,-1
EndSplineSet
EndChar

StartChar: j
Encoding: 106 106 75
Width: 503
Flags: W
LayerCount: 2
Fore
SplineSet
442 1462 m 1,0,-1
 430 1307 l 1,1,-1
 277 1307 l 1,2,-1
 289 1462 l 1,3,-1
 442 1462 l 1,0,-1
-124 -273 m 1,4,5
 -97 -278 -97 -278 -77 -280.5 c 128,-1,6
 -57 -283 -57 -283 -41 -283 c 0,7,8
 56 -283 56 -283 110 -207.5 c 128,-1,9
 164 -132 164 -132 177 31 c 2,10,-1
 255 1026 l 1,11,-1
 420 1026 l 1,12,-1
 348 106 l 1,13,14
 345 50 345 50 336.5 -11.5 c 128,-1,15
 328 -73 328 -73 312.5 -132.5 c 128,-1,16
 297 -192 297 -192 271.5 -246 c 128,-1,17
 246 -300 246 -300 207.5 -340.5 c 128,-1,18
 169 -381 169 -381 114.5 -405 c 128,-1,19
 60 -429 60 -429 -13 -429 c 0,20,21
 -71 -429 -71 -429 -134 -416 c 1,22,-1
 -124 -273 l 1,4,5
EndSplineSet
EndChar

StartChar: k
Encoding: 107 107 76
Width: 1082
Flags: W
LayerCount: 2
Fore
SplineSet
460 1492 m 1,0,-1
 389 587 l 1,1,-1
 890 1026 l 1,2,-1
 1115 1026 l 1,3,-1
 547 542 l 1,4,5
 677 407 677 407 809.5 271 c 128,-1,6
 942 135 942 135 1072 0 c 1,7,-1
 853 0 l 1,8,-1
 382 501 l 1,9,-1
 343 0 l 1,10,-1
 178 0 l 1,11,-1
 295 1492 l 1,12,-1
 460 1492 l 1,0,-1
EndSplineSet
EndChar

StartChar: l
Encoding: 108 108 77
Width: 503
Flags: W
LayerCount: 2
Fore
SplineSet
450 1492 m 1,0,-1
 333 0 l 1,1,-1
 168 0 l 1,2,-1
 285 1492 l 1,3,-1
 450 1492 l 1,0,-1
EndSplineSet
EndChar

StartChar: m
Encoding: 109 109 78
Width: 1901
Flags: W
LayerCount: 2
Fore
SplineSet
411 1026 m 1,0,-1
 404 888 l 1,1,2
 470 972 470 972 556 1011.5 c 128,-1,3
 642 1051 642 1051 748 1051 c 0,4,5
 806 1051 806 1051 856 1036.5 c 128,-1,6
 906 1022 906 1022 946.5 996 c 128,-1,7
 987 970 987 970 1016 932.5 c 128,-1,8
 1045 895 1045 895 1061 849 c 1,9,10
 1127 954 1127 954 1222 1002.5 c 128,-1,11
 1317 1051 1317 1051 1449 1051 c 0,12,13
 1558 1051 1558 1051 1626 1015.5 c 128,-1,14
 1694 980 1694 980 1731 922 c 128,-1,15
 1768 864 1768 864 1778.5 789.5 c 128,-1,16
 1789 715 1789 715 1783 636 c 2,17,-1
 1733 0 l 1,18,-1
 1568 0 l 1,19,-1
 1612 558 l 2,20,21
 1617 622 1617 622 1614.5 686 c 128,-1,22
 1612 750 1612 750 1590.5 801.5 c 128,-1,23
 1569 853 1569 853 1521.5 885 c 128,-1,24
 1474 917 1474 917 1389 917 c 0,25,26
 1322 917 1322 917 1267.5 889.5 c 128,-1,27
 1213 862 1213 862 1173 816 c 128,-1,28
 1133 770 1133 770 1109 710.5 c 128,-1,29
 1085 651 1085 651 1080 587 c 2,30,-1
 1034 0 l 1,31,-1
 869 0 l 1,32,-1
 919 635 l 2,33,34
 924 693 924 693 914 744.5 c 128,-1,35
 904 796 904 796 876.5 834 c 128,-1,36
 849 872 849 872 802.5 894.5 c 128,-1,37
 756 917 756 917 688 917 c 256,38,39
 620 917 620 917 565.5 890.5 c 128,-1,40
 511 864 511 864 471.5 819 c 128,-1,41
 432 774 432 774 408.5 714 c 128,-1,42
 385 654 385 654 380 587 c 2,43,-1
 334 0 l 1,44,-1
 169 0 l 1,45,-1
 229 761 l 2,46,47
 234 827 234 827 238 895 c 128,-1,48
 242 963 242 963 244 1026 c 1,49,-1
 411 1026 l 1,0,-1
EndSplineSet
EndChar

StartChar: n
Encoding: 110 110 79
Width: 1217
Flags: W
LayerCount: 2
Fore
SplineSet
333 0 m 1,0,-1
 168 0 l 1,1,-1
 229 779 l 2,2,3
 233 825 233 825 235.5 869.5 c 128,-1,4
 238 914 238 914 240 949 c 1,5,6
 241 989 241 989 243 1026 c 1,7,-1
 410 1026 l 1,8,-1
 403 884 l 1,9,10
 469 969 469 969 557 1010 c 128,-1,11
 645 1051 645 1051 760 1051 c 0,12,13
 872 1051 872 1051 942 1014 c 128,-1,14
 1012 977 1012 977 1049 910.5 c 128,-1,15
 1086 844 1086 844 1095.5 752 c 128,-1,16
 1105 660 1105 660 1096 550 c 2,17,-1
 1053 0 l 1,18,-1
 888 0 l 1,19,-1
 930 531 l 2,20,21
 937 618 937 618 935 689.5 c 128,-1,22
 933 761 933 761 912.5 811.5 c 128,-1,23
 892 862 892 862 846 889.5 c 128,-1,24
 800 917 800 917 719 917 c 0,25,26
 644 917 644 917 584 888 c 128,-1,27
 524 859 524 859 480.5 818 c 128,-1,28
 437 777 437 777 412 731.5 c 128,-1,29
 387 686 387 686 384 652 c 2,30,-1
 333 0 l 1,0,-1
EndSplineSet
EndChar

StartChar: o
Encoding: 111 111 80
Width: 1238
Flags: W
LayerCount: 2
Fore
SplineSet
702 1051 m 0,0,1
 831 1051 831 1051 925.5 1009 c 128,-1,2
 1020 967 1020 967 1079 894 c 128,-1,3
 1138 821 1138 821 1163.5 723 c 128,-1,4
 1189 625 1189 625 1180 513 c 0,5,6
 1171 405 1171 405 1129 307.5 c 128,-1,7
 1087 210 1087 210 1014.5 136.5 c 128,-1,8
 942 63 942 63 841 20 c 128,-1,9
 740 -23 740 -23 614 -23 c 0,10,11
 486 -23 486 -23 391 19 c 128,-1,12
 296 61 296 61 235.5 133 c 128,-1,13
 175 205 175 205 148 302.5 c 128,-1,14
 121 400 121 400 130 511 c 0,15,16
 138 622 138 622 181 720.5 c 128,-1,17
 224 819 224 819 297.5 892.5 c 128,-1,18
 371 966 371 966 472.5 1008.5 c 128,-1,19
 574 1051 574 1051 702 1051 c 0,0,1
1006 511 m 1,20,21
 1012 593 1012 593 997 667 c 128,-1,22
 982 741 982 741 943.5 796.5 c 128,-1,23
 905 852 905 852 841.5 884.5 c 128,-1,24
 778 917 778 917 688 917 c 0,25,26
 601 917 601 917 532 883.5 c 128,-1,27
 463 850 463 850 414.5 793.5 c 128,-1,28
 366 737 366 737 337.5 663 c 128,-1,29
 309 589 309 589 303 509 c 0,30,31
 296 429 296 429 313 357 c 128,-1,32
 330 285 330 285 370 229.5 c 128,-1,33
 410 174 410 174 474.5 141.5 c 128,-1,34
 539 109 539 109 628 109 c 0,35,36
 716 109 716 109 783.5 142 c 128,-1,37
 851 175 851 175 898.5 230.5 c 128,-1,38
 946 286 946 286 972.5 358.5 c 128,-1,39
 999 431 999 431 1006 511 c 1,20,21
EndSplineSet
EndChar

StartChar: p
Encoding: 112 112 81
Width: 1239
Flags: W
LayerCount: 2
Fore
SplineSet
289 -427 m 1,0,-1
 125 -427 l 1,1,-1
 218 758 l 2,2,3
 220 779 220 779 222 809.5 c 128,-1,4
 224 840 224 840 225.5 876 c 128,-1,5
 227 912 227 912 228.5 950.5 c 128,-1,6
 230 989 230 989 231 1026 c 1,7,-1
 398 1026 l 1,8,-1
 392 880 l 1,9,10
 462 965 462 965 553.5 1008 c 128,-1,11
 645 1051 645 1051 750 1051 c 0,12,13
 871 1051 871 1051 956.5 1009 c 128,-1,14
 1042 967 1042 967 1094 895.5 c 128,-1,15
 1146 824 1146 824 1167.5 729 c 128,-1,16
 1189 634 1189 634 1180 527 c 1,17,18
 1172 419 1172 419 1134.5 319.5 c 128,-1,19
 1097 220 1097 220 1032.5 144 c 128,-1,20
 968 68 968 68 876 22.5 c 128,-1,21
 784 -23 784 -23 666 -23 c 0,22,23
 450 -23 450 -23 333 135 c 1,24,-1
 289 -427 l 1,0,-1
361 494 m 0,25,26
 355 411 355 411 370.5 340.5 c 128,-1,27
 386 270 386 270 422.5 218.5 c 128,-1,28
 459 167 459 167 516.5 138 c 128,-1,29
 574 109 574 109 652 109 c 0,30,31
 736 109 736 109 799.5 143 c 128,-1,32
 863 177 863 177 906 234 c 128,-1,33
 949 291 949 291 973 365.5 c 128,-1,34
 997 440 997 440 1004 521 c 0,35,36
 1010 597 1010 597 999.5 668.5 c 128,-1,37
 989 740 989 740 957 795.5 c 128,-1,38
 925 851 925 851 867.5 884 c 128,-1,39
 810 917 810 917 722 917 c 0,40,41
 630 917 630 917 564.5 882 c 128,-1,42
 499 847 499 847 456 788.5 c 128,-1,43
 413 730 413 730 390.5 653.5 c 128,-1,44
 368 577 368 577 361 494 c 0,25,26
EndSplineSet
EndChar

StartChar: q
Encoding: 113 113 82
Width: 1240
Flags: W
LayerCount: 2
Fore
SplineSet
925 148 m 1,0,1
 852 60 852 60 755 18.5 c 128,-1,2
 658 -23 658 -23 543 -23 c 0,3,4
 431 -23 431 -23 350 18 c 128,-1,5
 269 59 269 59 217.5 130.5 c 128,-1,6
 166 202 166 202 145 298.5 c 128,-1,7
 124 395 124 395 133 506 c 0,8,9
 141 615 141 615 179 713.5 c 128,-1,10
 217 812 217 812 282 887 c 128,-1,11
 347 962 347 962 439.5 1006.5 c 128,-1,12
 532 1051 532 1051 650 1051 c 0,13,14
 762 1051 762 1051 847 1011 c 128,-1,15
 932 971 932 971 984 898 c 1,16,-1
 999 1026 l 1,17,-1
 1166 1026 l 1,18,19
 1157 968 1157 968 1151 910 c 128,-1,20
 1145 852 1145 852 1142 813 c 2,21,-1
 1044 -426 l 1,22,-1
 879 -426 l 1,23,-1
 925 148 l 1,0,1
956 543 m 1,24,25
 962 625 962 625 946 694 c 128,-1,26
 930 763 930 763 893.5 812.5 c 128,-1,27
 857 862 857 862 799 889.5 c 128,-1,28
 741 917 741 917 665 917 c 0,29,30
 581 917 581 917 516.5 884.5 c 128,-1,31
 452 852 452 852 407.5 796.5 c 128,-1,32
 363 741 363 741 337.5 666 c 128,-1,33
 312 591 312 591 306 507 c 0,34,35
 300 427 300 427 312 354.5 c 128,-1,36
 324 282 324 282 358 227.5 c 128,-1,37
 392 173 392 173 449 141 c 128,-1,38
 506 109 506 109 590 109 c 0,39,40
 686 109 686 109 752.5 146.5 c 128,-1,41
 819 184 819 184 862.5 245.5 c 128,-1,42
 906 307 906 307 927.5 384.5 c 128,-1,43
 949 462 949 462 956 543 c 1,24,25
EndSplineSet
EndChar

StartChar: r
Encoding: 114 114 83
Width: 737
Flags: W
LayerCount: 2
Fore
SplineSet
332 0 m 1,0,-1
 167 0 l 1,1,-1
 228 779 l 2,2,3
 233 842 233 842 236 905 c 128,-1,4
 239 968 239 968 242 1026 c 1,5,-1
 407 1026 l 1,6,-1
 401 871 l 1,7,8
 449 956 449 956 525 1003 c 128,-1,9
 601 1050 601 1050 689 1050 c 0,10,11
 747 1050 747 1050 796 1038 c 1,12,-1
 785 883 l 1,13,14
 765 894 765 894 735.5 900.5 c 128,-1,15
 706 907 706 907 672 907 c 0,16,17
 612 907 612 907 560.5 883.5 c 128,-1,18
 509 860 509 860 470.5 816 c 128,-1,19
 432 772 432 772 407.5 709 c 128,-1,20
 383 646 383 646 377 568 c 2,21,-1
 332 0 l 1,0,-1
EndSplineSet
EndChar

StartChar: s
Encoding: 115 115 84
Width: 1007
Flags: W
LayerCount: 2
Fore
SplineSet
856 847 m 1,0,1
 805 884 805 884 730.5 900.5 c 128,-1,2
 656 917 656 917 574 917 c 0,3,4
 528 917 528 917 488 907 c 128,-1,5
 448 897 448 897 418 878.5 c 128,-1,6
 388 860 388 860 369.5 833.5 c 128,-1,7
 351 807 351 807 349 774 c 0,8,9
 346 739 346 739 361 714 c 128,-1,10
 376 689 376 689 403.5 670.5 c 128,-1,11
 431 652 431 652 469 637.5 c 128,-1,12
 507 623 507 623 550 610 c 0,13,14
 589 598 589 598 633.5 585 c 128,-1,15
 678 572 678 572 721.5 554.5 c 128,-1,16
 765 537 765 537 804 513.5 c 128,-1,17
 843 490 843 490 872 458 c 128,-1,18
 901 426 901 426 916 383 c 128,-1,19
 931 340 931 340 927 284 c 0,20,21
 921 206 921 206 880.5 148.5 c 128,-1,22
 840 91 840 91 778 53 c 128,-1,23
 716 15 716 15 638.5 -4 c 128,-1,24
 561 -23 561 -23 481 -23 c 0,25,26
 428 -23 428 -23 376.5 -17 c 128,-1,27
 325 -11 325 -11 278.5 3 c 128,-1,28
 232 17 232 17 193 39 c 128,-1,29
 154 61 154 61 128 94 c 1,30,-1
 183 229 l 1,31,32
 207 197 207 197 241 174 c 128,-1,33
 275 151 275 151 315.5 136.5 c 128,-1,34
 356 122 356 122 399.5 115.5 c 128,-1,35
 443 109 443 109 485 109 c 0,36,37
 541 109 541 109 589 119.5 c 128,-1,38
 637 130 637 130 673 150.5 c 128,-1,39
 709 171 709 171 731 201.5 c 128,-1,40
 753 232 753 232 756 272 c 0,41,42
 760 318 760 318 740 346.5 c 128,-1,43
 720 375 720 375 682.5 395.5 c 128,-1,44
 645 416 645 416 592.5 431.5 c 128,-1,45
 540 447 540 447 478 467 c 0,46,47
 405 491 405 491 346.5 517.5 c 128,-1,48
 288 544 288 544 249 579 c 128,-1,49
 210 614 210 614 191 660.5 c 128,-1,50
 172 707 172 707 177 771 c 0,51,52
 183 842 183 842 219.5 895 c 128,-1,53
 256 948 256 948 312 982.5 c 128,-1,54
 368 1017 368 1017 436.5 1034 c 128,-1,55
 505 1051 505 1051 575 1051 c 0,56,57
 678 1051 678 1051 764 1031.5 c 128,-1,58
 850 1012 850 1012 907 964 c 1,59,-1
 856 847 l 1,0,1
EndSplineSet
EndChar

StartChar: t
Encoding: 116 116 85
Width: 729
Flags: W
LayerCount: 2
Fore
SplineSet
315 919 m 1,0,-1
 112 919 l 1,1,-1
 120 1026 l 1,2,-1
 323 1026 l 1,3,-1
 350 1298 l 1,4,-1
 514 1345 l 1,5,-1
 488 1026 l 1,6,-1
 744 1026 l 1,7,-1
 736 919 l 1,8,-1
 480 919 l 1,9,-1
 432 306 l 2,10,11
 429 272 429 272 428 236.5 c 128,-1,12
 427 201 427 201 436.5 171.5 c 128,-1,13
 446 142 446 142 468.5 123.5 c 128,-1,14
 491 105 491 105 535 105 c 0,15,16
 567 105 567 105 602.5 113.5 c 128,-1,17
 638 122 638 122 681 137 c 1,18,-1
 671 14 l 1,19,20
 634 -6 634 -6 592.5 -14.5 c 128,-1,21
 551 -23 551 -23 499 -23 c 0,22,23
 415 -23 415 -23 366.5 5.5 c 128,-1,24
 318 34 318 34 294.5 82 c 128,-1,25
 271 130 271 130 267 194 c 128,-1,26
 263 258 263 258 269 329 c 2,27,-1
 315 919 l 1,0,-1
EndSplineSet
EndChar

StartChar: u
Encoding: 117 117 86
Width: 1217
Flags: W
LayerCount: 2
Fore
SplineSet
958 1026 m 1,0,-1
 1123 1026 l 1,1,-1
 1062 246 l 2,2,3
 1057 180 1057 180 1053.5 121.5 c 128,-1,4
 1050 63 1050 63 1051 0 c 1,5,-1
 881 0 l 1,6,-1
 888 135 l 1,7,8
 760 -23 760 -23 538 -23 c 0,9,10
 462 -23 462 -23 405 -5.5 c 128,-1,11
 348 12 348 12 308 42 c 128,-1,12
 268 72 268 72 243 113 c 128,-1,13
 218 154 218 154 204.5 201 c 128,-1,14
 191 248 191 248 187.5 298.5 c 128,-1,15
 184 349 184 349 188 399 c 2,16,-1
 237 1026 l 1,17,-1
 402 1026 l 1,18,-1
 353 399 l 2,19,20
 341 256 341 256 397 182.5 c 128,-1,21
 453 109 453 109 586 109 c 0,22,23
 658 109 658 109 715.5 135 c 128,-1,24
 773 161 773 161 815 206 c 128,-1,25
 857 251 857 251 882 310.5 c 128,-1,26
 907 370 907 370 912 436 c 2,27,-1
 958 1026 l 1,0,-1
EndSplineSet
EndChar

StartChar: v
Encoding: 118 118 87
Width: 1063
Flags: W
LayerCount: 2
Fore
SplineSet
95 1026 m 1,0,-1
 277 1026 l 1,1,-1
 504 336 l 2,2,3
 509 319 509 319 517 290.5 c 128,-1,4
 525 262 525 262 532 233 c 0,5,6
 540 200 540 200 548 163 c 1,7,8
 561 199 561 199 575 232 c 0,9,10
 586 260 586 260 597 289 c 128,-1,11
 608 318 608 318 618 336 c 1,12,-1
 948 1026 l 1,13,-1
 1125 1026 l 1,14,-1
 611 0 l 1,15,-1
 443 0 l 1,16,-1
 95 1026 l 1,0,-1
EndSplineSet
EndChar

StartChar: w
Encoding: 119 119 88
Width: 1695
Flags: W
LayerCount: 2
Fore
SplineSet
282 1026 m 1,0,-1
 473 284 l 2,1,2
 476 272 476 272 479 255.5 c 128,-1,3
 482 239 482 239 486 223 c 1,4,5
 489 205 489 205 494 186 c 1,6,7
 501 202 501 202 507 219 c 1,8,9
 514 233 514 233 520 248.5 c 128,-1,10
 526 264 526 264 532 276 c 2,11,-1
 856 1026 l 1,12,-1
 1022 1026 l 1,13,-1
 1212 286 l 2,14,15
 1215 274 1215 274 1218 257.5 c 128,-1,16
 1221 241 1221 241 1225 226 c 0,17,18
 1229 208 1229 208 1233 189 c 1,19,20
 1242 207 1242 207 1249 225 c 0,21,22
 1255 240 1255 240 1262 256.5 c 128,-1,23
 1269 273 1269 273 1275 287 c 2,24,-1
 1573 1026 l 1,25,-1
 1742 1026 l 1,26,-1
 1293 0 l 1,27,-1
 1133 0 l 1,28,-1
 918 831 l 1,29,-1
 552 0 l 1,30,-1
 390 0 l 1,31,-1
 106 1026 l 1,32,-1
 282 1026 l 1,0,-1
EndSplineSet
EndChar

StartChar: x
Encoding: 120 120 89
Width: 1043
Flags: W
LayerCount: 2
Fore
SplineSet
460 514 m 1,0,-1
 120 1026 l 1,1,-1
 323 1026 l 1,2,-1
 574 614 l 1,3,-1
 900 1026 l 1,4,-1
 1079 1026 l 1,5,-1
 661 518 l 1,6,-1
 1011 0 l 1,7,-1
 810 0 l 1,8,-1
 544 418 l 1,9,-1
 210 0 l 1,10,-1
 20 0 l 1,11,-1
 460 514 l 1,0,-1
EndSplineSet
EndChar

StartChar: y
Encoding: 121 121 90
Width: 1069
Flags: W
LayerCount: 2
Fore
SplineSet
97 1026 m 1,0,-1
 278 1026 l 1,1,-1
 543 171 l 1,2,-1
 951 1026 l 1,3,-1
 1126 1026 l 1,4,-1
 586 -72 l 2,5,6
 554 -138 554 -138 511.5 -197 c 128,-1,7
 469 -256 469 -256 416 -302.5 c 128,-1,8
 363 -349 363 -349 301 -381.5 c 128,-1,9
 239 -414 239 -414 167 -427 c 1,10,-1
 84 -314 l 1,11,12
 170 -292 170 -292 227.5 -260 c 128,-1,13
 285 -228 285 -228 322.5 -192 c 128,-1,14
 360 -156 360 -156 382.5 -117.5 c 128,-1,15
 405 -79 405 -79 421 -43 c 2,16,-1
 442 6 l 1,17,-1
 97 1026 l 1,0,-1
EndSplineSet
EndChar

StartChar: z
Encoding: 122 122 91
Width: 958
Flags: W
LayerCount: 2
Fore
SplineSet
65 89 m 1,0,-1
 728 891 l 1,1,-1
 154 891 l 1,2,-1
 165 1026 l 1,3,-1
 962 1026 l 1,4,-1
 955 939 l 1,5,-1
 294 134 l 1,6,-1
 907 134 l 1,7,-1
 898 0 l 1,8,-1
 58 0 l 1,9,-1
 65 89 l 1,0,-1
EndSplineSet
EndChar

StartChar: braceleft
Encoding: 123 123 92
Width: 627
Flags: W
LayerCount: 2
Fore
SplineSet
546 -259 m 1,0,1
 476 -256 476 -256 418 -240.5 c 128,-1,2
 360 -225 360 -225 319 -193 c 128,-1,3
 278 -161 278 -161 258 -111 c 128,-1,4
 238 -61 238 -61 244 11 c 2,5,-1
 266 274 l 2,6,7
 269 320 269 320 269.5 364.5 c 128,-1,8
 270 409 270 409 258 444.5 c 128,-1,9
 246 480 246 480 216 504 c 128,-1,10
 186 528 186 528 128 534 c 1,11,-1
 137 656 l 1,12,13
 181 660 181 660 213.5 678.5 c 128,-1,14
 246 697 246 697 267.5 727 c 128,-1,15
 289 757 289 757 301 798.5 c 128,-1,16
 313 840 313 840 317 890 c 1,17,18
 320 953 320 953 325 1016.5 c 128,-1,19
 330 1080 330 1080 333 1143 c 1,20,21
 339 1216 339 1216 360.5 1273 c 128,-1,22
 382 1330 382 1330 423 1369.5 c 128,-1,23
 464 1409 464 1409 527.5 1430 c 128,-1,24
 591 1451 591 1451 680 1451 c 1,25,-1
 670 1325 l 1,26,27
 631 1324 631 1324 601 1315.5 c 128,-1,28
 571 1307 571 1307 550 1287.5 c 128,-1,29
 529 1268 529 1268 516.5 1236.5 c 128,-1,30
 504 1205 504 1205 500 1157 c 2,31,-1
 476 868 l 2,32,33
 472 809 472 809 454 763.5 c 128,-1,34
 436 718 436 718 413 684.5 c 128,-1,35
 390 651 390 651 364 629 c 128,-1,36
 338 607 338 607 315 595 c 1,37,38
 356 575 356 575 380 543.5 c 128,-1,39
 404 512 404 512 416 474.5 c 128,-1,40
 428 437 428 437 430.5 398 c 128,-1,41
 433 359 433 359 431 325 c 0,42,43
 427 276 427 276 421 217 c 128,-1,44
 415 158 415 158 411 107 c 0,45,46
 406 37 406 37 410.5 -9.5 c 128,-1,47
 415 -56 415 -56 431 -83.5 c 128,-1,48
 447 -111 447 -111 478 -122 c 128,-1,49
 509 -133 509 -133 556 -133 c 1,50,-1
 546 -259 l 1,0,1
EndSplineSet
EndChar

StartChar: bar
Encoding: 124 124 93
Width: 500
Flags: W
LayerCount: 2
Fore
SplineSet
129 -491 m 1,0,-1
 289 1545 l 1,1,-1
 446 1545 l 1,2,-1
 286 -491 l 1,3,-1
 129 -491 l 1,0,-1
EndSplineSet
EndChar

StartChar: braceright
Encoding: 125 125 94
Width: 627
Flags: W
LayerCount: 2
Fore
SplineSet
56 -133 m 1,0,1
 103 -133 103 -133 135.5 -122 c 128,-1,2
 168 -111 168 -111 188.5 -83.5 c 128,-1,3
 209 -56 209 -56 220.5 -9.5 c 128,-1,4
 232 37 232 37 238 107 c 0,5,6
 242 158 242 158 245.5 217 c 128,-1,7
 249 276 249 276 253 325 c 0,8,9
 256 359 256 359 264.5 398 c 128,-1,10
 273 437 273 437 291 474.5 c 128,-1,11
 309 512 309 512 338 543.5 c 128,-1,12
 367 575 367 575 411 595 c 1,13,14
 390 607 390 607 367.5 629 c 128,-1,15
 345 651 345 651 327 684.5 c 128,-1,16
 309 718 309 718 298.5 763.5 c 128,-1,17
 288 809 288 809 293 868 c 2,18,-1
 314 1157 l 2,19,20
 318 1205 318 1205 310.5 1236.5 c 128,-1,21
 303 1268 303 1268 285 1287.5 c 128,-1,22
 267 1307 267 1307 238.5 1315.5 c 128,-1,23
 210 1324 210 1324 171 1325 c 1,24,-1
 181 1451 l 1,25,26
 270 1451 270 1451 329.5 1430 c 128,-1,27
 389 1409 389 1409 424.5 1369.5 c 128,-1,28
 460 1330 460 1330 472.5 1273 c 128,-1,29
 485 1216 485 1216 479 1143 c 1,30,31
 472 1080 472 1080 467 1016.5 c 128,-1,32
 462 953 462 953 455 890 c 1,33,34
 451 840 451 840 457 798.5 c 128,-1,35
 463 757 463 757 479.5 727 c 128,-1,36
 496 697 496 697 525.5 678.5 c 128,-1,37
 555 660 555 660 599 656 c 1,38,-1
 588 534 l 1,39,40
 530 528 530 528 496 504 c 128,-1,41
 462 480 462 480 444.5 444.5 c 128,-1,42
 427 409 427 409 420.5 364.5 c 128,-1,43
 414 320 414 320 410 274 c 2,44,-1
 390 11 l 2,45,46
 385 -61 385 -61 357 -111 c 128,-1,47
 329 -161 329 -161 283 -193 c 128,-1,48
 237 -225 237 -225 176.5 -240.5 c 128,-1,49
 116 -256 116 -256 46 -259 c 1,50,-1
 56 -133 l 1,0,1
EndSplineSet
EndChar

StartChar: asciitilde
Encoding: 126 126 95
Width: 1458
Flags: W
LayerCount: 2
Fore
SplineSet
547 705 m 0,0,1
 585 705 585 705 626.5 693 c 128,-1,2
 668 681 668 681 710.5 663.5 c 128,-1,3
 753 646 753 646 794.5 625 c 128,-1,4
 836 604 836 604 874 586.5 c 128,-1,5
 912 569 912 569 944 557 c 128,-1,6
 976 545 976 545 1000 545 c 0,7,8
 1033 545 1033 545 1062.5 560 c 128,-1,9
 1092 575 1092 575 1116.5 600 c 128,-1,10
 1141 625 1141 625 1159.5 657 c 128,-1,11
 1178 689 1178 689 1188 723 c 1,12,-1
 1310 684 l 1,13,14
 1291 624 1291 624 1261.5 574 c 128,-1,15
 1232 524 1232 524 1191 487.5 c 128,-1,16
 1150 451 1150 451 1099 430.5 c 128,-1,17
 1048 410 1048 410 989 410 c 0,18,19
 959 410 959 410 922.5 422 c 128,-1,20
 886 434 886 434 846.5 452 c 128,-1,21
 807 470 807 470 766 490.5 c 128,-1,22
 725 511 725 511 685 529 c 128,-1,23
 645 547 645 547 607.5 559 c 128,-1,24
 570 571 570 571 539 571 c 0,25,26
 500 571 500 571 468 555 c 128,-1,27
 436 539 436 539 410 513 c 128,-1,28
 384 487 384 487 364.5 453.5 c 128,-1,29
 345 420 345 420 335 385 c 1,30,-1
 224 440 l 1,31,32
 239 492 239 492 268 539.5 c 128,-1,33
 297 587 297 587 337.5 624 c 128,-1,34
 378 661 378 661 431 683 c 128,-1,35
 484 705 484 705 547 705 c 0,0,1
EndSplineSet
EndChar

StartChar: dieresis
Encoding: 168 168 97
Width: 743
Flags: W
LayerCount: 2
Fore
SplineSet
383 1246 m 1,0,-1
 220 1246 l 1,1,-1
 233 1409 l 1,2,-1
 397 1409 l 1,3,-1
 383 1246 l 1,0,-1
716 1246 m 1,4,-1
 552 1246 l 1,5,-1
 565 1409 l 1,6,-1
 729 1409 l 1,7,-1
 716 1246 l 1,4,-1
EndSplineSet
EndChar

StartChar: ring
Encoding: 730 730 99
Width: 605
Flags: W
LayerCount: 2
Fore
SplineSet
515 1340 m 0,0,1
 517 1362 517 1362 510 1381 c 128,-1,2
 503 1400 503 1400 489 1414 c 128,-1,3
 475 1428 475 1428 455 1436.5 c 128,-1,4
 435 1445 435 1445 412 1445 c 0,5,6
 390 1445 390 1445 369.5 1436.5 c 128,-1,7
 349 1428 349 1428 333 1414 c 128,-1,8
 317 1400 317 1400 306.5 1380.5 c 128,-1,9
 296 1361 296 1361 294 1340 c 0,10,11
 291 1294 291 1294 318 1264.5 c 128,-1,12
 345 1235 345 1235 396 1235 c 0,13,14
 418 1235 418 1235 438.5 1243.5 c 128,-1,15
 459 1252 459 1252 476 1266 c 128,-1,16
 493 1280 493 1280 503.5 1299.5 c 128,-1,17
 514 1319 514 1319 515 1340 c 0,0,1
195 1339 m 0,18,19
 198 1380 198 1380 217.5 1415 c 128,-1,20
 237 1450 237 1450 267.5 1475.5 c 128,-1,21
 298 1501 298 1501 337.5 1515.5 c 128,-1,22
 377 1530 377 1530 420 1530 c 0,23,24
 464 1530 464 1530 501.5 1515 c 128,-1,25
 539 1500 539 1500 565.5 1474.5 c 128,-1,26
 592 1449 592 1449 605 1414 c 128,-1,27
 618 1379 618 1379 615 1340 c 0,28,29
 612 1300 612 1300 592.5 1265.5 c 128,-1,30
 573 1231 573 1231 542.5 1205 c 128,-1,31
 512 1179 512 1179 472.5 1164 c 128,-1,32
 433 1149 433 1149 391 1149 c 0,33,34
 347 1149 347 1149 309.5 1163.5 c 128,-1,35
 272 1178 272 1178 245.5 1203.5 c 128,-1,36
 219 1229 219 1229 205.5 1264 c 128,-1,37
 192 1299 192 1299 195 1339 c 0,18,19
EndSplineSet
EndChar

StartChar: cedilla
Encoding: 184 184 101
Width: 529
Flags: W
LayerCount: 2
Fore
SplineSet
38 -289 m 1,0,1
 81 -300 81 -300 118.5 -306.5 c 128,-1,2
 156 -313 156 -313 187 -313 c 0,3,4
 250 -313 250 -313 277 -293 c 128,-1,5
 304 -273 304 -273 306 -241 c 1,6,7
 310 -200 310 -200 280.5 -184 c 128,-1,8
 251 -168 251 -168 203 -168 c 0,9,10
 200 -168 200 -168 189 -169 c 128,-1,11
 178 -170 178 -170 166 -171 c 2,12,-1
 134 -173 l 1,13,-1
 182 17 l 1,14,-1
 279 17 l 1,15,-1
 252 -90 l 1,16,17
 294 -91 294 -91 331.5 -99.5 c 128,-1,18
 369 -108 369 -108 396 -126 c 128,-1,19
 423 -144 423 -144 438 -171.5 c 128,-1,20
 453 -199 453 -199 450 -239 c 0,21,22
 446 -279 446 -279 425.5 -308.5 c 128,-1,23
 405 -338 405 -338 371 -357.5 c 128,-1,24
 337 -377 337 -377 292 -386.5 c 128,-1,25
 247 -396 247 -396 196 -396 c 0,26,27
 157 -396 157 -396 112.5 -389.5 c 128,-1,28
 68 -383 68 -383 23 -374 c 1,29,-1
 38 -289 l 1,0,1
EndSplineSet
EndChar

StartChar: acute
Encoding: 180 180 103
Width: 607
Flags: W
LayerCount: 2
Fore
SplineSet
518 1492 m 1,0,-1
 730 1492 l 1,1,-1
 397 1172 l 1,2,-1
 267 1172 l 1,3,-1
 518 1492 l 1,0,-1
EndSplineSet
EndChar

StartChar: tilde
Encoding: 732 732 105
Width: 663
Flags: W
LayerCount: 2
Fore
SplineSet
771 1435 m 1,0,1
 763 1390 763 1390 745.5 1351 c 128,-1,2
 728 1312 728 1312 700.5 1282.5 c 128,-1,3
 673 1253 673 1253 637.5 1236.5 c 128,-1,4
 602 1220 602 1220 559 1220 c 0,5,6
 529 1220 529 1220 497.5 1230.5 c 128,-1,7
 466 1241 466 1241 434 1254 c 128,-1,8
 402 1267 402 1267 371 1277.5 c 128,-1,9
 340 1288 340 1288 312 1288 c 0,10,11
 231 1288 231 1288 214 1203 c 1,12,-1
 109 1203 l 1,13,14
 117 1250 117 1250 136 1288.5 c 128,-1,15
 155 1327 155 1327 182.5 1355 c 128,-1,16
 210 1383 210 1383 246.5 1398 c 128,-1,17
 283 1413 283 1413 325 1413 c 0,18,19
 360 1413 360 1413 391.5 1402.5 c 128,-1,20
 423 1392 423 1392 453 1379 c 128,-1,21
 483 1366 483 1366 511.5 1355.5 c 128,-1,22
 540 1345 540 1345 569 1345 c 0,23,24
 603 1345 603 1345 628.5 1367.5 c 128,-1,25
 654 1390 654 1390 663 1435 c 1,26,-1
 771 1435 l 1,0,1
EndSplineSet
EndChar

StartChar: circumflex
Encoding: 710 710 111
Width: 699
Flags: W
LayerCount: 2
Fore
SplineSet
127 1170 m 1,0,-1
 380 1494 l 1,1,-1
 537 1494 l 1,2,-1
 741 1170 l 1,3,-1
 609 1170 l 1,4,-1
 448 1386 l 1,5,-1
 253 1170 l 1,6,-1
 127 1170 l 1,0,-1
EndSplineSet
EndChar

StartChar: dotlessi
Encoding: 305 305 121
Width: 503
Flags: W
LayerCount: 2
Fore
SplineSet
333 0 m 1,0,-1
 168 0 l 1,1,-1
 248 1026 l 1,2,-1
 413 1026 l 1,3,-1
 333 0 l 1,0,-1
EndSplineSet
EndChar

StartChar: dagger
Encoding: 8224 8224 135
Width: 1022
Flags: W
LayerCount: 2
Fore
SplineSet
507 934 m 1,0,-1
 181 934 l 1,1,-1
 191 1066 l 1,2,-1
 517 1066 l 1,3,-1
 548 1451 l 1,4,-1
 690 1451 l 1,5,-1
 659 1066 l 1,6,-1
 1003 1066 l 1,7,-1
 993 934 l 1,8,-1
 635 934 l 1,9,-1
 570 113 l 1,10,-1
 442 113 l 1,11,-1
 507 934 l 1,0,-1
EndSplineSet
EndChar

StartChar: degree
Encoding: 176 176 136
Width: 844
Flags: W
LayerCount: 2
Fore
SplineSet
519 1328 m 256,0,1
 480 1328 480 1328 443.5 1314.5 c 128,-1,2
 407 1301 407 1301 378.5 1277.5 c 128,-1,3
 350 1254 350 1254 332 1221.5 c 128,-1,4
 314 1189 314 1189 311 1151 c 256,5,6
 308 1113 308 1113 320.5 1080 c 128,-1,7
 333 1047 333 1047 357.5 1023 c 128,-1,8
 382 999 382 999 416 985 c 128,-1,9
 450 971 450 971 491 971 c 0,10,11
 531 971 531 971 567.5 985 c 128,-1,12
 604 999 604 999 632.5 1023 c 128,-1,13
 661 1047 661 1047 678.5 1080 c 128,-1,14
 696 1113 696 1113 699 1151 c 256,15,16
 702 1189 702 1189 689 1221.5 c 128,-1,17
 676 1254 676 1254 651.5 1277.5 c 128,-1,18
 627 1301 627 1301 592.5 1314.5 c 128,-1,19
 558 1328 558 1328 519 1328 c 256,0,1
482 855 m 0,20,21
 417 855 417 855 361 878.5 c 128,-1,22
 305 902 305 902 264.5 942 c 128,-1,23
 224 982 224 982 202.5 1035.5 c 128,-1,24
 181 1089 181 1089 186 1150 c 256,25,26
 191 1211 191 1211 220.5 1264.5 c 128,-1,27
 250 1318 250 1318 296.5 1358 c 128,-1,28
 343 1398 343 1398 403 1421 c 128,-1,29
 463 1444 463 1444 528 1444 c 256,30,31
 593 1444 593 1444 649 1421 c 128,-1,32
 705 1398 705 1398 745.5 1358 c 128,-1,33
 786 1318 786 1318 807.5 1264.5 c 128,-1,34
 829 1211 829 1211 824 1150 c 256,35,36
 819 1089 819 1089 789.5 1035.5 c 128,-1,37
 760 982 760 982 712.5 942 c 128,-1,38
 665 902 665 902 605.5 878.5 c 128,-1,39
 546 855 546 855 482 855 c 0,20,21
EndSplineSet
EndChar

StartChar: cent
Encoding: 162 162 137
Width: 1189
Flags: W
LayerCount: 2
Fore
SplineSet
1022 801 m 1,0,1
 990 846 990 846 942.5 873 c 128,-1,2
 895 900 895 900 839 911 c 1,3,-1
 726 109 l 1,4,5
 880 116 880 116 1014 225 c 1,6,-1
 1049 87 l 1,7,8
 976 33 976 33 892 7 c 128,-1,9
 808 -19 808 -19 707 -22 c 1,10,-1
 675 -255 l 1,11,-1
 546 -255 l 1,12,-1
 579 -15 l 1,13,14
 478 0 478 0 404.5 46.5 c 128,-1,15
 331 93 331 93 285.5 162 c 128,-1,16
 240 231 240 231 221 318.5 c 128,-1,17
 202 406 202 406 210 503 c 0,18,19
 218 611 218 611 257 708 c 128,-1,20
 296 805 296 805 362.5 878.5 c 128,-1,21
 429 952 429 952 521.5 998 c 128,-1,22
 614 1044 614 1044 729 1050 c 1,23,-1
 758 1261 l 1,24,-1
 888 1261 l 1,25,-1
 857 1044 l 1,26,27
 943 1031 943 1031 1006 996 c 128,-1,28
 1069 961 1069 961 1106 908 c 1,29,-1
 1022 801 l 1,0,1
383 508 m 0,30,31
 377 437 377 437 387 373.5 c 128,-1,32
 397 310 397 310 423 259.5 c 128,-1,33
 449 209 449 209 493 173.5 c 128,-1,34
 537 138 537 138 599 122 c 1,35,-1
 709 912 l 1,36,37
 639 901 639 901 581 865.5 c 128,-1,38
 523 830 523 830 481.5 776 c 128,-1,39
 440 722 440 722 414.5 653.5 c 128,-1,40
 389 585 389 585 383 508 c 0,30,31
EndSplineSet
EndChar

StartChar: sterling
Encoding: 163 163 138
Width: 1189
Flags: W
LayerCount: 2
Fore
SplineSet
1107 1237 m 1,0,1
 1057 1270 1057 1270 988.5 1288.5 c 128,-1,2
 920 1307 920 1307 839 1307 c 0,3,4
 763 1307 763 1307 709 1281 c 128,-1,5
 655 1255 655 1255 618.5 1208 c 128,-1,6
 582 1161 582 1161 563 1094.5 c 128,-1,7
 544 1028 544 1028 538 947 c 1,8,-1
 531 832 l 1,9,-1
 861 832 l 1,10,-1
 852 690 l 1,11,-1
 522 690 l 1,12,13
 516 613 516 613 508 528.5 c 128,-1,14
 500 444 500 444 485 368 c 128,-1,15
 470 292 470 292 445 231.5 c 128,-1,16
 420 171 420 171 381 141 c 1,17,-1
 1090 141 l 1,18,-1
 1081 0 l 1,19,-1
 115 0 l 1,20,-1
 125 138 l 1,21,22
 160 158 160 158 195 182 c 128,-1,23
 230 206 230 206 259 240.5 c 128,-1,24
 288 275 288 275 307 323.5 c 128,-1,25
 326 372 326 372 332 440 c 2,26,-1
 351 690 l 1,27,-1
 170 690 l 1,28,-1
 179 832 l 1,29,-1
 361 832 l 1,30,31
 365 910 365 910 374.5 985.5 c 128,-1,32
 384 1061 384 1061 404.5 1129.5 c 128,-1,33
 425 1198 425 1198 459.5 1256.5 c 128,-1,34
 494 1315 494 1315 547 1357.5 c 128,-1,35
 600 1400 600 1400 673.5 1424 c 128,-1,36
 747 1448 747 1448 847 1448 c 0,37,38
 953 1448 953 1448 1034 1424.5 c 128,-1,39
 1115 1401 1115 1401 1169 1357 c 1,40,-1
 1107 1237 l 1,0,1
EndSplineSet
EndChar

StartChar: section
Encoding: 167 167 139
Width: 1097
Flags: W
LayerCount: 2
Fore
SplineSet
936 1304 m 1,0,1
 913 1315 913 1315 885 1324.5 c 128,-1,2
 857 1334 857 1334 827 1341 c 128,-1,3
 797 1348 797 1348 767.5 1352 c 128,-1,4
 738 1356 738 1356 714 1356 c 0,5,6
 668 1356 668 1356 628.5 1348.5 c 128,-1,7
 589 1341 589 1341 559 1325 c 128,-1,8
 529 1309 529 1309 510.5 1283 c 128,-1,9
 492 1257 492 1257 489 1221 c 0,10,11
 486 1191 486 1191 495 1166.5 c 128,-1,12
 504 1142 504 1142 527 1118.5 c 128,-1,13
 550 1095 550 1095 590 1072 c 128,-1,14
 630 1049 630 1049 691 1022 c 0,15,16
 749 996 749 996 801.5 968.5 c 128,-1,17
 854 941 854 941 892 907 c 128,-1,18
 930 873 930 873 951.5 831.5 c 128,-1,19
 973 790 973 790 969 737 c 0,20,21
 965 695 965 695 947 658 c 128,-1,22
 929 621 929 621 901 589 c 128,-1,23
 873 557 873 557 836.5 529.5 c 128,-1,24
 800 502 800 502 762 480 c 1,25,26
 797 462 797 462 825.5 440 c 128,-1,27
 854 418 854 418 873 391 c 128,-1,28
 892 364 892 364 901.5 329.5 c 128,-1,29
 911 295 911 295 908 252 c 0,30,31
 902 180 902 180 864 124 c 128,-1,32
 826 68 826 68 767 29.5 c 128,-1,33
 708 -9 708 -9 633 -28.5 c 128,-1,34
 558 -48 558 -48 478 -48 c 0,35,36
 409 -48 409 -48 341 -35 c 128,-1,37
 273 -22 273 -22 212 4 c 1,38,-1
 222 153 l 1,39,40
 293 119 293 119 358.5 104 c 128,-1,41
 424 89 424 89 484 89 c 0,42,43
 540 89 540 89 585.5 101 c 128,-1,44
 631 113 631 113 663 133.5 c 128,-1,45
 695 154 695 154 713 182 c 128,-1,46
 731 210 731 210 734 243 c 0,47,48
 736 276 736 276 724 299.5 c 128,-1,49
 712 323 712 323 686.5 342 c 128,-1,50
 661 361 661 361 623.5 379 c 128,-1,51
 586 397 586 397 538 418 c 2,52,-1
 456 454 l 2,53,54
 352 500 352 500 293.5 567 c 128,-1,55
 235 634 235 634 242 729 c 0,56,57
 245 772 245 772 263.5 808.5 c 128,-1,58
 282 845 282 845 310.5 876 c 128,-1,59
 339 907 339 907 375 931.5 c 128,-1,60
 411 956 411 956 450 975 c 1,61,62
 416 997 416 997 389.5 1021.5 c 128,-1,63
 363 1046 363 1046 346 1075 c 128,-1,64
 329 1104 329 1104 321 1138.5 c 128,-1,65
 313 1173 313 1173 316 1217 c 0,66,67
 322 1286 322 1286 356 1338 c 128,-1,68
 390 1390 390 1390 445 1424.5 c 128,-1,69
 500 1459 500 1459 570.5 1476 c 128,-1,70
 641 1493 641 1493 720 1493 c 0,71,72
 784 1493 784 1493 836 1481.5 c 128,-1,73
 888 1470 888 1470 946 1452 c 1,74,-1
 936 1304 l 1,0,1
634 547 m 1,75,76
 659 562 659 562 686 580.5 c 128,-1,77
 713 599 713 599 735 620.5 c 128,-1,78
 757 642 757 642 772 667.5 c 128,-1,79
 787 693 787 693 790 723 c 1,80,81
 792 755 792 755 780.5 778.5 c 128,-1,82
 769 802 769 802 747 820.5 c 128,-1,83
 725 839 725 839 694 854 c 128,-1,84
 663 869 663 869 627 885 c 1,85,-1
 605 894 l 2,86,87
 595 898 595 898 585 902.5 c 128,-1,88
 575 907 575 907 566 912 c 1,89,90
 539 898 539 898 514.5 880.5 c 128,-1,91
 490 863 490 863 469 842 c 128,-1,92
 448 821 448 821 435 796 c 128,-1,93
 422 771 422 771 420 741 c 0,94,95
 417 704 417 704 431.5 677 c 128,-1,96
 446 650 446 650 474.5 628 c 128,-1,97
 503 606 503 606 543.5 587 c 128,-1,98
 584 568 584 568 634 547 c 1,75,76
EndSplineSet
EndChar

StartChar: bullet
Encoding: 8226 8226 140
Width: 989
Flags: W
LayerCount: 2
Fore
SplineSet
889 701 m 1,0,1
 883 636 883 636 851 579 c 128,-1,2
 819 522 819 522 769.5 478.5 c 128,-1,3
 720 435 720 435 656.5 410 c 128,-1,4
 593 385 593 385 524 385 c 0,5,6
 454 385 454 385 394 409.5 c 128,-1,7
 334 434 334 434 292 476.5 c 128,-1,8
 250 519 250 519 228.5 575 c 128,-1,9
 207 631 207 631 212 694 c 0,10,11
 217 758 217 758 249 815.5 c 128,-1,12
 281 873 281 873 331.5 916.5 c 128,-1,13
 382 960 382 960 446 985 c 128,-1,14
 510 1010 510 1010 578 1010 c 0,15,16
 647 1010 647 1010 706 985.5 c 128,-1,17
 765 961 765 961 807 919 c 128,-1,18
 849 877 849 877 871 820.5 c 128,-1,19
 893 764 893 764 889 701 c 1,0,1
EndSplineSet
EndChar

StartChar: paragraph
Encoding: 182 182 141
Width: 1214
Flags: W
LayerCount: 2
Fore
SplineSet
430 -148 m 1,0,-1
 504 786 l 1,1,2
 436 787 436 787 377 812 c 128,-1,3
 318 837 318 837 276 882 c 128,-1,4
 234 927 234 927 212 990 c 128,-1,5
 190 1053 190 1053 196 1130 c 0,6,7
 203 1224 203 1224 249.5 1286 c 128,-1,8
 296 1348 296 1348 370 1384.5 c 128,-1,9
 444 1421 444 1421 538.5 1436 c 128,-1,10
 633 1451 633 1451 737 1451 c 2,11,-1
 1123 1451 l 1,12,-1
 1114 1327 l 1,13,-1
 1027 1327 l 1,14,-1
 910 -148 l 1,15,-1
 781 -148 l 1,16,-1
 898 1327 l 1,17,-1
 690 1327 l 1,18,-1
 573 -148 l 1,19,-1
 430 -148 l 1,0,-1
EndSplineSet
EndChar

StartChar: germandbls
Encoding: 223 223 142
Width: 1257
Flags: W
LayerCount: 2
Fore
SplineSet
555 243 m 1,0,1
 609 174 609 174 673 141.5 c 128,-1,2
 737 109 737 109 797 109 c 0,3,4
 837 109 837 109 874 123 c 128,-1,5
 911 137 911 137 940 164 c 128,-1,6
 969 191 969 191 988 231 c 128,-1,7
 1007 271 1007 271 1011 322 c 0,8,9
 1017 398 1017 398 987.5 458 c 128,-1,10
 958 518 958 518 907 567.5 c 128,-1,11
 856 617 856 617 791 658 c 128,-1,12
 726 699 726 699 663 737 c 2,13,-1
 631 756 l 1,14,-1
 658 892 l 1,15,16
 706 913 706 913 751 943 c 128,-1,17
 796 973 796 973 831.5 1011.5 c 128,-1,18
 867 1050 867 1050 890 1095 c 128,-1,19
 913 1140 913 1140 917 1191 c 0,20,21
 920 1236 920 1236 907 1271 c 128,-1,22
 894 1306 894 1306 867.5 1331 c 128,-1,23
 841 1356 841 1356 801 1369 c 128,-1,24
 761 1382 761 1382 712 1382 c 0,25,26
 642 1382 642 1382 589 1354.5 c 128,-1,27
 536 1327 536 1327 500.5 1280.5 c 128,-1,28
 465 1234 465 1234 444.5 1171 c 128,-1,29
 424 1108 424 1108 419 1038 c 0,30,31
 414 973 414 973 407.5 889 c 128,-1,32
 401 805 401 805 394 711 c 128,-1,33
 387 617 387 617 380 518.5 c 128,-1,34
 373 420 373 420 365.5 326 c 128,-1,35
 358 232 358 232 352 148 c 128,-1,36
 346 64 346 64 341 0 c 1,37,-1
 176 0 l 1,38,-1
 258 1071 l 2,39,40
 265 1171 265 1171 300.5 1252 c 128,-1,41
 336 1333 336 1333 396 1390.5 c 128,-1,42
 456 1448 456 1448 538.5 1479.5 c 128,-1,43
 621 1511 621 1511 723 1511 c 0,44,45
 819 1511 819 1511 892.5 1486 c 128,-1,46
 966 1461 966 1461 1015 1417.5 c 128,-1,47
 1064 1374 1064 1374 1087 1316 c 128,-1,48
 1110 1258 1110 1258 1105 1192 c 0,49,50
 1100 1125 1100 1125 1063 1065.5 c 128,-1,51
 1026 1006 1026 1006 976.5 957.5 c 128,-1,52
 927 909 927 909 874 872 c 128,-1,53
 821 835 821 835 783 813 c 0,54,55
 776 809 776 809 775 806 c 0,56,57
 775 803 775 803 782 800 c 0,58,59
 859 769 859 769 936 730.5 c 128,-1,60
 1013 692 1013 692 1074.5 638 c 128,-1,61
 1136 584 1136 584 1172 512 c 128,-1,62
 1208 440 1208 440 1200 341 c 0,63,64
 1193 258 1193 258 1156 191 c 128,-1,65
 1119 124 1119 124 1061.5 76.5 c 128,-1,66
 1004 29 1004 29 933.5 3 c 128,-1,67
 863 -23 863 -23 790 -23 c 0,68,69
 704 -23 704 -23 622.5 15.5 c 128,-1,70
 541 54 541 54 482 138 c 1,71,-1
 555 243 l 1,0,1
EndSplineSet
EndChar

StartChar: registered
Encoding: 174 174 143
Width: 1829
Flags: W
LayerCount: 2
Fore
SplineSet
797 664 m 1,0,-1
 767 273 l 1,1,-1
 619 273 l 1,2,-1
 691 1192 l 1,3,-1
 964 1192 l 2,4,5
 1183 1192 1183 1192 1283.5 1125.5 c 128,-1,6
 1384 1059 1384 1059 1375 935 c 0,7,8
 1371 889 1371 889 1352 847 c 128,-1,9
 1333 805 1333 805 1298.5 771 c 128,-1,10
 1264 737 1264 737 1211.5 713.5 c 128,-1,11
 1159 690 1159 690 1090 681 c 1,12,13
 1116 655 1116 655 1141.5 619.5 c 128,-1,14
 1167 584 1167 584 1193 542 c 128,-1,15
 1219 500 1219 500 1245 453 c 128,-1,16
 1271 406 1271 406 1297 357 c 2,17,-1
 1342 273 l 1,18,-1
 1174 273 l 1,19,-1
 1067 485 l 2,20,21
 1034 551 1034 551 1001 596 c 128,-1,22
 968 641 968 641 934 664 c 1,23,-1
 797 664 l 1,0,-1
805 783 m 1,24,-1
 930 783 l 2,25,26
 994 783 994 783 1045.5 787 c 128,-1,27
 1097 791 1097 791 1134.5 805.5 c 128,-1,28
 1172 820 1172 820 1193.5 847 c 128,-1,29
 1215 874 1215 874 1218 920 c 0,30,31
 1222 970 1222 970 1209 1000 c 128,-1,32
 1196 1030 1196 1030 1163.5 1046 c 128,-1,33
 1131 1062 1131 1062 1076.5 1067 c 128,-1,34
 1022 1072 1022 1072 944 1072 c 2,35,-1
 826 1072 l 1,36,-1
 805 783 l 1,24,-1
920 85 m 0,37,38
 1016 85 1016 85 1105 107.5 c 128,-1,39
 1194 130 1194 130 1272.5 171 c 128,-1,40
 1351 212 1351 212 1417 270 c 128,-1,41
 1483 328 1483 328 1531.5 399 c 128,-1,42
 1580 470 1580 470 1610 552 c 128,-1,43
 1640 634 1640 634 1647 724 c 0,44,45
 1654 815 1654 815 1637 897.5 c 128,-1,46
 1620 980 1620 980 1581.5 1051.5 c 128,-1,47
 1543 1123 1543 1123 1486.5 1181 c 128,-1,48
 1430 1239 1430 1239 1357.5 1280 c 128,-1,49
 1285 1321 1285 1321 1199 1343.5 c 128,-1,50
 1113 1366 1113 1366 1017 1366 c 0,51,52
 874 1366 874 1366 746 1317 c 128,-1,53
 618 1268 618 1268 519.5 1181.5 c 128,-1,54
 421 1095 421 1095 359.5 978.5 c 128,-1,55
 298 862 298 862 287 727 c 0,56,57
 280 636 280 636 297 553.5 c 128,-1,58
 314 471 314 471 352.5 399.5 c 128,-1,59
 391 328 391 328 448 270 c 128,-1,60
 505 212 505 212 577.5 171 c 128,-1,61
 650 130 650 130 736.5 107.5 c 128,-1,62
 823 85 823 85 920 85 c 0,37,38
912 -32 m 0,63,64
 800 -32 800 -32 698 -4.5 c 128,-1,65
 596 23 596 23 510 72.5 c 128,-1,66
 424 122 424 122 355.5 191.5 c 128,-1,67
 287 261 287 261 241 345 c 128,-1,68
 195 429 195 429 173.5 525.5 c 128,-1,69
 152 622 152 622 160 726 c 256,70,71
 168 830 168 830 204.5 926 c 128,-1,72
 241 1022 241 1022 301 1106 c 128,-1,73
 361 1190 361 1190 440.5 1259.5 c 128,-1,74
 520 1329 520 1329 613 1378.5 c 128,-1,75
 706 1428 706 1428 810.5 1455.5 c 128,-1,76
 915 1483 915 1483 1025 1483 c 0,77,78
 1137 1483 1137 1483 1238 1455.5 c 128,-1,79
 1339 1428 1339 1428 1425 1378 c 128,-1,80
 1511 1328 1511 1328 1579.5 1258.5 c 128,-1,81
 1648 1189 1648 1189 1693.5 1104.5 c 128,-1,82
 1739 1020 1739 1020 1760.5 924 c 128,-1,83
 1782 828 1782 828 1774 725 c 0,84,85
 1766 621 1766 621 1729.5 525 c 128,-1,86
 1693 429 1693 429 1634 345 c 128,-1,87
 1575 261 1575 261 1496 191.5 c 128,-1,88
 1417 122 1417 122 1324 72.5 c 128,-1,89
 1231 23 1231 23 1126.5 -4.5 c 128,-1,90
 1022 -32 1022 -32 912 -32 c 0,63,64
EndSplineSet
EndChar

StartChar: copyright
Encoding: 169 169 144
Width: 1829
Flags: W
LayerCount: 2
Fore
SplineSet
1276 339 m 1,0,1
 1140 249 1140 249 960 249 c 0,2,3
 855 249 855 249 769.5 286.5 c 128,-1,4
 684 324 684 324 625.5 389 c 128,-1,5
 567 454 567 454 538.5 541.5 c 128,-1,6
 510 629 510 629 517 729 c 1,7,8
 526 833 526 833 567.5 921 c 128,-1,9
 609 1009 609 1009 678.5 1072.5 c 128,-1,10
 748 1136 748 1136 841.5 1172 c 128,-1,11
 935 1208 935 1208 1046 1208 c 0,12,13
 1218 1208 1218 1208 1332 1105 c 1,14,-1
 1292 985 l 1,15,16
 1189 1080 1189 1080 1029 1080 c 0,17,18
 952 1080 952 1080 889 1053 c 128,-1,19
 826 1026 826 1026 779 979 c 128,-1,20
 732 932 732 932 704 868.5 c 128,-1,21
 676 805 676 805 671 733 c 0,22,23
 665 659 665 659 683 595 c 128,-1,24
 701 531 701 531 742 483 c 128,-1,25
 783 435 783 435 848 407.5 c 128,-1,26
 913 380 913 380 1002 380 c 0,27,28
 1068 380 1068 380 1130 399 c 128,-1,29
 1192 418 1192 418 1246 460 c 1,30,-1
 1276 339 l 1,0,1
287 727 m 0,31,32
 280 636 280 636 297 553.5 c 128,-1,33
 314 471 314 471 352.5 399.5 c 128,-1,34
 391 328 391 328 448 270 c 128,-1,35
 505 212 505 212 577.5 171 c 128,-1,36
 650 130 650 130 736.5 107.5 c 128,-1,37
 823 85 823 85 920 85 c 0,38,39
 1064 85 1064 85 1191.5 134.5 c 128,-1,40
 1319 184 1319 184 1416.5 270 c 128,-1,41
 1514 356 1514 356 1575 472.5 c 128,-1,42
 1636 589 1636 589 1647 724 c 0,43,44
 1654 815 1654 815 1637 897.5 c 128,-1,45
 1620 980 1620 980 1581.5 1051.5 c 128,-1,46
 1543 1123 1543 1123 1486.5 1181 c 128,-1,47
 1430 1239 1430 1239 1357.5 1280 c 128,-1,48
 1285 1321 1285 1321 1199 1343.5 c 128,-1,49
 1113 1366 1113 1366 1017 1366 c 0,50,51
 874 1366 874 1366 746 1317 c 128,-1,52
 618 1268 618 1268 519.5 1182 c 128,-1,53
 421 1096 421 1096 359.5 979 c 128,-1,54
 298 862 298 862 287 727 c 0,31,32
912 -32 m 0,55,56
 800 -32 800 -32 698 -4.5 c 128,-1,57
 596 23 596 23 510 72.5 c 128,-1,58
 424 122 424 122 355.5 191.5 c 128,-1,59
 287 261 287 261 241 345 c 128,-1,60
 195 429 195 429 173.5 525.5 c 128,-1,61
 152 622 152 622 160 726 c 256,62,63
 168 830 168 830 204.5 926 c 128,-1,64
 241 1022 241 1022 301 1106 c 128,-1,65
 361 1190 361 1190 440.5 1259.5 c 128,-1,66
 520 1329 520 1329 613 1378.5 c 128,-1,67
 706 1428 706 1428 810.5 1455.5 c 128,-1,68
 915 1483 915 1483 1025 1483 c 0,69,70
 1137 1483 1137 1483 1238 1455.5 c 128,-1,71
 1339 1428 1339 1428 1425 1378 c 128,-1,72
 1511 1328 1511 1328 1579.5 1258.5 c 128,-1,73
 1648 1189 1648 1189 1693.5 1104.5 c 128,-1,74
 1739 1020 1739 1020 1760.5 924 c 128,-1,75
 1782 828 1782 828 1774 725 c 0,76,77
 1766 621 1766 621 1729.5 525 c 128,-1,78
 1693 429 1693 429 1634 345 c 128,-1,79
 1575 261 1575 261 1496 191.5 c 128,-1,80
 1417 122 1417 122 1324 72.5 c 128,-1,81
 1231 23 1231 23 1126.5 -4.5 c 128,-1,82
 1022 -32 1022 -32 912 -32 c 0,55,56
EndSplineSet
EndChar

StartChar: trademark
Encoding: 8482 8482 145
Width: 1869
Flags: W
LayerCount: 2
Fore
SplineSet
1123 1451 m 1,0,-1
 1316 900 l 1,1,-1
 1609 1451 l 1,2,-1
 1789 1451 l 1,3,-1
 1729 686 l 1,4,-1
 1607 686 l 1,5,-1
 1654 1281 l 1,6,-1
 1333 686 l 1,7,-1
 1253 686 l 1,8,-1
 1040 1280 l 1,9,-1
 994 686 l 1,10,-1
 873 686 l 1,11,-1
 933 1451 l 1,12,-1
 1123 1451 l 1,0,-1
822 1451 m 1,13,-1
 813 1350 l 1,14,-1
 553 1350 l 1,15,-1
 501 686 l 1,16,-1
 377 686 l 1,17,-1
 429 1350 l 1,18,-1
 176 1350 l 1,19,-1
 184 1451 l 1,20,-1
 822 1451 l 1,13,-1
EndSplineSet
EndChar

StartChar: notequal
Encoding: 8800 8800 146
Width: 1351
Flags: W
LayerCount: 2
Fore
SplineSet
1076 1105 m 1,0,-1
 929 849 l 1,1,-1
 1239 849 l 1,2,-1
 1240 728 l 1,3,-1
 862 728 l 1,4,-1
 691 445 l 1,5,-1
 1208 445 l 1,6,-1
 1208 325 l 1,7,-1
 623 325 l 1,8,-1
 461 46 l 1,9,-1
 340 64 l 1,10,-1
 489 325 l 1,11,-1
 196 325 l 1,12,-1
 196 445 l 1,13,-1
 559 445 l 1,14,-1
 729 728 l 1,15,-1
 228 728 l 1,16,-1
 227 849 l 1,17,-1
 795 849 l 1,18,-1
 953 1123 l 1,19,-1
 1076 1105 l 1,0,-1
EndSplineSet
EndChar

StartChar: AE
Encoding: 198 198 147
Width: 2028
Flags: W
LayerCount: 2
Fore
SplineSet
1047 1308 m 1,0,-1
 549 546 l 1,1,-1
 1097 546 l 1,2,-1
 1097 1308 l 1,3,-1
 1047 1308 l 1,0,-1
951 1456 m 1,4,-1
 1990 1456 l 1,5,-1
 1981 1308 l 1,6,-1
 1262 1308 l 1,7,-1
 1262 820 l 1,8,-1
 1899 820 l 1,9,-1
 1890 672 l 1,10,-1
 1269 672 l 1,11,-1
 1269 148 l 1,12,-1
 1910 148 l 1,13,-1
 1901 0 l 1,14,-1
 1104 0 l 1,15,-1
 1104 398 l 1,16,-1
 458 398 l 1,17,-1
 201 0 l 1,18,-1
 5 0 l 1,19,-1
 951 1456 l 1,4,-1
EndSplineSet
EndChar

StartChar: infinity
Encoding: 8734 8734 149
Width: 1724
Flags: W
LayerCount: 2
Fore
SplineSet
1530 618 m 0,0,1
 1534 661 1534 661 1520.5 699 c 128,-1,2
 1507 737 1507 737 1479.5 766 c 128,-1,3
 1452 795 1452 795 1412 812 c 128,-1,4
 1372 829 1372 829 1323 829 c 0,5,6
 1273 829 1273 829 1226 809 c 128,-1,7
 1179 789 1179 789 1135 756 c 128,-1,8
 1091 723 1091 723 1050.5 680.5 c 128,-1,9
 1010 638 1010 638 975 592 c 1,10,11
 1016 534 1016 534 1053 489.5 c 128,-1,12
 1090 445 1090 445 1127 415 c 128,-1,13
 1164 385 1164 385 1204.5 370 c 128,-1,14
 1245 355 1245 355 1291 355 c 0,15,16
 1347 355 1347 355 1390 375.5 c 128,-1,17
 1433 396 1433 396 1462.5 431 c 128,-1,18
 1492 466 1492 466 1509 514 c 128,-1,19
 1526 562 1526 562 1530 618 c 0,0,1
272 592 m 0,20,21
 269 547 269 547 282.5 504 c 128,-1,22
 296 461 296 461 324.5 428 c 128,-1,23
 353 395 353 395 395 375 c 128,-1,24
 437 355 437 355 491 355 c 0,25,26
 539 355 539 355 585 373.5 c 128,-1,27
 631 392 631 392 674.5 423.5 c 128,-1,28
 718 455 718 455 758 498 c 128,-1,29
 798 541 798 541 837 589 c 1,30,31
 806 640 806 640 772 683.5 c 128,-1,32
 738 727 738 727 699 759.5 c 128,-1,33
 660 792 660 792 615 810.5 c 128,-1,34
 570 829 570 829 518 829 c 0,35,36
 464 829 464 829 420.5 810 c 128,-1,37
 377 791 377 791 345.5 758.5 c 128,-1,38
 314 726 314 726 295 683 c 128,-1,39
 276 640 276 640 272 592 c 0,20,21
1668 595 m 0,40,41
 1661 515 1661 515 1626.5 449 c 128,-1,42
 1592 383 1592 383 1538.5 335.5 c 128,-1,43
 1485 288 1485 288 1417.5 262 c 128,-1,44
 1350 236 1350 236 1278 236 c 0,45,46
 1167 236 1167 236 1077 299 c 128,-1,47
 987 362 987 362 898 488 c 1,48,49
 851 433 851 433 802.5 386.5 c 128,-1,50
 754 340 754 340 701.5 306.5 c 128,-1,51
 649 273 649 273 593.5 254.5 c 128,-1,52
 538 236 538 236 478 236 c 0,53,54
 397 236 397 236 332.5 266 c 128,-1,55
 268 296 268 296 224 347.5 c 128,-1,56
 180 399 180 399 159 467.5 c 128,-1,57
 138 536 138 536 144 612 c 0,58,59
 149 681 149 681 183.5 741.5 c 128,-1,60
 218 802 218 802 271 847 c 128,-1,61
 324 892 324 892 391 918 c 128,-1,62
 458 944 458 944 529 944 c 0,63,64
 590 944 590 944 643.5 926 c 128,-1,65
 697 908 697 908 744.5 875 c 128,-1,66
 792 842 792 842 834.5 795.5 c 128,-1,67
 877 749 877 749 916 692 c 1,68,69
 963 747 963 747 1010.5 793.5 c 128,-1,70
 1058 840 1058 840 1109 873.5 c 128,-1,71
 1160 907 1160 907 1216.5 925.5 c 128,-1,72
 1273 944 1273 944 1336 944 c 0,73,74
 1418 944 1418 944 1482.5 918 c 128,-1,75
 1547 892 1547 892 1590 845.5 c 128,-1,76
 1633 799 1633 799 1653.5 735 c 128,-1,77
 1674 671 1674 671 1668 595 c 0,40,41
EndSplineSet
EndChar

StartChar: plusminus
Encoding: 177 177 150
Width: 1458
Flags: W
LayerCount: 2
Fore
SplineSet
200 0 m 1,0,-1
 211 138 l 1,1,-1
 1260 138 l 1,2,-1
 1249 0 l 1,3,-1
 200 0 l 1,0,-1
703 733 m 1,4,-1
 732 1107 l 1,5,-1
 881 1107 l 1,6,-1
 852 733 l 1,7,-1
 1303 733 l 1,8,-1
 1292 595 l 1,9,-1
 845 595 l 1,10,-1
 816 223 l 1,11,-1
 665 223 l 1,12,-1
 694 595 l 1,13,-1
 235 595 l 1,14,-1
 246 733 l 1,15,-1
 703 733 l 1,4,-1
EndSplineSet
EndChar

StartChar: lessequal
Encoding: 8804 8804 151
Width: 1351
Flags: W
LayerCount: 2
Fore
SplineSet
1176 9 m 1,0,-1
 162 9 l 1,1,-1
 172 131 l 1,2,-1
 1186 131 l 1,3,-1
 1176 9 l 1,0,-1
1163 216 m 1,4,-1
 250 666 l 1,5,-1
 256 747 l 1,6,-1
 1242 1219 l 1,7,-1
 1231 1079 l 1,8,-1
 426 709 l 1,9,-1
 428 710 l 1,10,-1
 1174 357 l 1,11,-1
 1163 216 l 1,4,-1
EndSplineSet
EndChar

StartChar: greaterequal
Encoding: 8805 8805 152
Width: 1350
Flags: W
LayerCount: 2
Fore
SplineSet
1172 9 m 1,0,-1
 162 9 l 1,1,-1
 172 131 l 1,2,-1
 1182 131 l 1,3,-1
 1172 9 l 1,0,-1
292 1221 m 1,4,-1
 1211 748 l 1,5,-1
 1205 668 l 1,6,-1
 209 218 l 1,7,-1
 221 359 l 1,8,-1
 1030 707 l 1,9,-1
 281 1081 l 1,10,-1
 292 1221 l 1,4,-1
EndSplineSet
EndChar

StartChar: yen
Encoding: 165 165 153
Width: 1189
Flags: W
LayerCount: 2
Fore
SplineSet
680 0 m 1,0,-1
 508 0 l 1,1,-1
 530 283 l 1,2,-1
 131 283 l 1,3,-1
 131 423 l 1,4,-1
 539 423 l 1,5,-1
 551 574 l 1,6,-1
 148 574 l 1,7,-1
 159 716 l 1,8,-1
 527 716 l 1,9,-1
 137 1420 l 1,10,-1
 342 1420 l 1,11,-1
 593 937 l 1,12,-1
 663 796 l 1,13,-1
 759 936 l 1,14,-1
 1084 1420 l 1,15,-1
 1270 1420 l 1,16,-1
 760 716 l 1,17,-1
 1124 716 l 1,18,-1
 1113 574 l 1,19,-1
 722 574 l 1,20,-1
 710 423 l 1,21,-1
 1104 423 l 1,22,-1
 1093 283 l 1,23,-1
 702 283 l 1,24,-1
 680 0 l 1,0,-1
EndSplineSet
EndChar

StartChar: partialdiff
Encoding: 8706 8706 154
Width: 1167
Flags: W
LayerCount: 2
Fore
SplineSet
504 111 m 0,0,1
 582 111 582 111 651.5 154 c 128,-1,2
 721 197 721 197 776.5 271 c 128,-1,3
 832 345 832 345 873.5 444 c 128,-1,4
 915 543 915 543 937 655 c 1,5,6
 925 697 925 697 902.5 736 c 128,-1,7
 880 775 880 775 847.5 804.5 c 128,-1,8
 815 834 815 834 772.5 851.5 c 128,-1,9
 730 869 730 869 678 869 c 0,10,11
 603 869 603 869 534.5 832.5 c 128,-1,12
 466 796 466 796 413 734 c 128,-1,13
 360 672 360 672 326 590 c 128,-1,14
 292 508 292 508 285 417 c 0,15,16
 280 348 280 348 292.5 291.5 c 128,-1,17
 305 235 305 235 333.5 195 c 128,-1,18
 362 155 362 155 405 133 c 128,-1,19
 448 111 448 111 504 111 c 0,0,1
394 1442 m 1,20,21
 457 1482 457 1482 539 1507.5 c 128,-1,22
 621 1533 621 1533 709 1533 c 0,23,24
 821 1533 821 1533 908 1492.5 c 128,-1,25
 995 1452 995 1452 1051 1368.5 c 128,-1,26
 1107 1285 1107 1285 1131 1156.5 c 128,-1,27
 1155 1028 1155 1028 1141 852 c 0,28,29
 1133 744 1133 744 1109 637 c 128,-1,30
 1085 530 1085 530 1045.5 432.5 c 128,-1,31
 1006 335 1006 335 951.5 251.5 c 128,-1,32
 897 168 897 168 827 107 c 128,-1,33
 757 46 757 46 672.5 11 c 128,-1,34
 588 -24 588 -24 490 -24 c 0,35,36
 389 -24 389 -24 315.5 10 c 128,-1,37
 242 44 242 44 195 104 c 128,-1,38
 148 164 148 164 128.5 245 c 128,-1,39
 109 326 109 326 116 420 c 0,40,41
 126 543 126 543 174 649.5 c 128,-1,42
 222 756 222 756 296 834 c 128,-1,43
 370 912 370 912 465 957 c 128,-1,44
 560 1002 560 1002 665 1002 c 0,45,46
 722 1002 722 1002 768.5 988.5 c 128,-1,47
 815 975 815 975 852 953 c 128,-1,48
 889 931 889 931 916.5 903 c 128,-1,49
 944 875 944 875 963 845 c 0,50,51
 964 842 964 842 968 836 c 1,52,53
 969 850 969 850 971.5 871.5 c 128,-1,54
 974 893 974 893 975 911 c 0,55,56
 984 1025 984 1025 967.5 1115.5 c 128,-1,57
 951 1206 951 1206 912.5 1269 c 128,-1,58
 874 1332 874 1332 814 1365.5 c 128,-1,59
 754 1399 754 1399 675 1399 c 0,60,61
 639 1399 639 1399 602 1391.5 c 128,-1,62
 565 1384 565 1384 528.5 1371 c 128,-1,63
 492 1358 492 1358 457.5 1340.5 c 128,-1,64
 423 1323 423 1323 394 1304 c 1,65,-1
 394 1442 l 1,20,21
EndSplineSet
EndChar

StartChar: summation
Encoding: 8721 8721 155
Width: 1264
Flags: W
LayerCount: 2
Fore
SplineSet
1194 -329 m 1,0,-1
 31 -329 l 1,1,-1
 38 -239 l 1,2,-1
 740 552 l 1,3,-1
 183 1328 l 1,4,-1
 191 1423 l 1,5,-1
 1287 1423 l 1,6,-1
 1276 1281 l 1,7,-1
 426 1281 l 1,8,-1
 467 1222 l 1,9,-1
 942 561 l 1,10,-1
 324 -122 l 1,11,-1
 280 -181 l 1,12,-1
 1206 -181 l 1,13,-1
 1194 -329 l 1,0,-1
EndSplineSet
EndChar

StartChar: product
Encoding: 8719 8719 156
Width: 1568
Flags: W
LayerCount: 2
Fore
SplineSet
1541 1278 m 1,0,-1
 1428 1278 l 1,1,-1
 1301 -329 l 1,2,-1
 1123 -329 l 1,3,-1
 1250 1278 l 1,4,-1
 527 1278 l 1,5,-1
 400 -329 l 1,6,-1
 225 -329 l 1,7,-1
 352 1278 l 1,8,-1
 227 1278 l 1,9,-1
 222 1423 l 1,10,-1
 1568 1423 l 1,11,-1
 1541 1278 l 1,0,-1
EndSplineSet
EndChar

StartChar: integral
Encoding: 8747 8747 157
Width: 702
Flags: W
LayerCount: 2
Fore
SplineSet
492 1255 m 2,0,1
 498 1336 498 1336 518.5 1405 c 128,-1,2
 539 1474 539 1474 577.5 1524 c 128,-1,3
 616 1574 616 1574 675.5 1602.5 c 128,-1,4
 735 1631 735 1631 820 1631 c 0,5,6
 841 1631 841 1631 858 1629.5 c 128,-1,7
 875 1628 875 1628 890 1625 c 128,-1,8
 905 1622 905 1622 921 1618 c 128,-1,9
 937 1614 937 1614 954 1610 c 1,10,-1
 946 1481 l 1,11,12
 927 1489 927 1489 896.5 1492.5 c 128,-1,13
 866 1496 866 1496 837 1496 c 0,14,15
 786 1496 786 1496 753 1482 c 128,-1,16
 720 1468 720 1468 700.5 1440.5 c 128,-1,17
 681 1413 681 1413 671.5 1372.5 c 128,-1,18
 662 1332 662 1332 657 1279 c 2,19,-1
 555 -23 l 2,20,21
 549 -104 549 -104 529 -173 c 128,-1,22
 509 -242 509 -242 470.5 -292 c 128,-1,23
 432 -342 432 -342 372.5 -370.5 c 128,-1,24
 313 -399 313 -399 228 -399 c 0,25,26
 207 -399 207 -399 190.5 -397.5 c 128,-1,27
 174 -396 174 -396 158.5 -393 c 128,-1,28
 143 -390 143 -390 127.5 -386.5 c 128,-1,29
 112 -383 112 -383 94 -378 c 1,30,-1
 102 -249 l 1,31,32
 122 -257 122 -257 152 -260.5 c 128,-1,33
 182 -264 182 -264 211 -264 c 0,34,35
 262 -264 262 -264 294.5 -250 c 128,-1,36
 327 -236 327 -236 347 -208.5 c 128,-1,37
 367 -181 367 -181 376 -140.5 c 128,-1,38
 385 -100 385 -100 389 -47 c 2,39,-1
 492 1255 l 2,0,1
EndSplineSet
EndChar

StartChar: ordfeminine
Encoding: 170 170 158
Width: 745
Flags: W
LayerCount: 2
Fore
SplineSet
377 768 m 0,0,1
 323 768 323 768 278.5 782.5 c 128,-1,2
 234 797 234 797 202.5 824 c 128,-1,3
 171 851 171 851 155 889.5 c 128,-1,4
 139 928 139 928 143 975 c 0,5,6
 146 1018 146 1018 167 1054.5 c 128,-1,7
 188 1091 188 1091 222.5 1118.5 c 128,-1,8
 257 1146 257 1146 303 1165 c 128,-1,9
 349 1184 349 1184 403 1192 c 0,10,11
 460 1201 460 1201 518.5 1202.5 c 128,-1,12
 577 1204 577 1204 631 1211 c 1,13,-1
 632 1219 l 1,14,15
 635 1262 635 1262 630 1291 c 128,-1,16
 625 1320 625 1320 609 1337 c 128,-1,17
 593 1354 593 1354 565.5 1361.5 c 128,-1,18
 538 1369 538 1369 496 1369 c 0,19,20
 466 1369 466 1369 435.5 1365 c 128,-1,21
 405 1361 405 1361 377 1350.5 c 128,-1,22
 349 1340 349 1340 324.5 1321.5 c 128,-1,23
 300 1303 300 1303 278 1275 c 1,24,-1
 217 1350 l 1,25,26
 263 1418 263 1418 339.5 1447.5 c 128,-1,27
 416 1477 416 1477 510 1477 c 0,28,29
 639 1477 639 1477 707.5 1418 c 128,-1,30
 776 1359 776 1359 767 1244 c 1,31,-1
 766 1235 l 1,32,-1
 739 914 l 1,33,34
 737 903 737 903 736.5 882.5 c 128,-1,35
 736 862 736 862 736 840 c 2,36,-1
 736 786 l 1,37,-1
 605 786 l 1,38,-1
 605 860 l 1,39,40
 567 818 567 818 509.5 793 c 128,-1,41
 452 768 452 768 377 768 c 0,0,1
407 871 m 0,42,43
 458 871 458 871 496.5 888.5 c 128,-1,44
 535 906 535 906 563 936 c 128,-1,45
 591 966 591 966 607 1004.5 c 128,-1,46
 623 1043 623 1043 628 1085 c 1,47,-1
 626 1110 l 1,48,49
 591 1103 591 1103 552 1099.5 c 128,-1,50
 513 1096 513 1096 475.5 1092 c 128,-1,51
 438 1088 438 1088 403.5 1081.5 c 128,-1,52
 369 1075 369 1075 342 1062.5 c 128,-1,53
 315 1050 315 1050 298 1029.5 c 128,-1,54
 281 1009 281 1009 279 977 c 0,55,56
 274 921 274 921 310.5 896 c 128,-1,57
 347 871 347 871 407 871 c 0,42,43
EndSplineSet
EndChar

StartChar: ordmasculine
Encoding: 186 186 159
Width: 824
Flags: W
LayerCount: 2
Fore
SplineSet
532 1476 m 0,0,1
 620 1476 620 1476 684.5 1448.5 c 128,-1,2
 749 1421 749 1421 791 1373 c 128,-1,3
 833 1325 833 1325 851 1260.5 c 128,-1,4
 869 1196 869 1196 863 1121 c 0,5,6
 857 1048 857 1048 828.5 983.5 c 128,-1,7
 800 919 800 919 750.5 871 c 128,-1,8
 701 823 701 823 632.5 795 c 128,-1,9
 564 767 564 767 477 767 c 0,10,11
 387 767 387 767 321.5 794.5 c 128,-1,12
 256 822 256 822 214 870 c 128,-1,13
 172 918 172 918 154 983.5 c 128,-1,14
 136 1049 136 1049 142 1124 c 0,15,16
 148 1198 148 1198 177 1262 c 128,-1,17
 206 1326 206 1326 256 1373.5 c 128,-1,18
 306 1421 306 1421 375.5 1448.5 c 128,-1,19
 445 1476 445 1476 532 1476 c 0,0,1
282 1123 m 0,20,21
 278 1072 278 1072 288 1026.5 c 128,-1,22
 298 981 298 981 323 947.5 c 128,-1,23
 348 914 348 914 388.5 894.5 c 128,-1,24
 429 875 429 875 485 875 c 0,25,26
 538 875 538 875 580.5 894.5 c 128,-1,27
 623 914 623 914 654 947.5 c 128,-1,28
 685 981 685 981 703 1025.5 c 128,-1,29
 721 1070 721 1070 725 1119 c 0,30,31
 729 1171 729 1171 718 1216.5 c 128,-1,32
 707 1262 707 1262 681.5 1296 c 128,-1,33
 656 1330 656 1330 615.5 1349.5 c 128,-1,34
 575 1369 575 1369 521 1369 c 0,35,36
 468 1369 468 1369 425.5 1349.5 c 128,-1,37
 383 1330 383 1330 352.5 1296 c 128,-1,38
 322 1262 322 1262 304 1217.5 c 128,-1,39
 286 1173 286 1173 282 1123 c 0,20,21
EndSplineSet
EndChar

StartChar: ae
Encoding: 230 230 160
Width: 1807
Flags: W
LayerCount: 2
Fore
SplineSet
216 856 m 1,0,1
 248 908 248 908 292.5 945.5 c 128,-1,2
 337 983 337 983 390.5 1007 c 128,-1,3
 444 1031 444 1031 505 1042 c 128,-1,4
 566 1053 566 1053 633 1053 c 1,5,6
 688 1051 688 1051 739 1038 c 128,-1,7
 790 1025 790 1025 831 1001 c 128,-1,8
 872 977 872 977 902 941.5 c 128,-1,9
 932 906 932 906 945 860 c 0,10,11
 945 859 945 859 945.5 858 c 128,-1,12
 946 857 946 857 946 856 c 1,13,14
 978 905 978 905 1019 941.5 c 128,-1,15
 1060 978 1060 978 1107.5 1002.5 c 128,-1,16
 1155 1027 1155 1027 1207.5 1039.5 c 128,-1,17
 1260 1052 1260 1052 1314 1053 c 1,18,19
 1435 1053 1435 1053 1520 1014.5 c 128,-1,20
 1605 976 1605 976 1656.5 906.5 c 128,-1,21
 1708 837 1708 837 1728 739.5 c 128,-1,22
 1748 642 1748 642 1739 524 c 1,23,-1
 1735 479 l 1,24,-1
 980 479 l 1,25,26
 980 476 980 476 979 471.5 c 128,-1,27
 978 467 978 467 978 463 c 0,28,29
 973 396 973 396 982 333 c 128,-1,30
 991 270 991 270 1021.5 221 c 128,-1,31
 1052 172 1052 172 1107.5 142.5 c 128,-1,32
 1163 113 1163 113 1251 113 c 0,33,34
 1354 113 1354 113 1445.5 160 c 128,-1,35
 1537 207 1537 207 1600 292 c 1,36,-1
 1681 206 l 1,37,38
 1605 91 1605 91 1491 33 c 128,-1,39
 1377 -25 1377 -25 1231 -25 c 0,40,41
 1171 -25 1171 -25 1115.5 -10.5 c 128,-1,42
 1060 4 1060 4 1013.5 32.5 c 128,-1,43
 967 61 967 61 930.5 102 c 128,-1,44
 894 143 894 143 870 197 c 1,45,46
 797 93 797 93 685 35.5 c 128,-1,47
 573 -22 573 -22 439 -28 c 1,48,49
 360 -28 360 -28 296 -6.5 c 128,-1,50
 232 15 232 15 187 55 c 128,-1,51
 142 95 142 95 120 152.5 c 128,-1,52
 98 210 98 210 104 282 c 0,53,54
 109 351 109 351 142 406 c 128,-1,55
 175 461 175 461 228.5 501 c 128,-1,56
 282 541 282 541 352 566.5 c 128,-1,57
 422 592 422 592 503 602 c 0,58,59
 582 612 582 612 662 611.5 c 128,-1,60
 742 611 742 611 820 616 c 1,61,-1
 820 628 l 1,62,63
 824 686 824 686 816.5 738 c 128,-1,64
 809 790 809 790 785 830 c 128,-1,65
 761 870 761 870 719 893.5 c 128,-1,66
 677 917 677 917 613 917 c 0,67,68
 518 917 518 917 436.5 882.5 c 128,-1,69
 355 848 355 848 299 763 c 1,70,-1
 216 856 l 1,0,1
665 476 m 2,71,72
 591 474 591 474 522.5 468 c 128,-1,73
 454 462 454 462 400.5 442.5 c 128,-1,74
 347 423 347 423 312.5 387 c 128,-1,75
 278 351 278 351 273 290 c 0,76,77
 269 241 269 241 285 206.5 c 128,-1,78
 301 172 301 172 330.5 150.5 c 128,-1,79
 360 129 360 129 399.5 119 c 128,-1,80
 439 109 439 109 483 109 c 0,81,82
 570 109 570 109 630.5 139.5 c 128,-1,83
 691 170 691 170 729 221 c 128,-1,84
 767 272 767 272 786 339 c 128,-1,85
 805 406 805 406 811 479 c 1,86,-1
 665 476 l 2,71,72
1573 616 m 1,87,-1
 1573 626 l 1,88,89
 1572 690 1572 690 1558 744 c 128,-1,90
 1544 798 1544 798 1514 836 c 128,-1,91
 1484 874 1484 874 1437 895.5 c 128,-1,92
 1390 917 1390 917 1323 917 c 0,93,94
 1254 917 1254 917 1197.5 892.5 c 128,-1,95
 1141 868 1141 868 1098.5 826.5 c 128,-1,96
 1056 785 1056 785 1029 730.5 c 128,-1,97
 1002 676 1002 676 992 616 c 1,98,-1
 1573 616 l 1,87,-1
EndSplineSet
EndChar

StartChar: oslash
Encoding: 248 248 161
Width: 1238
Flags: W
LayerCount: 2
Fore
SplineSet
703 1051 m 0,0,1
 788 1051 788 1051 861 1031 c 1,2,-1
 985 1277 l 1,3,-1
 1085 1245 l 1,4,-1
 958 993 l 1,5,6
 1020 960 1020 960 1065 910.5 c 128,-1,7
 1110 861 1110 861 1137.5 799 c 128,-1,8
 1165 737 1165 737 1176 664.5 c 128,-1,9
 1187 592 1187 592 1180 513 c 1,10,11
 1172 405 1172 405 1130 307.5 c 128,-1,12
 1088 210 1088 210 1015.5 136.5 c 128,-1,13
 943 63 943 63 841.5 20 c 128,-1,14
 740 -23 740 -23 614 -23 c 0,15,16
 529 -23 529 -23 456 -3 c 1,17,-1
 325 -261 l 1,18,-1
 229 -229 l 1,19,-1
 361 34 l 1,20,21
 297 67 297 67 251 116 c 128,-1,22
 205 165 205 165 176.5 226.5 c 128,-1,23
 148 288 148 288 136 360 c 128,-1,24
 124 432 124 432 130 511 c 0,25,26
 139 622 139 622 181.5 720.5 c 128,-1,27
 224 819 224 819 297.5 892.5 c 128,-1,28
 371 966 371 966 473 1008.5 c 128,-1,29
 575 1051 575 1051 703 1051 c 0,0,1
303 509 m 0,30,31
 299 457 299 457 304.5 407.5 c 128,-1,32
 310 358 310 358 325.5 314.5 c 128,-1,33
 341 271 341 271 367 234 c 128,-1,34
 393 197 393 197 428 170 c 1,35,-1
 796 902 l 1,36,37
 772 909 772 909 745 913 c 128,-1,38
 718 917 718 917 688 917 c 0,39,40
 601 917 601 917 532.5 883.5 c 128,-1,41
 464 850 464 850 415 793.5 c 128,-1,42
 366 737 366 737 337.5 663 c 128,-1,43
 309 589 309 589 303 509 c 0,30,31
1006 511 m 0,44,45
 1015 619 1015 619 986.5 709.5 c 128,-1,46
 958 800 958 800 888 855 c 1,47,-1
 520 124 l 1,48,49
 568 109 568 109 629 109 c 0,50,51
 717 109 717 109 784.5 142 c 128,-1,52
 852 175 852 175 899.5 230.5 c 128,-1,53
 947 286 947 286 973.5 358.5 c 128,-1,54
 1000 431 1000 431 1006 511 c 0,44,45
EndSplineSet
EndChar

StartChar: questiondown
Encoding: 191 191 162
Width: 1032
Flags: W
LayerCount: 2
Fore
SplineSet
744 702 m 1,0,1
 744 672 744 672 744 642 c 0,2,3
 744 616 744 616 743.5 588 c 128,-1,4
 743 560 743 560 741 540 c 0,5,6
 737 479 737 479 704 428 c 128,-1,7
 671 377 671 377 625 331 c 128,-1,8
 579 285 579 285 525.5 241.5 c 128,-1,9
 472 198 472 198 426 152 c 128,-1,10
 380 106 380 106 347.5 55.5 c 128,-1,11
 315 5 315 5 310 -55 c 0,12,13
 306 -112 306 -112 327 -152 c 128,-1,14
 348 -192 348 -192 386 -217.5 c 128,-1,15
 424 -243 424 -243 474.5 -254.5 c 128,-1,16
 525 -266 525 -266 580 -266 c 0,17,18
 649 -266 649 -266 716.5 -248.5 c 128,-1,19
 784 -231 784 -231 846 -197 c 1,20,-1
 835 -343 l 1,21,22
 760 -378 760 -378 686 -393 c 128,-1,23
 612 -408 612 -408 549 -408 c 0,24,25
 457 -408 457 -408 379 -386.5 c 128,-1,26
 301 -365 301 -365 246 -322 c 128,-1,27
 191 -279 191 -279 162.5 -214.5 c 128,-1,28
 134 -150 134 -150 141 -63 c 0,29,30
 146 0 146 0 180 57.5 c 128,-1,31
 214 115 214 115 262 168.5 c 128,-1,32
 310 222 310 222 365 271.5 c 128,-1,33
 420 321 420 321 468 368.5 c 128,-1,34
 516 416 516 416 549 463 c 128,-1,35
 582 510 582 510 586 557 c 0,36,37
 587 580 587 580 586 605 c 128,-1,38
 585 630 585 630 584 652 c 0,39,40
 582 678 582 678 580 702 c 1,41,-1
 744 702 l 1,0,1
584 1081 m 1,42,-1
 801 1081 l 1,43,-1
 784 871 l 1,44,-1
 567 871 l 1,45,-1
 584 1081 l 1,42,-1
EndSplineSet
EndChar

StartChar: exclamdown
Encoding: 161 161 164
Width: 737
Flags: W
LayerCount: 2
Fore
SplineSet
346 1090 m 1,0,-1
 560 1090 l 1,1,-1
 544 884 l 1,2,-1
 330 884 l 1,3,-1
 346 1090 l 1,0,-1
436 -384 m 1,4,-1
 241 -384 l 1,5,-1
 366 694 l 1,6,-1
 481 694 l 1,7,-1
 436 -384 l 1,4,-1
EndSplineSet
EndChar

StartChar: logicalnot
Encoding: 172 172 165
Width: 1458
Flags: W
LayerCount: 2
Fore
SplineSet
1117 238 m 1,0,-1
 1150 659 l 1,1,-1
 252 659 l 1,2,-1
 263 798 l 1,3,-1
 1311 798 l 1,4,-1
 1267 238 l 1,5,-1
 1117 238 l 1,0,-1
EndSplineSet
EndChar

StartChar: radical
Encoding: 8730 8730 166
Width: 1314
Flags: W
LayerCount: 2
Fore
SplineSet
1338 1596 m 1,0,-1
 734 -153 l 1,1,-1
 599 -153 l 1,2,-1
 333 690 l 1,3,-1
 159 662 l 1,4,-1
 148 774 l 1,5,-1
 447 825 l 1,6,-1
 628 214 l 1,7,-1
 672 41 l 1,8,-1
 726 217 l 1,9,-1
 1208 1596 l 1,10,-1
 1338 1596 l 1,0,-1
EndSplineSet
EndChar

StartChar: florin
Encoding: 402 402 167
Width: 1190
Flags: W
LayerCount: 2
Fore
SplineSet
395 803 m 1,0,-1
 416 943 l 1,1,-1
 585 943 l 1,2,3
 595 999 595 999 608 1057.5 c 128,-1,4
 621 1116 621 1116 639.5 1170.5 c 128,-1,5
 658 1225 658 1225 685.5 1273.5 c 128,-1,6
 713 1322 713 1322 753 1358 c 128,-1,7
 793 1394 793 1394 848 1415 c 128,-1,8
 903 1436 903 1436 978 1436 c 0,9,10
 1011 1436 1011 1436 1047 1431 c 128,-1,11
 1083 1426 1083 1426 1119 1417 c 1,12,-1
 1100 1272 l 1,13,14
 1071 1284 1071 1284 1043.5 1289 c 128,-1,15
 1016 1294 1016 1294 993 1294 c 0,16,17
 949 1294 949 1294 918.5 1283.5 c 128,-1,18
 888 1273 888 1273 866.5 1253.5 c 128,-1,19
 845 1234 845 1234 831 1205 c 128,-1,20
 817 1176 817 1176 808 1139 c 2,21,-1
 756 943 l 1,22,-1
 956 943 l 1,23,-1
 935 803 l 1,24,-1
 722 803 l 1,25,-1
 541 120 l 2,26,27
 517 31 517 31 487.5 -51 c 128,-1,28
 458 -133 458 -133 414 -195.5 c 128,-1,29
 370 -258 370 -258 306.5 -295 c 128,-1,30
 243 -332 243 -332 151 -332 c 0,31,32
 107 -332 107 -332 48 -316 c 1,33,-1
 71 -178 l 1,34,35
 114 -194 114 -194 148 -194 c 0,36,37
 185 -194 185 -194 213.5 -178 c 128,-1,38
 242 -162 242 -162 264 -134.5 c 128,-1,39
 286 -107 286 -107 303.5 -70.5 c 128,-1,40
 321 -34 321 -34 334 7 c 0,41,42
 366 103 366 103 393.5 202.5 c 128,-1,43
 421 302 421 302 446.5 402.5 c 128,-1,44
 472 503 472 503 497.5 604 c 128,-1,45
 523 705 523 705 550 803 c 1,46,-1
 395 803 l 1,0,-1
EndSplineSet
EndChar

StartChar: approxequal
Encoding: 8776 8776 168
Width: 1351
Flags: W
LayerCount: 2
Fore
SplineSet
1228 518 m 1,0,1
 1211 461 1211 461 1183.5 413.5 c 128,-1,2
 1156 366 1156 366 1117.5 332.5 c 128,-1,3
 1079 299 1079 299 1029.5 280.5 c 128,-1,4
 980 262 980 262 919 262 c 0,5,6
 859 262 859 262 798.5 286.5 c 128,-1,7
 738 311 738 311 660 359 c 0,8,9
 611 388 611 388 568 407 c 128,-1,10
 525 426 525 426 483 426 c 0,11,12
 410 426 410 426 363.5 381 c 128,-1,13
 317 336 317 336 289 261 c 1,14,-1
 177 289 l 1,15,16
 215 409 215 409 297.5 477.5 c 128,-1,17
 380 546 380 546 495 546 c 0,18,19
 540 546 540 546 581.5 533.5 c 128,-1,20
 623 521 623 521 662.5 503 c 128,-1,21
 702 485 702 485 738.5 463 c 128,-1,22
 775 441 775 441 808.5 423 c 128,-1,23
 842 405 842 405 873.5 392.5 c 128,-1,24
 905 380 905 380 934 380 c 0,25,26
 997 380 997 380 1041 423.5 c 128,-1,27
 1085 467 1085 467 1120 546 c 1,28,-1
 1228 518 l 1,0,1
1255 890 m 1,29,30
 1239 832 1239 832 1211 785 c 128,-1,31
 1183 738 1183 738 1144.5 704.5 c 128,-1,32
 1106 671 1106 671 1056.5 652.5 c 128,-1,33
 1007 634 1007 634 946 634 c 0,34,35
 914 634 914 634 884 640 c 128,-1,36
 854 646 854 646 823 658.5 c 128,-1,37
 792 671 792 671 758 689 c 128,-1,38
 724 707 724 707 685 731 c 0,39,40
 636 760 636 760 593.5 779.5 c 128,-1,41
 551 799 551 799 509 799 c 0,42,43
 437 799 437 799 391 754 c 128,-1,44
 345 709 345 709 317 634 c 1,45,-1
 204 661 l 1,46,47
 241 780 241 780 323.5 848.5 c 128,-1,48
 406 917 406 917 522 917 c 0,49,50
 586 917 586 917 643 893.5 c 128,-1,51
 700 870 700 870 766 830 c 0,52,53
 829 791 829 791 875.5 771.5 c 128,-1,54
 922 752 922 752 961 752 c 0,55,56
 1024 752 1024 752 1068.5 794.5 c 128,-1,57
 1113 837 1113 837 1148 918 c 1,58,-1
 1255 890 l 1,29,30
EndSplineSet
EndChar

StartChar: guillemotleft
Encoding: 171 171 169
Width: 1156
Flags: W
LayerCount: 2
Fore
SplineSet
593 914 m 1,0,-1
 753 914 l 1,1,-1
 459 541 l 1,2,-1
 686 171 l 1,3,-1
 529 171 l 1,4,-1
 289 541 l 1,5,-1
 593 914 l 1,0,-1
962 914 m 1,6,-1
 1121 914 l 1,7,-1
 829 541 l 1,8,-1
 1056 171 l 1,9,-1
 899 171 l 1,10,-1
 659 541 l 1,11,-1
 962 914 l 1,6,-1
EndSplineSet
EndChar

StartChar: guillemotright
Encoding: 187 187 170
Width: 1156
Flags: W
LayerCount: 2
Fore
SplineSet
733 171 m 1,0,-1
 576 171 l 1,1,-1
 866 542 l 1,2,-1
 641 914 l 1,3,-1
 797 914 l 1,4,-1
 1038 542 l 1,5,-1
 733 171 l 1,0,-1
338 171 m 1,6,-1
 178 171 l 1,7,-1
 472 542 l 1,8,-1
 243 914 l 1,9,-1
 401 914 l 1,10,-1
 642 542 l 1,11,-1
 338 171 l 1,6,-1
EndSplineSet
EndChar

StartChar: ellipsis
Encoding: 8230 8230 171
Width: 1620
Flags: W
LayerCount: 2
Fore
SplineSet
375 -11 m 1,0,-1
 158 -11 l 1,1,-1
 175 199 l 1,2,-1
 392 199 l 1,3,-1
 375 -11 l 1,0,-1
915 -11 m 1,4,-1
 698 -11 l 1,5,-1
 715 199 l 1,6,-1
 932 199 l 1,7,-1
 915 -11 l 1,4,-1
1455 -11 m 1,8,-1
 1238 -11 l 1,9,-1
 1255 199 l 1,10,-1
 1472 199 l 1,11,-1
 1455 -11 l 1,8,-1
EndSplineSet
EndChar

StartChar: OE
Encoding: 338 338 175
Width: 2099
Flags: W
LayerCount: 2
Fore
SplineSet
1984 0 m 1,0,-1
 1151 0 l 1,1,-1
 1159 105 l 1,2,3
 1085 43 1085 43 1001.5 10 c 128,-1,4
 918 -23 918 -23 827 -23 c 0,5,6
 660 -23 660 -23 532 30 c 128,-1,7
 404 83 404 83 319 181 c 128,-1,8
 234 279 234 279 196 418 c 128,-1,9
 158 557 158 557 172 729 c 1,10,11
 184 893 184 893 244 1031 c 128,-1,12
 304 1169 304 1169 405 1269.5 c 128,-1,13
 506 1370 506 1370 644.5 1426.5 c 128,-1,14
 783 1483 783 1483 954 1483 c 0,15,16
 1042 1483 1042 1483 1118.5 1456.5 c 128,-1,17
 1195 1430 1195 1430 1260 1381 c 1,18,-1
 1266 1456 l 1,19,-1
 2069 1456 l 1,20,-1
 2057 1308 l 1,21,-1
 1426 1308 l 1,22,-1
 1388 820 l 1,23,-1
 1981 820 l 1,24,-1
 1969 672 l 1,25,-1
 1376 672 l 1,26,-1
 1335 148 l 1,27,-1
 1996 148 l 1,28,-1
 1984 0 l 1,0,-1
837 125 m 0,29,30
 937 125 937 125 1020.5 162 c 128,-1,31
 1104 199 1104 199 1172 265 c 1,32,-1
 1247 1219 l 1,33,34
 1189 1274 1189 1274 1112 1304.5 c 128,-1,35
 1035 1335 1035 1335 935 1335 c 0,36,37
 804 1335 804 1335 701 1285 c 128,-1,38
 598 1235 598 1235 524 1151 c 128,-1,39
 450 1067 450 1067 407.5 956.5 c 128,-1,40
 365 846 365 846 355 725 c 0,41,42
 345 599 345 599 370 489.5 c 128,-1,43
 395 380 395 380 455 299 c 128,-1,44
 515 218 515 218 610.5 171.5 c 128,-1,45
 706 125 706 125 837 125 c 0,29,30
EndSplineSet
EndChar

StartChar: oe
Encoding: 339 339 176
Width: 1970
Flags: W
LayerCount: 2
Fore
SplineSet
1150 470 m 1,0,1
 1144 393 1144 393 1157.5 327 c 128,-1,2
 1171 261 1171 261 1206 212.5 c 128,-1,3
 1241 164 1241 164 1296 136.5 c 128,-1,4
 1351 109 1351 109 1429 109 c 0,5,6
 1532 109 1532 109 1621.5 158.5 c 128,-1,7
 1711 208 1711 208 1771 292 c 1,8,-1
 1852 206 l 1,9,10
 1775 85 1775 85 1659 28.5 c 128,-1,11
 1543 -28 1543 -28 1407 -28 c 256,12,13
 1271 -28 1271 -28 1174.5 30.5 c 128,-1,14
 1078 89 1078 89 1038 209 c 1,15,-1
 1037 206 l 1,16,17
 1008 145 1008 145 963.5 100.5 c 128,-1,18
 919 56 919 56 863.5 27.5 c 128,-1,19
 808 -1 808 -1 742.5 -14.5 c 128,-1,20
 677 -28 677 -28 607 -28 c 0,21,22
 484 -28 484 -28 391 14 c 128,-1,23
 298 56 298 56 238 129 c 128,-1,24
 178 202 178 202 150.5 300 c 128,-1,25
 123 398 123 398 132 509 c 0,26,27
 140 620 140 620 183 719 c 128,-1,28
 226 818 226 818 299.5 892.5 c 128,-1,29
 373 967 373 967 475 1010 c 128,-1,30
 577 1053 577 1053 703 1053 c 0,31,32
 851 1053 851 1053 945.5 994.5 c 128,-1,33
 1040 936 1040 936 1091 821 c 1,34,35
 1155 936 1155 936 1258.5 994.5 c 128,-1,36
 1362 1053 1362 1053 1500 1053 c 0,37,38
 1610 1053 1610 1053 1691.5 1015 c 128,-1,39
 1773 977 1773 977 1824.5 908 c 128,-1,40
 1876 839 1876 839 1897 741.5 c 128,-1,41
 1918 644 1918 644 1909 525 c 2,42,-1
 1905 472 l 1,43,-1
 1150 470 l 1,0,1
1743 609 m 1,44,45
 1749 675 1749 675 1736.5 731.5 c 128,-1,46
 1724 788 1724 788 1693 829.5 c 128,-1,47
 1662 871 1662 871 1613 894 c 128,-1,48
 1564 917 1564 917 1495 917 c 256,49,50
 1426 917 1426 917 1368.5 891.5 c 128,-1,51
 1311 866 1311 866 1267.5 823.5 c 128,-1,52
 1224 781 1224 781 1196.5 725 c 128,-1,53
 1169 669 1169 669 1161 609 c 1,54,-1
 1743 609 l 1,44,45
985 511 m 0,55,56
 992 597 992 597 978 671.5 c 128,-1,57
 964 746 964 746 928 800.5 c 128,-1,58
 892 855 892 855 831.5 886 c 128,-1,59
 771 917 771 917 684 917 c 0,60,61
 599 917 599 917 532 883.5 c 128,-1,62
 465 850 465 850 416.5 793.5 c 128,-1,63
 368 737 368 737 339.5 663 c 128,-1,64
 311 589 311 589 305 507 c 1,65,66
 298 426 298 426 314 354 c 128,-1,67
 330 282 330 282 369.5 227.5 c 128,-1,68
 409 173 409 173 473 141 c 128,-1,69
 537 109 537 109 628 109 c 0,70,71
 712 109 712 109 776 142 c 128,-1,72
 840 175 840 175 884.5 230.5 c 128,-1,73
 929 286 929 286 954 358.5 c 128,-1,74
 979 431 979 431 985 511 c 0,55,56
EndSplineSet
EndChar

StartChar: endash
Encoding: 8211 8211 177
Width: 1085
Flags: W
LayerCount: 2
Fore
SplineSet
1122 489 m 1,0,-1
 32 489 l 1,1,-1
 43 626 l 1,2,-1
 1133 626 l 1,3,-1
 1122 489 l 1,0,-1
EndSplineSet
EndChar

StartChar: emdash
Encoding: 8212 8212 178
Width: 2171
Flags: W
LayerCount: 2
Fore
SplineSet
2198 489 m 1,0,-1
 35 489 l 1,1,-1
 46 626 l 1,2,-1
 2209 626 l 1,3,-1
 2198 489 l 1,0,-1
EndSplineSet
EndChar

StartChar: quotedblleft
Encoding: 8220 8220 179
Width: 1024
Flags: W
LayerCount: 2
Fore
SplineSet
442 1023 m 1,0,-1
 260 1023 l 1,1,-1
 449 1463 l 1,2,-1
 582 1463 l 1,3,-1
 442 1023 l 1,0,-1
792 1023 m 1,4,-1
 609 1023 l 1,5,-1
 798 1463 l 1,6,-1
 931 1463 l 1,7,-1
 792 1023 l 1,4,-1
EndSplineSet
EndChar

StartChar: quotedblright
Encoding: 8221 8221 180
Width: 1024
Flags: W
LayerCount: 2
Fore
SplineSet
428 1463 m 1,0,-1
 610 1463 l 1,1,-1
 422 1023 l 1,2,-1
 289 1023 l 1,3,-1
 428 1463 l 1,0,-1
755 1463 m 1,4,-1
 937 1463 l 1,5,-1
 748 1023 l 1,6,-1
 615 1023 l 1,7,-1
 755 1463 l 1,4,-1
EndSplineSet
EndChar

StartChar: quoteleft
Encoding: 8216 8216 181
Width: 553
Flags: W
LayerCount: 2
Fore
SplineSet
393 1023 m 1,0,-1
 211 1023 l 1,1,-1
 400 1463 l 1,2,-1
 532 1463 l 1,3,-1
 393 1023 l 1,0,-1
EndSplineSet
EndChar

StartChar: quoteright
Encoding: 8217 8217 182
Width: 553
Flags: W
LayerCount: 2
Fore
SplineSet
361 1463 m 1,0,-1
 542 1463 l 1,1,-1
 353 1023 l 1,2,-1
 221 1023 l 1,3,-1
 361 1463 l 1,0,-1
EndSplineSet
EndChar

StartChar: divide
Encoding: 247 247 183
Width: 1458
Flags: W
LayerCount: 2
Fore
SplineSet
238 485 m 1,0,-1
 247 624 l 1,1,-1
 1294 624 l 1,2,-1
 1284 485 l 1,3,-1
 238 485 l 1,0,-1
905 873 m 1,4,-1
 688 873 l 1,5,-1
 704 1083 l 1,6,-1
 921 1083 l 1,7,-1
 905 873 l 1,4,-1
837 21 m 1,8,-1
 620 21 l 1,9,-1
 637 231 l 1,10,-1
 854 231 l 1,11,-1
 837 21 l 1,8,-1
EndSplineSet
EndChar

StartChar: lozenge
Encoding: 9674 9674 184
Width: 1248
Flags: W
LayerCount: 2
Fore
SplineSet
697 214 m 1,0,-1
 1035 711 l 1,1,-1
 782 1213 l 1,2,-1
 729 1324 l 1,3,-1
 655 1207 l 1,4,-1
 317 713 l 1,5,-1
 569 211 l 1,6,-1
 623 98 l 1,7,-1
 697 214 l 1,0,-1
1186 712 m 1,8,-1
 665 -45 l 1,9,-1
 559 -45 l 1,10,-1
 168 711 l 1,11,-1
 686 1470 l 1,12,-1
 793 1470 l 1,13,-1
 1186 712 l 1,8,-1
EndSplineSet
EndChar

StartChar: fraction
Encoding: 8260 8260 187
Width: 368
Flags: W
LayerCount: 2
Fore
SplineSet
830 1436 m 1,0,-1
 -186 0 l 1,1,-1
 -337 0 l 1,2,-1
 681 1436 l 1,3,-1
 830 1436 l 1,0,-1
EndSplineSet
EndChar

StartChar: Euro
Encoding: 8364 8364 188
Width: 1190
Flags: W
LayerCount: 2
Fore
SplineSet
150 654 m 1,0,-1
 252 654 l 1,1,2
 252 678 252 678 254 708.5 c 128,-1,3
 256 739 256 739 261 784 c 1,4,-1
 137 784 l 1,5,-1
 170 922 l 1,6,-1
 291 922 l 1,7,8
 321 1037 321 1037 375 1133.5 c 128,-1,9
 429 1230 429 1230 505.5 1300 c 128,-1,10
 582 1370 582 1370 680 1409 c 128,-1,11
 778 1448 778 1448 897 1448 c 0,12,13
 997 1448 997 1448 1075 1419 c 128,-1,14
 1153 1390 1153 1390 1211 1330 c 1,15,-1
 1160 1141 l 1,16,17
 1113 1222 1113 1222 1040 1262.5 c 128,-1,18
 967 1303 967 1303 879 1303 c 0,19,20
 798 1303 798 1303 732.5 1273 c 128,-1,21
 667 1243 667 1243 616 1191 c 128,-1,22
 565 1139 565 1139 528 1069.5 c 128,-1,23
 491 1000 491 1000 468 922 c 1,24,-1
 1060 922 l 1,25,-1
 1029 784 l 1,26,-1
 439 784 l 1,27,28
 433 750 433 750 432 717.5 c 128,-1,29
 431 685 431 685 430 656 c 1,30,-1
 430 654 l 1,31,-1
 1005 654 l 1,32,-1
 975 516 l 1,33,-1
 433 516 l 1,34,35
 438 429 438 429 459.5 357.5 c 128,-1,36
 481 286 481 286 522.5 234 c 128,-1,37
 564 182 564 182 626.5 153.5 c 128,-1,38
 689 125 689 125 777 125 c 0,39,40
 852 125 852 125 934 156 c 128,-1,41
 1016 187 1016 187 1104 253 c 1,42,-1
 1089 75 l 1,43,44
 1010 24 1010 24 925.5 1.5 c 128,-1,45
 841 -21 841 -21 750 -21 c 0,46,47
 627 -21 627 -21 536.5 18 c 128,-1,48
 446 57 446 57 385 127.5 c 128,-1,49
 324 198 324 198 292 297 c 128,-1,50
 260 396 260 396 254 516 c 1,51,-1
 119 516 l 1,52,-1
 150 654 l 1,0,-1
EndSplineSet
EndChar

StartChar: guilsinglleft
Encoding: 8249 8249 189
Width: 642
Flags: W
LayerCount: 2
Fore
SplineSet
451 914 m 1,0,-1
 610 914 l 1,1,-1
 318 541 l 1,2,-1
 544 171 l 1,3,-1
 388 171 l 1,4,-1
 148 541 l 1,5,-1
 451 914 l 1,0,-1
EndSplineSet
EndChar

StartChar: guilsinglright
Encoding: 8250 8250 190
Width: 642
Flags: W
LayerCount: 2
Fore
SplineSet
273 171 m 1,0,-1
 116 171 l 1,1,-1
 407 542 l 1,2,-1
 182 914 l 1,3,-1
 337 914 l 1,4,-1
 579 542 l 1,5,-1
 273 171 l 1,0,-1
EndSplineSet
EndChar

StartChar: daggerdbl
Encoding: 8225 8225 193
Width: 1022
Flags: W
LayerCount: 2
Fore
SplineSet
519 983 m 1,0,-1
 181 983 l 1,1,-1
 192 1115 l 1,2,-1
 536 1115 l 1,3,-1
 536 1451 l 1,4,-1
 707 1451 l 1,5,-1
 660 1115 l 1,6,-1
 1004 1115 l 1,7,-1
 993 983 l 1,8,-1
 642 983 l 1,9,-1
 609 562 l 1,10,-1
 953 562 l 1,11,-1
 943 435 l 1,12,-1
 599 435 l 1,13,-1
 600 113 l 1,14,-1
 429 113 l 1,15,-1
 476 435 l 1,16,-1
 132 435 l 1,17,-1
 142 562 l 1,18,-1
 486 562 l 1,19,-1
 519 983 l 1,0,-1
EndSplineSet
EndChar

StartChar: periodcentered
Encoding: 183 183 194
Width: 444
Flags: W
LayerCount: 2
Fore
SplineSet
333 513 m 1,0,-1
 116 513 l 1,1,-1
 133 723 l 1,2,-1
 350 723 l 1,3,-1
 333 513 l 1,0,-1
EndSplineSet
EndChar

StartChar: quotesinglbase
Encoding: 8218 8218 195
Width: 553
Flags: W
LayerCount: 2
Fore
SplineSet
247 201 m 1,0,-1
 428 201 l 1,1,-1
 239 -238 l 1,2,-1
 106 -238 l 1,3,-1
 247 201 l 1,0,-1
EndSplineSet
EndChar

StartChar: quotedblbase
Encoding: 8222 8222 196
Width: 1024
Flags: W
LayerCount: 2
Fore
SplineSet
299 201 m 1,0,-1
 481 201 l 1,1,-1
 293 -238 l 1,2,-1
 159 -238 l 1,3,-1
 299 201 l 1,0,-1
657 201 m 1,4,-1
 840 201 l 1,5,-1
 651 -238 l 1,6,-1
 518 -238 l 1,7,-1
 657 201 l 1,4,-1
EndSplineSet
EndChar

StartChar: perthousand
Encoding: 8240 8240 197
Width: 2386
Flags: W
LayerCount: 2
Fore
SplineSet
2007 567 m 0,0,1
 1958 567 1958 567 1920 548 c 128,-1,2
 1882 529 1882 529 1855.5 496 c 128,-1,3
 1829 463 1829 463 1813.5 419.5 c 128,-1,4
 1798 376 1798 376 1794 328 c 0,5,6
 1790 277 1790 277 1798.5 233 c 128,-1,7
 1807 189 1807 189 1829 156 c 128,-1,8
 1851 123 1851 123 1886 104.5 c 128,-1,9
 1921 86 1921 86 1970 86 c 0,10,11
 2018 86 2018 86 2056 105.5 c 128,-1,12
 2094 125 2094 125 2120.5 158 c 128,-1,13
 2147 191 2147 191 2162.5 235 c 128,-1,14
 2178 279 2178 279 2182 327 c 0,15,16
 2186 377 2186 377 2177.5 421 c 128,-1,17
 2169 465 2169 465 2147 497.5 c 128,-1,18
 2125 530 2125 530 2090 548.5 c 128,-1,19
 2055 567 2055 567 2007 567 c 0,0,1
1957 -27 m 0,20,21
 1877 -27 1877 -27 1816.5 -1.5 c 128,-1,22
 1756 24 1756 24 1716.5 70.5 c 128,-1,23
 1677 117 1677 117 1660 182.5 c 128,-1,24
 1643 248 1643 248 1649 328 c 0,25,26
 1655 404 1655 404 1682.5 468.5 c 128,-1,27
 1710 533 1710 533 1757.5 580.5 c 128,-1,28
 1805 628 1805 628 1870.5 654.5 c 128,-1,29
 1936 681 1936 681 2018 681 c 0,30,31
 2099 681 2099 681 2159 656.5 c 128,-1,32
 2219 632 2219 632 2258.5 585.5 c 128,-1,33
 2298 539 2298 539 2314.5 473 c 128,-1,34
 2331 407 2331 407 2325 325 c 0,35,36
 2319 250 2319 250 2291 185.5 c 128,-1,37
 2263 121 2263 121 2215.5 73.5 c 128,-1,38
 2168 26 2168 26 2103 -0.5 c 128,-1,39
 2038 -27 2038 -27 1957 -27 c 0,20,21
468 740 m 0,40,41
 387 740 387 740 326.5 765.5 c 128,-1,42
 266 791 266 791 227 837.5 c 128,-1,43
 188 884 188 884 170.5 949.5 c 128,-1,44
 153 1015 153 1015 159 1095 c 0,45,46
 165 1171 165 1171 192.5 1235.5 c 128,-1,47
 220 1300 220 1300 267 1347 c 128,-1,48
 314 1394 314 1394 379.5 1420.5 c 128,-1,49
 445 1447 445 1447 526 1447 c 0,50,51
 608 1447 608 1447 669 1422 c 128,-1,52
 730 1397 730 1397 769 1351 c 128,-1,53
 808 1305 808 1305 825 1239.5 c 128,-1,54
 842 1174 842 1174 835 1092 c 0,55,56
 829 1017 829 1017 801 952.5 c 128,-1,57
 773 888 773 888 726 840.5 c 128,-1,58
 679 793 679 793 613.5 766.5 c 128,-1,59
 548 740 548 740 468 740 c 0,40,41
1170 -27 m 256,60,61
 1089 -27 1089 -27 1028.5 -1.5 c 128,-1,62
 968 24 968 24 928.5 70.5 c 128,-1,63
 889 117 889 117 872 182.5 c 128,-1,64
 855 248 855 248 861 328 c 0,65,66
 867 404 867 404 894.5 468.5 c 128,-1,67
 922 533 922 533 969.5 580.5 c 128,-1,68
 1017 628 1017 628 1082.5 654.5 c 128,-1,69
 1148 681 1148 681 1230 681 c 256,70,71
 1312 681 1312 681 1372.5 655.5 c 128,-1,72
 1433 630 1433 630 1471.5 583.5 c 128,-1,73
 1510 537 1510 537 1526.5 471.5 c 128,-1,74
 1543 406 1543 406 1537 325 c 0,75,76
 1531 250 1531 250 1503.5 185.5 c 128,-1,77
 1476 121 1476 121 1428.5 73.5 c 128,-1,78
 1381 26 1381 26 1316 -0.5 c 128,-1,79
 1251 -27 1251 -27 1170 -27 c 256,60,61
1219 567 m 256,80,81
 1170 567 1170 567 1132 548 c 128,-1,82
 1094 529 1094 529 1067.5 496 c 128,-1,83
 1041 463 1041 463 1025.5 419.5 c 128,-1,84
 1010 376 1010 376 1006 328 c 0,85,86
 1002 277 1002 277 1010.5 233 c 128,-1,87
 1019 189 1019 189 1041 156 c 128,-1,88
 1063 123 1063 123 1098 104.5 c 128,-1,89
 1133 86 1133 86 1182 86 c 0,90,91
 1230 86 1230 86 1267.5 105.5 c 128,-1,92
 1305 125 1305 125 1331.5 158.5 c 128,-1,93
 1358 192 1358 192 1373.5 235.5 c 128,-1,94
 1389 279 1389 279 1393 327 c 0,95,96
 1397 378 1397 378 1389 421.5 c 128,-1,97
 1381 465 1381 465 1359.5 497.5 c 128,-1,98
 1338 530 1338 530 1303 548.5 c 128,-1,99
 1268 567 1268 567 1219 567 c 256,80,81
516 1335 m 0,100,101
 468 1335 468 1335 430.5 1316 c 128,-1,102
 393 1297 393 1297 366.5 1264 c 128,-1,103
 340 1231 340 1231 324.5 1187.5 c 128,-1,104
 309 1144 309 1144 305 1096 c 0,105,106
 301 1045 301 1045 309.5 1001 c 128,-1,107
 318 957 318 957 339.5 924 c 128,-1,108
 361 891 361 891 396 872 c 128,-1,109
 431 853 431 853 481 853 c 0,110,111
 529 853 529 853 566 872.5 c 128,-1,112
 603 892 603 892 629.5 925 c 128,-1,113
 656 958 656 958 671 1001.5 c 128,-1,114
 686 1045 686 1045 690 1093 c 0,115,116
 694 1144 694 1144 685.5 1188 c 128,-1,117
 677 1232 677 1232 655.5 1264.5 c 128,-1,118
 634 1297 634 1297 599.5 1316 c 128,-1,119
 565 1335 565 1335 516 1335 c 0,100,101
243 -21 m 1,120,-1
 1296 1436 l 1,121,-1
 1445 1436 l 1,122,-1
 396 -21 l 1,123,-1
 243 -21 l 1,120,-1
EndSplineSet
EndChar

StartChar: breve
Encoding: 728 728 213
Width: 629
Flags: W
LayerCount: 2
Fore
SplineSet
710 1454 m 1,0,1
 700 1395 700 1395 674.5 1350.5 c 128,-1,2
 649 1306 649 1306 610.5 1276.5 c 128,-1,3
 572 1247 572 1247 521 1232.5 c 128,-1,4
 470 1218 470 1218 411 1218 c 0,5,6
 286 1218 286 1218 216 1275.5 c 128,-1,7
 146 1333 146 1333 146 1454 c 1,8,-1
 233 1454 l 1,9,10
 236 1418 236 1418 252 1393.5 c 128,-1,11
 268 1369 268 1369 293 1353.5 c 128,-1,12
 318 1338 318 1338 349 1331.5 c 128,-1,13
 380 1325 380 1325 413 1325 c 256,14,15
 446 1325 446 1325 479 1332.5 c 128,-1,16
 512 1340 512 1340 540.5 1355.5 c 128,-1,17
 569 1371 569 1371 591 1395.5 c 128,-1,18
 613 1420 613 1420 624 1454 c 1,19,-1
 710 1454 l 1,0,1
EndSplineSet
EndChar

StartChar: dotaccent
Encoding: 729 729 214
Width: 524
Flags: W
LayerCount: 2
Fore
SplineSet
284 1246 m 1,0,-1
 295 1409 l 1,1,-1
 452 1409 l 1,2,-1
 442 1246 l 1,3,-1
 284 1246 l 1,0,-1
EndSplineSet
EndChar

StartChar: hungarumlaut
Encoding: 733 733 215
Width: 969
Flags: W
LayerCount: 2
Fore
SplineSet
521 1174 m 1,0,-1
 766 1487 l 1,1,-1
 942 1487 l 1,2,-1
 641 1174 l 1,3,-1
 521 1174 l 1,0,-1
254 1174 m 1,4,-1
 496 1487 l 1,5,-1
 672 1487 l 1,6,-1
 372 1174 l 1,7,-1
 254 1174 l 1,4,-1
EndSplineSet
EndChar

StartChar: ogonek
Encoding: 731 731 216
Width: 508
Flags: W
LayerCount: 2
Fore
SplineSet
267 -281 m 0,0,1
 290 -281 290 -281 309 -279 c 128,-1,2
 328 -277 328 -277 346.5 -273.5 c 128,-1,3
 365 -270 365 -270 383.5 -264 c 128,-1,4
 402 -258 402 -258 423 -250 c 1,5,-1
 414 -361 l 1,6,7
 399 -367 399 -367 377.5 -372.5 c 128,-1,8
 356 -378 356 -378 332 -381.5 c 128,-1,9
 308 -385 308 -385 282.5 -387.5 c 128,-1,10
 257 -390 257 -390 235 -390 c 0,11,12
 189 -390 189 -390 150.5 -379 c 128,-1,13
 112 -368 112 -368 84 -347 c 128,-1,14
 56 -326 56 -326 41.5 -295.5 c 128,-1,15
 27 -265 27 -265 30 -225 c 0,16,17
 33 -187 33 -187 54.5 -152.5 c 128,-1,18
 76 -118 76 -118 108 -88.5 c 128,-1,19
 140 -59 140 -59 180.5 -33.5 c 128,-1,20
 221 -8 221 -8 264 12 c 1,21,-1
 392 0 l 1,22,23
 346 -27 346 -27 307 -52.5 c 128,-1,24
 268 -78 268 -78 239 -102.5 c 128,-1,25
 210 -127 210 -127 192.5 -151 c 128,-1,26
 175 -175 175 -175 173 -199 c 0,27,28
 172 -218 172 -218 179.5 -233 c 128,-1,29
 187 -248 187 -248 200.5 -258.5 c 128,-1,30
 214 -269 214 -269 231.5 -275 c 128,-1,31
 249 -281 249 -281 267 -281 c 0,0,1
EndSplineSet
EndChar

StartChar: caron
Encoding: 711 711 217
Width: 699
Flags: W
LayerCount: 2
Fore
SplineSet
780 1493 m 1,0,-1
 517 1170 l 1,1,-1
 361 1170 l 1,2,-1
 147 1493 l 1,3,-1
 294 1493 l 1,4,-1
 441 1278 l 1,5,-1
 626 1493 l 1,6,-1
 780 1493 l 1,0,-1
EndSplineSet
EndChar

StartChar: uni00AF
Encoding: 175 175 218
Width: 850
Flags: W
LayerCount: 2
Fore
SplineSet
962 1380 m 1,0,-1
 106 1380 l 1,1,-1
 116 1510 l 1,2,-1
 972 1510 l 1,3,-1
 962 1380 l 1,0,-1
EndSplineSet
EndChar

StartChar: pi
Encoding: 960 960 219
Width: 1288
Flags: W
LayerCount: 2
Fore
SplineSet
1285 907 m 1,0,-1
 1081 907 l 1,1,-1
 1033 288 l 2,2,3
 1031 265 1031 265 1030.5 240.5 c 128,-1,4
 1030 216 1030 216 1038 195 c 128,-1,5
 1046 174 1046 174 1065 160.5 c 128,-1,6
 1084 147 1084 147 1120 147 c 0,7,8
 1154 147 1154 147 1201 160 c 1,9,10
 1199 145 1199 145 1196.5 130 c 128,-1,11
 1194 115 1194 115 1193 100 c 0,12,13
 1191 77 1191 77 1191.5 53.5 c 128,-1,14
 1192 30 1192 30 1199 6 c 1,15,16
 1159 -1 1159 -1 1124 -4.5 c 128,-1,17
 1089 -8 1089 -8 1060 -8 c 0,18,19
 1001 -8 1001 -8 962.5 8 c 128,-1,20
 924 24 924 24 902 58.5 c 128,-1,21
 880 93 880 93 873.5 147.5 c 128,-1,22
 867 202 867 202 873 279 c 2,23,-1
 922 907 l 1,24,-1
 551 907 l 1,25,26
 520 698 520 698 486 517 c 0,27,28
 471 440 471 440 454 361 c 128,-1,29
 437 282 437 282 418.5 212.5 c 128,-1,30
 400 143 400 143 380.5 87 c 128,-1,31
 361 31 361 31 341 0 c 1,32,-1
 172 0 l 1,33,34
 201 44 201 44 225.5 108.5 c 128,-1,35
 250 173 250 173 270.5 249.5 c 128,-1,36
 291 326 291 326 308 411 c 128,-1,37
 325 496 325 496 339 582 c 128,-1,38
 353 668 353 668 364 751 c 128,-1,39
 375 834 375 834 382 907 c 1,40,41
 292 905 292 905 225 890 c 128,-1,42
 158 875 158 875 101 846 c 1,43,-1
 94 977 l 1,44,45
 120 996 120 996 154 1008.5 c 128,-1,46
 188 1021 188 1021 231.5 1028 c 128,-1,47
 275 1035 275 1035 329 1037.5 c 128,-1,48
 383 1040 383 1040 451 1040 c 2,49,-1
 1296 1040 l 1,50,-1
 1285 907 l 1,0,-1
EndSplineSet
EndChar

StartChar: uni2206
Encoding: 8710 8710 220
Width: 1314
Flags: W
LayerCount: 2
Fore
SplineSet
1263 0 m 1,0,-1
 40 0 l 1,1,-1
 46 80 l 1,2,-1
 673 1429 l 1,3,-1
 855 1429 l 1,4,-1
 1269 80 l 1,5,-1
 1263 0 l 1,0,-1
1046 162 m 1,6,-1
 768 1111 l 1,7,-1
 743 1218 l 1,8,-1
 702 1111 l 1,9,-1
 282 162 l 1,10,-1
 1046 162 l 1,6,-1
EndSplineSet
EndChar

StartChar: mu
Encoding: 181 181 222
AltUni2: 0003bc.ffffffff.0
Width: 1217
Flags: W
LayerCount: 2
Fore
SplineSet
238 1026 m 1,0,-1
 403 1026 l 1,1,-1
 353 399 l 2,2,3
 342 256 342 256 397.5 182.5 c 128,-1,4
 453 109 453 109 586 109 c 0,5,6
 658 109 658 109 716 135 c 128,-1,7
 774 161 774 161 816 206 c 128,-1,8
 858 251 858 251 882.5 310.5 c 128,-1,9
 907 370 907 370 912 436 c 2,10,-1
 959 1026 l 1,11,-1
 1124 1026 l 1,12,-1
 1062 246 l 2,13,14
 1057 180 1057 180 1054 121.5 c 128,-1,15
 1051 63 1051 63 1051 0 c 1,16,-1
 881 0 l 1,17,-1
 889 135 l 1,18,19
 760 -23 760 -23 538 -23 c 0,20,21
 469 -23 469 -23 416.5 -8.5 c 128,-1,22
 364 6 364 6 324 31 c 1,23,-1
 306 -202 l 1,24,-1
 141 -202 l 1,25,-1
 238 1026 l 1,0,-1
EndSplineSet
EndChar

StartChar: Omega
Encoding: 937 937 223
Width: 1603
Flags: W
LayerCount: 2
Fore
SplineSet
104 138 m 1,0,-1
 446 137 l 1,1,2
 379 189 379 189 325.5 256.5 c 128,-1,3
 272 324 272 324 235.5 404.5 c 128,-1,4
 199 485 199 485 183 578.5 c 128,-1,5
 167 672 167 672 175 776 c 0,6,7
 187 930 187 930 249.5 1054 c 128,-1,8
 312 1178 312 1178 412 1266 c 128,-1,9
 512 1354 512 1354 643 1401.5 c 128,-1,10
 774 1449 774 1449 923 1449 c 0,11,12
 1078 1449 1078 1449 1198.5 1397 c 128,-1,13
 1319 1345 1319 1345 1399 1254.5 c 128,-1,14
 1479 1164 1479 1164 1516 1040 c 128,-1,15
 1553 916 1553 916 1542 772 c 0,16,17
 1533 665 1533 665 1498.5 571.5 c 128,-1,18
 1464 478 1464 478 1412.5 398 c 128,-1,19
 1361 318 1361 318 1297 252.5 c 128,-1,20
 1233 187 1233 187 1166 137 c 1,21,-1
 1494 138 l 1,22,-1
 1474 0 l 1,23,-1
 953 0 l 1,24,-1
 959 121 l 1,25,26
 1039 172 1039 172 1109 239.5 c 128,-1,27
 1179 307 1179 307 1233 387.5 c 128,-1,28
 1287 468 1287 468 1321 560.5 c 128,-1,29
 1355 653 1355 653 1362 754 c 1,30,31
 1371 865 1371 865 1347.5 965.5 c 128,-1,32
 1324 1066 1324 1066 1267.5 1142.5 c 128,-1,33
 1211 1219 1211 1219 1121 1264 c 128,-1,34
 1031 1309 1031 1309 907 1309 c 0,35,36
 794 1309 794 1309 697 1269 c 128,-1,37
 600 1229 600 1229 526.5 1156.5 c 128,-1,38
 453 1084 453 1084 407.5 982.5 c 128,-1,39
 362 881 362 881 353 759 c 0,40,41
 345 658 345 658 363 564.5 c 128,-1,42
 381 471 381 471 420 389.5 c 128,-1,43
 459 308 459 308 518.5 240 c 128,-1,44
 578 172 578 172 652 121 c 1,45,-1
 645 0 l 1,46,-1
 104 0 l 1,47,-1
 104 138 l 1,0,-1
EndSplineSet
EndChar

StartChar: Eth
Encoding: 208 208 224
Width: 1546
Flags: W
LayerCount: 2
Fore
SplineSet
245 658 m 1,0,-1
 52 658 l 1,1,-1
 62 795 l 1,2,-1
 256 795 l 1,3,-1
 308 1456 l 1,4,-1
 623 1456 l 2,5,6
 753 1456 753 1456 870.5 1441 c 128,-1,7
 988 1426 988 1426 1088 1392 c 128,-1,8
 1188 1358 1188 1358 1267 1302.5 c 128,-1,9
 1346 1247 1346 1247 1399 1165.5 c 128,-1,10
 1452 1084 1452 1084 1475 974.5 c 128,-1,11
 1498 865 1498 865 1487 724 c 0,12,13
 1474 558 1474 558 1408 424.5 c 128,-1,14
 1342 291 1342 291 1229 196.5 c 128,-1,15
 1116 102 1116 102 959.5 51 c 128,-1,16
 803 0 803 0 610 0 c 2,17,-1
 193 0 l 1,18,-1
 245 658 l 1,0,-1
417 658 m 1,19,-1
 377 148 l 1,20,-1
 638 148 l 2,21,22
 797 148 797 148 917.5 190.5 c 128,-1,23
 1038 233 1038 233 1121 309 c 128,-1,24
 1204 385 1204 385 1249.5 490.5 c 128,-1,25
 1295 596 1295 596 1305 721 c 0,26,27
 1318 885 1318 885 1281 997.5 c 128,-1,28
 1244 1110 1244 1110 1158.5 1179 c 128,-1,29
 1073 1248 1073 1248 941 1278 c 128,-1,30
 809 1308 809 1308 632 1308 c 2,31,-1
 468 1308 l 1,32,-1
 428 795 l 1,33,-1
 633 795 l 1,34,-1
 623 658 l 1,35,-1
 417 658 l 1,19,-1
EndSplineSet
EndChar

StartChar: multiply
Encoding: 215 215 225
Width: 1458
Flags: W
LayerCount: 2
Fore
SplineSet
868 554 m 1,0,-1
 1142 258 l 1,1,-1
 1030 154 l 1,2,-1
 757 450 l 1,3,-1
 437 154 l 1,4,-1
 342 257 l 1,5,-1
 661 554 l 1,6,-1
 389 851 l 1,7,-1
 500 954 l 1,8,-1
 773 657 l 1,9,-1
 1093 954 l 1,10,-1
 1189 850 l 1,11,-1
 868 554 l 1,0,-1
EndSplineSet
EndChar

StartChar: eth
Encoding: 240 240 232
Width: 1190
Flags: W
LayerCount: 2
Fore
SplineSet
770 1490 m 1,0,1
 879 1446 879 1446 957.5 1363 c 128,-1,2
 1036 1280 1036 1280 1084 1163 c 1,3,-1
 1281 1163 l 1,4,-1
 1270 1026 l 1,5,-1
 1125 1026 l 1,6,7
 1142 946 1142 946 1147.5 857.5 c 128,-1,8
 1153 769 1153 769 1146 672 c 1,9,10
 1132 504 1132 504 1088 374.5 c 128,-1,11
 1044 245 1044 245 971.5 156.5 c 128,-1,12
 899 68 899 68 800 22.5 c 128,-1,13
 701 -23 701 -23 579 -23 c 0,14,15
 466 -23 466 -23 377.5 13 c 128,-1,16
 289 49 289 49 229.5 112 c 128,-1,17
 170 175 170 175 142.5 261 c 128,-1,18
 115 347 115 347 123 446 c 256,19,20
 131 545 131 545 169.5 628 c 128,-1,21
 208 711 208 711 272 770.5 c 128,-1,22
 336 830 336 830 423 863.5 c 128,-1,23
 510 897 510 897 615 897 c 0,24,25
 740 897 740 897 832.5 855 c 128,-1,26
 925 813 925 813 975 723 c 1,27,-1
 975 725 l 1,28,29
 988 897 988 897 962 1026 c 1,30,-1
 700 1026 l 1,31,-1
 711 1163 l 1,32,-1
 917 1163 l 1,33,34
 880 1241 880 1241 823 1300 c 128,-1,35
 766 1359 766 1359 684 1406 c 1,36,-1
 770 1490 l 1,0,1
631 757 m 0,37,38
 552 757 552 757 492 733 c 128,-1,39
 432 709 432 709 391 666.5 c 128,-1,40
 350 624 350 624 327 566 c 128,-1,41
 304 508 304 508 298 441 c 1,42,43
 293 372 293 372 310.5 313 c 128,-1,44
 328 254 328 254 365 210.5 c 128,-1,45
 402 167 402 167 457 142.5 c 128,-1,46
 512 118 512 118 582 118 c 0,47,48
 669 118 669 118 734 151.5 c 128,-1,49
 799 185 799 185 843.5 239.5 c 128,-1,50
 888 294 888 294 912 362.5 c 128,-1,51
 936 431 936 431 941 501 c 0,52,53
 942 509 942 509 942.5 519 c 128,-1,54
 943 529 943 529 945 536 c 1,55,56
 932 585 932 585 903.5 625.5 c 128,-1,57
 875 666 875 666 834.5 695.5 c 128,-1,58
 794 725 794 725 742.5 741 c 128,-1,59
 691 757 691 757 631 757 c 0,37,38
EndSplineSet
EndChar

StartChar: thorn
Encoding: 254 254 235
Width: 1239
Flags: W
LayerCount: 2
Fore
SplineSet
289 -427 m 1,0,-1
 124 -427 l 1,1,-1
 272 1455 l 1,2,-1
 439 1455 l 1,3,-1
 394 882 l 1,4,5
 464 966 464 966 555 1008.5 c 128,-1,6
 646 1051 646 1051 750 1051 c 0,7,8
 871 1051 871 1051 956.5 1009 c 128,-1,9
 1042 967 1042 967 1094 895.5 c 128,-1,10
 1146 824 1146 824 1167.5 729 c 128,-1,11
 1189 634 1189 634 1180 527 c 1,12,13
 1172 419 1172 419 1134.5 319.5 c 128,-1,14
 1097 220 1097 220 1032.5 144 c 128,-1,15
 968 68 968 68 876 22.5 c 128,-1,16
 784 -23 784 -23 666 -23 c 0,17,18
 450 -23 450 -23 333 135 c 1,19,-1
 289 -427 l 1,0,-1
361 494 m 0,20,21
 355 411 355 411 370.5 340.5 c 128,-1,22
 386 270 386 270 422.5 218.5 c 128,-1,23
 459 167 459 167 516.5 138 c 128,-1,24
 574 109 574 109 652 109 c 0,25,26
 736 109 736 109 799.5 143 c 128,-1,27
 863 177 863 177 906 234 c 128,-1,28
 949 291 949 291 973 365.5 c 128,-1,29
 997 440 997 440 1004 521 c 0,30,31
 1010 597 1010 597 999.5 668.5 c 128,-1,32
 989 740 989 740 957 795.5 c 128,-1,33
 925 851 925 851 867.5 884 c 128,-1,34
 810 917 810 917 722 917 c 0,35,36
 630 917 630 917 564.5 882 c 128,-1,37
 499 847 499 847 456 788.5 c 128,-1,38
 413 730 413 730 390.5 653.5 c 128,-1,39
 368 577 368 577 361 494 c 0,20,21
EndSplineSet
EndChar

StartChar: Thorn
Encoding: 222 222 236
Width: 1274
Flags: W
LayerCount: 2
Fore
SplineSet
375 0 m 1,0,-1
 203 0 l 1,1,-1
 318 1456 l 1,2,-1
 490 1456 l 1,3,-1
 478 1312 l 1,4,-1
 647 1312 l 2,5,6
 732 1312 732 1312 813 1304.5 c 128,-1,7
 894 1297 894 1297 965.5 1278.5 c 128,-1,8
 1037 1260 1037 1260 1096 1228.5 c 128,-1,9
 1155 1197 1155 1197 1196 1148.5 c 128,-1,10
 1237 1100 1237 1100 1256.5 1033 c 128,-1,11
 1276 966 1276 966 1269 876 c 0,12,13
 1260 762 1260 762 1204 680 c 128,-1,14
 1148 598 1148 598 1060.5 545.5 c 128,-1,15
 973 493 973 493 862 468 c 128,-1,16
 751 443 751 443 632 443 c 2,17,-1
 410 443 l 1,18,-1
 375 0 l 1,0,-1
467 1164 m 1,19,-1
 422 592 l 1,20,-1
 683 592 l 2,21,22
 765 592 765 592 836 608.5 c 128,-1,23
 907 625 907 625 960.5 659.5 c 128,-1,24
 1014 694 1014 694 1046.5 747 c 128,-1,25
 1079 800 1079 800 1085 874 c 0,26,27
 1092 961 1092 961 1065 1017.5 c 128,-1,28
 1038 1074 1038 1074 984 1106.5 c 128,-1,29
 930 1139 930 1139 852.5 1151.5 c 128,-1,30
 775 1164 775 1164 680 1164 c 2,31,-1
 467 1164 l 1,19,-1
EndSplineSet
EndChar

StartChar: brokenbar
Encoding: 166 166 237
Width: 500
Flags: W
LayerCount: 2
Fore
SplineSet
129 -491 m 1,0,-1
 199 393 l 1,1,-1
 356 393 l 1,2,-1
 286 -491 l 1,3,-1
 129 -491 l 1,0,-1
221 677 m 1,4,-1
 289 1545 l 1,5,-1
 446 1545 l 1,6,-1
 378 677 l 1,7,-1
 221 677 l 1,4,-1
EndSplineSet
EndChar

StartChar: periodcentered
Encoding: 65537 -1 238
Width: 444
Flags: W
LayerCount: 2
Fore
SplineSet
333 513 m 1,0,-1
 116 513 l 1,1,-1
 133 723 l 1,2,-1
 350 723 l 1,3,-1
 333 513 l 1,0,-1
EndSplineSet
EndChar

StartChar: minus
Encoding: 8722 8722 239
Width: 1458
Flags: W
LayerCount: 2
Fore
SplineSet
1297 633 m 1,0,-1
 1286 496 l 1,1,-1
 237 496 l 1,2,-1
 248 633 l 1,3,-1
 1297 633 l 1,0,-1
EndSplineSet
EndChar

StartChar: uni030F
Encoding: 783 783 240
Width: 969
Flags: W
LayerCount: 2
Fore
SplineSet
530 1174 m 1,0,-1
 279 1487 l 1,1,-1
 455 1487 l 1,2,-1
 650 1174 l 1,3,-1
 530 1174 l 1,0,-1
799 1174 m 1,4,-1
 549 1487 l 1,5,-1
 725 1487 l 1,6,-1
 917 1174 l 1,7,-1
 799 1174 l 1,4,-1
EndSplineSet
EndChar

StartChar: uni0326
Encoding: 806 806 241
Width: 540
Flags: W
LayerCount: 2
Fore
SplineSet
172 -162 m 1,0,-1
 359 -162 l 1,1,-1
 160 -625 l 1,2,-1
 29 -625 l 1,3,-1
 172 -162 l 1,0,-1
EndSplineSet
EndChar

StartChar: uni0311
Encoding: 785 785 242
Width: 629
Flags: W
LayerCount: 2
Fore
SplineSet
606 1218 m 1,0,1
 601 1252 601 1252 583 1276.5 c 128,-1,2
 565 1301 565 1301 538.5 1316.5 c 128,-1,3
 512 1332 512 1332 480 1339.5 c 128,-1,4
 448 1347 448 1347 415 1347 c 256,5,6
 382 1347 382 1347 350 1340.5 c 128,-1,7
 318 1334 318 1334 291 1318.5 c 128,-1,8
 264 1303 264 1303 244 1278.5 c 128,-1,9
 224 1254 224 1254 215 1218 c 1,10,-1
 128 1218 l 1,11,12
 148 1339 148 1339 227 1396.5 c 128,-1,13
 306 1454 306 1454 431 1454 c 0,14,15
 490 1454 490 1454 538 1439.5 c 128,-1,16
 586 1425 586 1425 620.5 1395.5 c 128,-1,17
 655 1366 655 1366 673.5 1321.5 c 128,-1,18
 692 1277 692 1277 692 1218 c 1,19,-1
 606 1218 l 1,0,1
EndSplineSet
EndChar

StartChar: twosuperior
Encoding: 178 178 271
Width: 1190
Flags: W
LayerCount: 2
Fore
SplineSet
331 604 m 1,0,-1
 340 715 l 1,1,-1
 442 802 l 2,2,3
 501 853 501 853 562.5 908 c 128,-1,4
 624 963 624 963 675.5 1016.5 c 128,-1,5
 727 1070 727 1070 760 1119.5 c 128,-1,6
 793 1169 793 1169 797 1211 c 0,7,8
 801 1262 801 1262 766.5 1292.5 c 128,-1,9
 732 1323 732 1323 666 1323 c 0,10,11
 603 1323 603 1323 553.5 1288 c 128,-1,12
 504 1253 504 1253 470 1192 c 1,13,-1
 391 1270 l 1,14,15
 433 1351 433 1351 509 1395.5 c 128,-1,16
 585 1440 585 1440 681 1440 c 0,17,18
 737 1440 737 1440 783.5 1424 c 128,-1,19
 830 1408 830 1408 863.5 1378.5 c 128,-1,20
 897 1349 897 1349 913.5 1307 c 128,-1,21
 930 1265 930 1265 926 1213 c 0,22,23
 921 1148 921 1148 887.5 1088 c 128,-1,24
 854 1028 854 1028 800.5 968.5 c 128,-1,25
 747 909 747 909 675 848.5 c 128,-1,26
 603 788 603 788 522 722 c 1,27,-1
 886 722 l 1,28,-1
 877 604 l 1,29,-1
 331 604 l 1,0,-1
EndSplineSet
EndChar

StartChar: threesuperior
Encoding: 179 179 272
Width: 1190
Flags: W
LayerCount: 2
Fore
SplineSet
341 1340 m 1,0,1
 390 1385 390 1385 459.5 1413 c 128,-1,2
 529 1441 529 1441 601 1441 c 0,3,4
 653 1441 653 1441 701 1426 c 128,-1,5
 749 1411 749 1411 784.5 1382 c 128,-1,6
 820 1353 820 1353 839.5 1310.5 c 128,-1,7
 859 1268 859 1268 855 1213 c 0,8,9
 850 1154 850 1154 819 1107 c 128,-1,10
 788 1060 788 1060 733 1032 c 1,11,12
 791 1005 791 1005 821.5 955.5 c 128,-1,13
 852 906 852 906 846 834 c 0,14,15
 841 777 841 777 813.5 731 c 128,-1,16
 786 685 786 685 742.5 652.5 c 128,-1,17
 699 620 699 620 643 603 c 128,-1,18
 587 586 587 586 527 586 c 0,19,20
 455 586 455 586 394 610.5 c 128,-1,21
 333 635 333 635 289 683 c 1,22,-1
 357 779 l 1,23,24
 434 701 434 701 531 701 c 0,25,26
 567 701 567 701 600 710 c 128,-1,27
 633 719 633 719 658 736.5 c 128,-1,28
 683 754 683 754 699 779.5 c 128,-1,29
 715 805 715 805 717 837 c 0,30,31
 720 874 720 874 707 899.5 c 128,-1,32
 694 925 694 925 667.5 941 c 128,-1,33
 641 957 641 957 601.5 964 c 128,-1,34
 562 971 562 971 513 971 c 0,35,36
 509 971 509 971 505 970.5 c 128,-1,37
 501 970 501 970 498 970 c 2,38,-1
 457 970 l 1,39,-1
 466 1089 l 1,40,-1
 515 1089 l 2,41,42
 558 1089 558 1089 594.5 1095 c 128,-1,43
 631 1101 631 1101 658.5 1115.5 c 128,-1,44
 686 1130 686 1130 702.5 1153 c 128,-1,45
 719 1176 719 1176 721 1210 c 1,46,47
 724 1239 724 1239 715 1260.5 c 128,-1,48
 706 1282 706 1282 688 1295.5 c 128,-1,49
 670 1309 670 1309 645 1315.5 c 128,-1,50
 620 1322 620 1322 589 1322 c 0,51,52
 535 1322 535 1322 486 1300.5 c 128,-1,53
 437 1279 437 1279 391 1244 c 1,54,-1
 341 1340 l 1,0,1
EndSplineSet
EndChar

StartChar: onesuperior
Encoding: 185 185 273
Width: 1190
Flags: W
LayerCount: 2
Fore
SplineSet
345 1333 m 1,0,1
 400 1350 400 1350 441.5 1370.5 c 128,-1,2
 483 1391 483 1391 520 1412 c 1,3,-1
 626 1427 l 1,4,-1
 570 720 l 1,5,-1
 692 720 l 1,6,-1
 683 604 l 1,7,-1
 318 604 l 1,8,-1
 327 723 l 1,9,-1
 449 723 l 1,10,-1
 477 1069 l 2,11,12
 479 1102 479 1102 481 1134.5 c 128,-1,13
 483 1167 483 1167 486 1200 c 2,14,-1
 491 1271 l 1,15,16
 458 1254 458 1254 416.5 1236 c 128,-1,17
 375 1218 375 1218 334 1203 c 1,18,-1
 345 1333 l 1,0,1
EndSplineSet
EndChar

StartChar: foursuperior
Encoding: 8308 8308 274
Width: 897
Flags: W
LayerCount: 2
Fore
SplineSet
404 615 m 1,0,-1
 419 803 l 1,1,-1
 41 803 l 1,2,-1
 48 894 l 1,3,-1
 455 1412 l 1,4,-1
 589 1412 l 1,5,-1
 549 910 l 1,6,-1
 658 910 l 1,7,-1
 660 803 l 1,8,-1
 539 803 l 1,9,-1
 524 615 l 1,10,-1
 404 615 l 1,0,-1
425 910 m 1,11,-1
 440 1090 l 1,12,-1
 455 1246 l 1,13,-1
 188 910 l 1,14,-1
 425 910 l 1,11,-1
EndSplineSet
EndChar

StartChar: currency
Encoding: 164 164 278
Width: 1238
Flags: W
LayerCount: 2
Fore
SplineSet
649 1051 m 0,0,1
 712 1051 712 1051 772 1034 c 1,2,-1
 895 1301 l 1,3,-1
 936 1285 l 1,4,-1
 812 1018 l 1,5,6
 913 970 913 970 956.5 877 c 128,-1,7
 1000 784 1000 784 990 663 c 0,8,9
 986 613 986 613 972 565 c 128,-1,10
 958 517 958 517 934.5 474.5 c 128,-1,11
 911 432 911 432 878.5 396.5 c 128,-1,12
 846 361 846 361 806 336 c 1,13,-1
 935 56 l 1,14,-1
 899 40 l 1,15,-1
 772 316 l 1,16,17
 728 296 728 296 682 285 c 128,-1,18
 636 274 636 274 582 274 c 0,19,20
 518 274 518 274 473 287 c 1,21,-1
 357 40 l 1,22,-1
 321 56 l 1,23,-1
 434 301 l 1,24,25
 381 322 381 322 342.5 357.5 c 128,-1,26
 304 393 304 393 279.5 439.5 c 128,-1,27
 255 486 255 486 245 541.5 c 128,-1,28
 235 597 235 597 240 659 c 0,29,30
 244 715 244 715 260.5 767.5 c 128,-1,31
 277 820 277 820 303.5 865 c 128,-1,32
 330 910 330 910 367 946 c 128,-1,33
 404 982 404 982 451 1006 c 1,34,-1
 322 1285 l 1,35,-1
 363 1301 l 1,36,-1
 492 1023 l 1,37,38
 559 1051 559 1051 649 1051 c 0,0,1
896 660 m 0,39,40
 901 724 901 724 888.5 782 c 128,-1,41
 876 840 876 840 845 884 c 128,-1,42
 814 928 814 928 762.5 953.5 c 128,-1,43
 711 979 711 979 638 979 c 0,44,45
 569 979 569 979 514.5 952.5 c 128,-1,46
 460 926 460 926 421.5 882 c 128,-1,47
 383 838 383 838 360.5 780.5 c 128,-1,48
 338 723 338 723 333 660 c 256,49,50
 328 597 328 597 341.5 540 c 128,-1,51
 355 483 355 483 387 439.5 c 128,-1,52
 419 396 419 396 470 370.5 c 128,-1,53
 521 345 521 345 592 345 c 0,54,55
 662 345 662 345 716 371 c 128,-1,56
 770 397 770 397 808.5 440.5 c 128,-1,57
 847 484 847 484 869 541 c 128,-1,58
 891 598 891 598 896 660 c 0,39,40
EndSplineSet
EndChar
